<svg width="650" height="650" viewBox="0 0 650 650" fill="none" xmlns="http://www.w3.org/2000/svg">
<path d="M614.46 360.66C559.44 248.19 402.09 83.45 197.62 83C-15.74 82.56 -36.38 294.17 78.62 353C193.62 411.83 25.47 485.16 145.68 558.82C267.34 633.38 527.35 626.38 591.35 568.38C655.35 510.38 638.23 409.25 614.46 360.66Z" fill="url(#paint0_linear_1222_173121)"/>
<path d="M95.8998 506.84C95.8998 506.84 122.9 476.78 120.04 464.93C117.18 453.08 133.93 438.69 134.26 421.43C134.63 401.88 124.19 407.11 120.57 398.75C115.21 386.36 127.14 375.39 109.11 370.65C96.7998 367.41 88.1098 373.73 89.2698 358.5C90.4298 343.27 84.8798 324.42 74.9998 317.58C60.9098 307.8 32.2398 307.04 41.8998 326.74C52.0498 347.45 43.0998 381.55 40.7398 390.89C15.7598 489.59 95.8998 506.84 95.8998 506.84Z" fill="url(#paint1_linear_1222_173121)"/>
<path d="M65.77 337.88C68.86 363.36 100.77 404.08 86.34 431.29C71.91 458.5 93.81 500.63 93.81 500.63" stroke="url(#paint2_linear_1222_173121)" stroke-width="0.93" stroke-miterlimit="10"/>
<path d="M177.74 449.91C160.2 456.11 179.19 478.8 160 489C140.81 499.2 116.23 504.4 115.1 499.44C115.02 499.11 113.99 495.82 112.9 491.01C112.65 489.9 112.4 488.7 112.15 487.44C112.09 487.09 112.02 486.73 111.95 486.37C111.234 482.533 110.75 478.656 110.5 474.76C110.5 474.64 110.5 474.52 110.5 474.4C110.41 472.85 110.38 471.29 110.41 469.74C110.44 468.19 110.52 466.74 110.68 465.31C111.25 459.79 112.83 454.7 116.06 451.05C116.887 450.101 117.827 449.258 118.86 448.54C132.19 439.27 137.51 443.77 137.41 430.07C137.23 406.59 143.92 403.07 151.79 405.4C159.66 407.73 165.79 408.4 166.96 399.69C168.13 390.98 160.96 352.33 178.88 352.4C209.88 352.5 194.19 392.02 191.06 398.4C183.56 413.77 199.16 416.18 202.87 427.4C206.58 438.62 195.27 443.71 177.74 449.91Z" fill="url(#paint3_linear_1222_173121)"/>
<path d="M111.67 533.2C111.67 533.2 107 490 139.9 465.76C154.78 454.82 182.44 415.76 179.9 373.48" stroke="url(#paint4_linear_1222_173121)" stroke-width="2.67" stroke-miterlimit="10"/>
<path d="M65.4999 413C69.5899 406.06 99.0099 434.68 93.8599 441C88.7099 447.32 61.5999 419.6 65.4999 413Z" fill="url(#paint5_linear_1222_173121)"/>
<path d="M58.07 452C58.66 443.92 94.17 455.54 92.35 463.52C90.53 471.5 57.51 459.72 58.07 452Z" fill="url(#paint6_linear_1222_173121)"/>
<path d="M125.11 416.36C131.4 421.29 100.35 448.03 94.8102 442.1C89.2702 436.17 119.11 411.66 125.11 416.36Z" fill="url(#paint7_linear_1222_173121)"/>
<path d="M121.85 450.06C127.14 456.06 97.1499 471.06 92.6499 464.29C88.1499 457.52 116.81 444.36 121.85 450.06Z" fill="url(#paint8_linear_1222_173121)"/>
<path d="M60.4301 481.07C58.8801 473.65 98.0201 477.92 98.3601 485.56C98.7001 493.2 61.9101 488.13 60.4301 481.07Z" fill="url(#paint9_linear_1222_173121)"/>
<path d="M119.94 472.43C124 479.29 95.9402 496.43 92.6902 488.94C89.4402 481.45 116.08 465.89 119.94 472.43Z" fill="url(#paint10_linear_1222_173121)"/>
<path d="M104.47 379.62C112.37 380.2 102.15 420.01 94.3398 418.17C86.5298 416.33 96.9398 379.07 104.47 379.62Z" fill="url(#paint11_linear_1222_173121)"/>
<path d="M68.4599 411.1C72.5499 404.16 101.97 432.78 96.8199 439.1C91.6699 445.42 64.5599 417.71 68.4599 411.1Z" fill="url(#paint12_linear_1222_173121)"/>
<path d="M60.4299 450.37C61.0199 442.29 96.5299 453.91 94.7099 461.89C92.8899 469.87 59.8699 458.07 60.4299 450.37Z" fill="url(#paint13_linear_1222_173121)"/>
<path d="M126.3 414.58C132.59 419.51 101.54 446.25 95.9999 440.32C90.4599 434.39 120.31 409.89 126.3 414.58Z" fill="url(#paint14_linear_1222_173121)"/>
<path d="M111.32 463.8C111.87 458.38 113.38 453.38 116.49 449.8C120.24 449.05 123.39 449.2 124.77 450.8C127.71 454.06 119.75 460.18 111.32 463.8Z" fill="url(#paint15_linear_1222_173121)"/>
<path d="M123.33 448.79C128.62 454.79 98.6302 469.79 94.1302 463.02C89.6302 456.25 118.3 443.09 123.33 448.79Z" fill="url(#paint16_linear_1222_173121)"/>
<path d="M96.4499 408.78C96.4499 408.78 97.3499 429.46 94.6099 447.51C91.8699 465.56 98.7799 496.11 110.03 505.87" stroke="url(#paint17_linear_1222_173121)" stroke-width="1.55" stroke-miterlimit="10"/>
<path d="M60.4301 479.65C58.8801 472.23 98.0201 476.5 98.3601 484.14C98.7001 491.78 61.9101 486.72 60.4301 479.65Z" fill="url(#paint18_linear_1222_173121)"/>
<path d="M112.76 485.53C112.7 485.19 112.64 484.83 112.57 484.48C111.883 480.711 111.419 476.904 111.18 473.08C111.18 472.96 111.18 472.84 111.18 472.73C117.57 469.19 124.39 467.41 126.18 470.47C128.45 474.32 120.63 481.39 112.76 485.53Z" fill="url(#paint19_linear_1222_173121)"/>
<path d="M124.73 467.53C128.79 474.39 100.73 491.53 97.4802 484.04C94.2302 476.55 120.87 461 124.73 467.53Z" fill="url(#paint20_linear_1222_173121)"/>
<path d="M106.39 379.1C114.29 379.68 104.07 419.49 96.2602 417.65C88.4502 415.81 98.8602 378.55 106.39 379.1Z" fill="url(#paint21_linear_1222_173121)"/>
<path d="M113.17 570.13H88.84C83.5342 570.129 78.4091 568.202 74.4164 564.708C70.4238 561.213 67.8347 556.389 67.13 551.13L61.13 506.35C61.0347 505.637 61.0927 504.911 61.3001 504.222C61.5076 503.533 61.8596 502.895 62.3329 502.353C62.8061 501.811 63.3896 501.376 64.0444 501.077C64.6992 500.778 65.4102 500.622 66.13 500.62H135.93C136.65 500.622 137.361 500.778 138.016 501.077C138.67 501.376 139.254 501.811 139.727 502.353C140.2 502.895 140.552 503.533 140.76 504.222C140.967 504.911 141.025 505.637 140.93 506.35L134.93 551.13C134.224 556.397 131.628 561.229 127.625 564.724C123.622 568.219 118.484 570.141 113.17 570.13Z" fill="url(#paint22_linear_1222_173121)"/>
<path d="M393.21 115.1H100.82C94.4965 115.1 89.3701 120.226 89.3701 126.55V320.15C89.3701 326.474 94.4965 331.6 100.82 331.6H393.21C399.534 331.6 404.66 326.474 404.66 320.15V126.55C404.66 120.226 399.534 115.1 393.21 115.1Z" fill="url(#paint23_linear_1222_173121)"/>
<path d="M388.84 124.39H105.17C101.392 124.39 98.3301 127.452 98.3301 131.23V315.48C98.3301 319.258 101.392 322.32 105.17 322.32H388.84C392.618 322.32 395.68 319.258 395.68 315.48V131.23C395.68 127.452 392.618 124.39 388.84 124.39Z" fill="white"/>
<path d="M406.21 565.28C405.336 565.274 404.474 565.08 403.682 564.712C402.889 564.344 402.185 563.81 401.616 563.147C401.047 562.483 400.628 561.705 400.385 560.866C400.143 560.026 400.083 559.145 400.21 558.28L414.62 451.42L426.56 452.77L412.25 560C411.82 563 406.21 565.28 406.21 565.28Z" fill="url(#paint24_linear_1222_173121)"/>
<path d="M512.76 557.43L498 448.54L508 444.54L524.73 555.34C525.42 559.28 522.39 560 519.4 560.54C516.41 561.08 513.46 561.45 512.76 557.43Z" fill="url(#paint25_linear_1222_173121)"/>
<path d="M474.15 570.48L461.51 446.34H473.85L486.42 569.59C486.7 573.42 483.78 573.27 480.9 573.7C477.69 574.19 474.46 574.81 474.15 570.48Z" fill="url(#paint26_linear_1222_173121)"/>
<path d="M519.94 431.89C517.33 451.18 488.94 453.89 455.94 454.96C454.94 455.46 418.48 455.24 401.5 449.52L402.09 318.9C402.09 307.9 406.8 289.67 422.9 289.4C449.9 288.95 500.05 284.83 519.68 290.9C524.17 307.02 527.44 324.82 519.96 371.38C515.67 398 521.2 422.63 519.94 431.89Z" fill="url(#paint27_linear_1222_173121)"/>
<path d="M512.5 299C518.5 317 517.74 327.4 509.75 356.47C496.44 404.92 518.29 429.79 472.12 454.22C500.12 452.62 517.72 448.31 519.94 431.89C521.2 422.63 515.67 398.02 519.94 371.37C525.45 337.08 535.73 309.06 522.06 292.5C518.28 287.92 510.48 292.92 512.5 299Z" fill="url(#paint28_linear_1222_173121)"/>
<path d="M411.4 330.38C411.4 330.38 407.4 349.11 408.4 357.85C388.27 366.92 383.97 374.12 384.23 375.6L380 358L388.43 357.09L393.76 331.72C396.87 334.84 411.4 330.38 411.4 330.38Z" fill="url(#paint29_linear_1222_173121)"/>
<path d="M429 405.43C418 404.71 386 406.02 371.35 409.74C343.85 416.74 358.55 447.74 369.22 474.52C372.88 465.52 379.15 426.03 382.83 421.43C390.33 412.09 419 407.13 429 405.43Z" fill="url(#paint30_linear_1222_173121)"/>
<path d="M399.28 446.09L390.68 459.17L374.85 483.23L403.27 534.55L421.18 523.7L399.28 446.09Z" fill="url(#paint31_linear_1222_173121)"/>
<path d="M429.07 527.49L421.2 523.79L421.18 523.7L403.27 534.55L403.39 534.76L407.57 542.33L419.4 549.99L424.37 549.33L431.07 534.33L429.07 527.49Z" fill="url(#paint32_linear_1222_173121)"/>
<path d="M441 281.21C422.63 283.83 414.75 285.21 407.42 296.54C398.52 310.26 393.7 327 393.22 331C393.373 331.247 393.554 331.476 393.76 331.68C396.87 334.83 410.41 332.45 410.41 332.45C410.41 332.45 405.91 336.71 406.58 347.87C406.63 348.79 411.91 383.56 411.91 384.27H428.52C427.63 349.24 426.58 313.75 441 281.21Z" fill="url(#paint33_linear_1222_173121)"/>
<path d="M462.65 279.58L442.15 281L440.97 281.17C426.58 313.71 427.62 349.17 428.51 384.23H446.13C436.72 348.48 450.82 312.87 462.65 279.58Z" fill="url(#paint34_linear_1222_173121)"/>
<path d="M484.32 339.67C491.13 342.67 508.89 339.8 515.95 338.61C515.95 338.61 514.34 299.3 502.65 286.54C490.96 273.78 470.23 279.04 470.23 279.04L462.65 279.58C450.82 312.87 436.72 348.48 446.13 384.27H494.13C494.13 384.27 485 346.41 484.32 339.67Z" fill="url(#paint35_linear_1222_173121)"/>
<path d="M324.42 542.72C320.42 546.98 314.63 553.22 313.7 554.08C318.51 555.98 316.09 569.88 320.07 572.08C324.05 574.28 334.58 564.76 339.65 565.92C339.97 562.92 342.42 556.52 344.35 552.08V552.03L324.7 542L324.42 542.72Z" fill="url(#paint36_linear_1222_173121)"/>
<path d="M496.39 401.41L415.91 400.34C415.91 400.34 384.1 403.23 373.55 421.61C372.19 423.98 363.74 442.07 363.74 442.07C349.88 474.74 325.64 534.69 322.91 542L346.74 553.39L398 465.2L411.06 451.2C411.06 451.2 451.33 449.2 473.2 441.54C507 429.71 496.39 401.41 496.39 401.41Z" fill="url(#paint37_linear_1222_173121)"/>
<path d="M406.79 400.05C406.79 400.05 403.17 399.6 397.52 399.23" stroke="#17FF44" stroke-width="1.95" stroke-miterlimit="10"/>
<path d="M381.88 384.47H295.4L279.55 316.33C279.354 315.493 279.35 314.622 279.538 313.783C279.726 312.944 280.102 312.158 280.637 311.485C281.171 310.811 281.852 310.268 282.626 309.895C283.401 309.522 284.25 309.328 285.11 309.33H365.95L381.88 384.47Z" fill="url(#paint38_linear_1222_173121)"/>
<path d="M418.46 380.22L417.55 384.28H381.88L363.2 312.89C363.092 312.471 363.081 312.033 363.168 311.609C363.255 311.186 363.437 310.787 363.702 310.445C363.966 310.102 364.305 309.825 364.693 309.633C365.081 309.442 365.507 309.342 365.94 309.34C366.577 309.34 367.195 309.554 367.696 309.947C368.196 310.341 368.55 310.891 368.7 311.51L380 358L384.29 375.63C384.287 375.687 384.287 375.743 384.29 375.8V375.86H415C415.533 375.867 416.058 375.992 416.536 376.227C417.014 376.462 417.434 376.801 417.766 377.218C418.097 377.636 418.331 378.122 418.451 378.641C418.571 379.16 418.574 379.7 418.46 380.22Z" fill="url(#paint39_linear_1222_173121)"/>
<path d="M326.9 355.97C330.91 355.97 334.16 352.72 334.16 348.71C334.16 344.7 330.91 341.45 326.9 341.45C322.891 341.45 319.64 344.7 319.64 348.71C319.64 352.72 322.891 355.97 326.9 355.97Z" fill="white"/>
<path d="M284.66 559.85C284.66 559.85 275.18 557.76 271.55 559.06C267.92 560.36 266.99 563.06 266.73 565.95C266.47 568.84 269.52 572.95 281.3 577.31C293.368 581.613 305.659 585.261 318.12 588.24C321.98 589.02 328.52 590.18 334.12 589.86C335.659 589.748 337.123 589.151 338.3 588.153C339.477 587.156 340.307 585.81 340.67 584.31C340.956 583.158 341.344 582.033 341.83 580.95C342.83 578.95 342.45 576.59 343.03 574.95C343.61 573.31 345.03 561.95 341.83 560.31C338.63 558.67 333.47 568.38 326.39 567.58C319.31 566.78 318.52 557.92 318.52 557.92C318.52 557.92 321.9 554.83 320.08 552.66C318.26 550.49 320.35 548.77 318.91 547.91C317.47 547.05 312.39 550.08 312.39 550.08C312.39 550.08 296.04 556.8 289.63 559.51C288.33 560 284.66 559.85 284.66 559.85Z" fill="#191337"/>
<path d="M271 568.29C292 580.29 316.42 580.54 316.42 580.54C323.25 582.13 330.07 586.67 338.83 581.46L339.6 581.04" stroke="white" stroke-miterlimit="10" stroke-linecap="round"/>
<path d="M403.26 536.84C403.26 536.84 415.39 540.49 417.76 544.44C420.13 548.39 428.23 536.34 424.66 529.53C421.09 522.72 425.96 523.83 429.31 526.6C432.66 529.37 435.37 527.36 437.71 529.35C440.05 531.34 444.86 535.75 441.35 544.03C437.84 552.31 430 555.87 426.86 562.09C423.72 568.31 424.86 580.95 420.07 585.68C415.28 590.41 406.18 596.46 395.86 591.41C385.54 586.36 394.76 572.55 397.16 569.11C399.56 565.67 400.03 553.91 400.16 549.11C400.29 544.31 399.49 538.26 403.26 536.84Z" fill="#191337"/>
<path d="M429 528.1C429 528.1 435.79 530.16 433.44 538.46C431.09 546.76 422.51 553.11 421.63 561.88C420.75 570.65 420.83 578.44 412.34 584.8C403.85 591.16 400.14 590.27 400.14 590.27" stroke="white" stroke-width="0.76" stroke-miterlimit="10"/>
<path d="M487.15 361.77L483.57 331.12C483.57 331.12 479.02 333.37 478.63 337.71C478.24 342.05 477.26 359.57 477.26 359.57L487.15 361.77Z" fill="url(#paint40_linear_1222_173121)"/>
<path d="M512.29 339.2C512.2 347.77 514.07 366.48 510.4 374.79C505.62 385.6 501.09 385.05 483.19 382.04C465.29 379.03 437.12 369.21 427.9 369.21C418.68 369.21 412.9 375.88 412.9 375.88H384.14C383.88 374.4 383.99 366.78 405.84 358.66C409.5 357.11 420.05 355.83 429.19 355.17C454.29 353.36 487.19 361.77 487.19 361.77C487.19 361.77 485.07 346.41 484.36 339.67C491.08 342.68 506.05 340.14 512.29 339.2Z" fill="url(#paint41_linear_1222_173121)"/>
<path d="M459.74 359.59C459.74 359.59 468.88 358.84 468.88 366.5C468.88 374.16 459.74 374.24 459.74 374.24" stroke="#D6D9E8" stroke-width="5.49" stroke-miterlimit="10"/>
<path d="M460.81 384.27H438.07L434.88 351.92C434.85 351.498 434.91 351.075 435.055 350.678C435.2 350.281 435.427 349.919 435.721 349.616C436.016 349.313 436.371 349.076 436.764 348.92C437.157 348.764 437.578 348.692 438 348.71H459.8C460.215 348.692 460.63 348.76 461.017 348.91C461.404 349.06 461.756 349.289 462.051 349.582C462.345 349.876 462.575 350.227 462.726 350.614C462.878 351.001 462.947 351.415 462.93 351.83L460.81 384.27Z" fill="url(#paint42_linear_1222_173121)"/>
<path d="M563.24 583.18H554.6C552.01 583.18 549.91 581.77 549.91 580.02V398.54H567.91V580C567.93 581.76 565.83 583.18 563.24 583.18Z" fill="url(#paint43_linear_1222_173121)"/>
<path d="M255.61 583.18H244.36C242.82 583.18 241.57 582.28 241.57 581.18V398.54H258.4V581.17C258.4 582.28 257.15 583.18 255.61 583.18Z" fill="url(#paint44_linear_1222_173121)"/>
<path d="M241.85 384.31H567.45C568.822 384.31 570.181 384.58 571.449 385.105C572.717 385.631 573.869 386.4 574.839 387.371C575.81 388.341 576.579 389.493 577.104 390.761C577.63 392.029 577.9 393.388 577.9 394.76V403.23H231.4V394.76C231.4 391.988 232.501 389.33 234.461 387.371C236.42 385.411 239.078 384.31 241.85 384.31Z" fill="url(#paint45_linear_1222_173121)"/>
<path d="M443.4 276.48L426 281.21L422.75 296.29L429.18 329.55C429.18 329.55 436.63 286.77 443.4 276.48Z" fill="url(#paint46_linear_1222_173121)"/>
<path d="M486.46 269.04C493.264 269.04 498.78 263.524 498.78 256.72C498.78 249.916 493.264 244.4 486.46 244.4C479.656 244.4 474.14 249.916 474.14 256.72C474.14 263.524 479.656 269.04 486.46 269.04Z" fill="url(#paint47_linear_1222_173121)"/>
<path d="M472.82 276.63C479.624 276.63 485.14 271.114 485.14 264.31C485.14 257.506 479.624 251.99 472.82 251.99C466.016 251.99 460.5 257.506 460.5 264.31C460.5 271.114 466.016 276.63 472.82 276.63Z" fill="url(#paint48_linear_1222_173121)"/>
<path d="M401.52 220.17C408.324 220.17 413.84 214.654 413.84 207.85C413.84 201.046 408.324 195.53 401.52 195.53C394.716 195.53 389.2 201.046 389.2 207.85C389.2 214.654 394.716 220.17 401.52 220.17Z" fill="#464B8B"/>
<path d="M401.52 230.51C408.324 230.51 413.84 224.994 413.84 218.19C413.84 211.386 408.324 205.87 401.52 205.87C394.716 205.87 389.2 211.386 389.2 218.19C389.2 224.994 394.716 230.51 401.52 230.51Z" fill="#464B8B"/>
<path d="M403.38 244.82C410.184 244.82 415.7 239.304 415.7 232.5C415.7 225.696 410.184 220.18 403.38 220.18C396.576 220.18 391.06 225.696 391.06 232.5C391.06 239.304 396.576 244.82 403.38 244.82Z" fill="#464B8B"/>
<path d="M409.13 256.64C415.934 256.64 421.45 251.124 421.45 244.32C421.45 237.516 415.934 232 409.13 232C402.326 232 396.81 237.516 396.81 244.32C396.81 251.124 402.326 256.64 409.13 256.64Z" fill="#464B8B"/>
<path d="M505.57 218.19C505.568 226.633 503.684 234.97 500.053 242.592C496.422 250.215 491.137 256.932 484.582 262.254C478.028 267.576 470.368 271.368 462.162 273.356C453.956 275.343 445.41 275.475 437.147 273.742C428.884 272.009 421.111 268.454 414.395 263.338C407.679 258.221 402.189 251.67 398.325 244.163C394.46 236.656 392.319 228.382 392.057 219.943C391.795 211.504 393.419 203.112 396.81 195.38C402.045 183.442 411.229 173.67 422.82 167.704C434.41 161.739 447.7 159.944 460.457 162.621C473.215 165.297 484.663 172.283 492.878 182.404C501.093 192.525 505.574 205.165 505.57 218.2V218.19Z" fill="url(#paint49_linear_1222_173121)"/>
<path d="M466.44 281.24C466.44 281.24 466.29 275.24 463.88 257.13C463.88 256.85 463.82 256.59 463.78 256.33C463.536 254.614 463.403 252.883 463.38 251.15C463.44 251.04 463.51 250.93 463.56 250.82C468.8 241.47 467.91 235.34 464.28 233.27C463.802 233 463.286 232.801 462.75 232.68C462.75 232.68 464.19 220.79 459.34 211.21C452.92 198.52 434.63 198.38 423.47 201.63C412.31 204.88 402.54 218.32 406.37 230.69C407.89 235.61 410.19 240.09 410.75 244.58C411.31 249.07 409.48 256.58 412.93 263.84C417.87 274.31 429.19 277.11 436.12 277.08C437.003 277.076 437.884 277.019 438.76 276.91L439.07 278.79L439.73 283.34L439.32 304.13C439.307 304.706 439.469 305.273 439.785 305.755C440.101 306.237 440.556 306.611 441.09 306.828C441.624 307.045 442.211 307.095 442.774 306.97C443.337 306.845 443.848 306.552 444.24 306.13C452.28 297.47 467 284.62 466.44 281.24Z" fill="url(#paint50_linear_1222_173121)"/>
<path d="M463.88 257.13C461.71 262.542 458.391 267.418 454.153 271.422C449.914 275.426 444.857 278.462 439.33 280.32L439.08 278.79L438.77 276.91C446.36 272.76 454.83 265.04 463.56 250.82C463.5 250.93 463.44 251.04 463.38 251.15C463.403 252.883 463.536 254.614 463.78 256.33C463.81 256.59 463.84 256.86 463.88 257.13Z" fill="url(#paint51_linear_1222_173121)"/>
<path d="M459.35 238.7C459.35 238.7 461.3 235.03 463.35 237.32C465.4 239.61 463.35 244.32 463.35 244.32L459.35 238.7Z" fill="url(#paint52_linear_1222_173121)"/>
<path d="M505.57 218.19C505.58 231.371 500.981 244.141 492.57 254.29C472.97 254.29 472.64 222.75 454 236.13C438.08 247.55 396.77 214.96 396.77 195.38C402.005 183.442 411.19 173.67 422.78 167.704C434.37 161.739 447.66 159.944 460.418 162.621C473.175 165.297 484.623 172.283 492.838 182.404C501.053 192.525 505.534 205.165 505.53 218.2L505.57 218.19Z" fill="#464B8B"/>
<path d="M446.33 242.72C449.034 242.403 451.609 241.384 453.798 239.765C455.987 238.146 457.715 235.983 458.81 233.49C457.109 234.065 455.494 234.869 454.01 235.88C443.21 243.63 420.89 231.36 407.54 216.39C406.323 219.158 405.69 222.147 405.68 225.17C415.38 236.57 430.85 244.35 446.33 242.72Z" fill="url(#paint53_linear_1222_173121)"/>
<path d="M411.61 199.85C418.414 199.85 423.93 194.334 423.93 187.53C423.93 180.726 418.414 175.21 411.61 175.21C404.806 175.21 399.29 180.726 399.29 187.53C399.29 194.334 404.806 199.85 411.61 199.85Z" fill="#464B8B"/>
<path d="M404.69 207.5C411.494 207.5 417.01 201.984 417.01 195.18C417.01 188.376 411.494 182.86 404.69 182.86C397.886 182.86 392.37 188.376 392.37 195.18C392.37 201.984 397.886 207.5 404.69 207.5Z" fill="#464B8B"/>
<path d="M419.02 191.14C425.824 191.14 431.34 185.624 431.34 178.82C431.34 172.016 425.824 166.5 419.02 166.5C412.216 166.5 406.7 172.016 406.7 178.82C406.7 185.624 412.216 191.14 419.02 191.14Z" fill="#464B8B"/>
<path d="M431.34 186.07C438.144 186.07 443.66 180.554 443.66 173.75C443.66 166.946 438.144 161.43 431.34 161.43C424.536 161.43 419.02 166.946 419.02 173.75C419.02 180.554 424.536 186.07 431.34 186.07Z" fill="#464B8B"/>
<path d="M447.02 182.86C453.824 182.86 459.34 177.344 459.34 170.54C459.34 163.736 453.824 158.22 447.02 158.22C440.216 158.22 434.7 163.736 434.7 170.54C434.7 177.344 440.216 182.86 447.02 182.86Z" fill="#464B8B"/>
<path d="M462.62 182.86C469.424 182.86 474.94 177.344 474.94 170.54C474.94 163.736 469.424 158.22 462.62 158.22C455.816 158.22 450.3 163.736 450.3 170.54C450.3 177.344 455.816 182.86 462.62 182.86Z" fill="#464B8B"/>
<path d="M474.14 189.28C480.944 189.28 486.46 183.764 486.46 176.96C486.46 170.156 480.944 164.64 474.14 164.64C467.336 164.64 461.82 170.156 461.82 176.96C461.82 183.764 467.336 189.28 474.14 189.28Z" fill="#464B8B"/>
<path d="M485.14 195.18C491.944 195.18 497.46 189.664 497.46 182.86C497.46 176.056 491.944 170.54 485.14 170.54C478.336 170.54 472.82 176.056 472.82 182.86C472.82 189.664 478.336 195.18 485.14 195.18Z" fill="#464B8B"/>
<path d="M494.18 209.17C500.984 209.17 506.5 203.654 506.5 196.85C506.5 190.046 500.984 184.53 494.18 184.53C487.376 184.53 481.86 190.046 481.86 196.85C481.86 203.654 487.376 209.17 494.18 209.17Z" fill="#464B8B"/>
<path d="M498.78 221.87C505.584 221.87 511.1 216.354 511.1 209.55C511.1 202.746 505.584 197.23 498.78 197.23C491.976 197.23 486.46 202.746 486.46 209.55C486.46 216.354 491.976 221.87 498.78 221.87Z" fill="#464B8B"/>
<path d="M500.67 238.46C507.474 238.46 512.99 232.944 512.99 226.14C512.99 219.336 507.474 213.82 500.67 213.82C493.866 213.82 488.35 219.336 488.35 226.14C488.35 232.944 493.866 238.46 500.67 238.46Z" fill="#464B8B"/>
<path d="M494.18 254.47C500.984 254.47 506.5 248.954 506.5 242.15C506.5 235.346 500.984 229.83 494.18 229.83C487.376 229.83 481.86 235.346 481.86 242.15C481.86 248.954 487.376 254.47 494.18 254.47Z" fill="#464B8B"/>
<path d="M477.49 276.13L467.78 277.63C467.78 277.63 449.06 303 445.89 331.25C445.831 331.979 445.831 332.711 445.89 333.44C455.76 305.54 486.42 289.04 486.42 289.04L477.49 276.13Z" fill="url(#paint54_linear_1222_173121)"/>
<path d="M477.26 275.79L465.88 274.01L466.14 279.99L477.49 276.13L477.26 275.79Z" fill="#211A49"/>
<path d="M420.15 405.24L392 416.33C388.211 417.821 384.762 420.06 381.858 422.914C378.955 425.768 376.656 429.178 375.1 432.94L326.9 543.11" stroke="white" stroke-miterlimit="10"/>
<defs>
<linearGradient id="paint0_linear_1222_173121" x1="9.34999" y1="348.17" x2="635.86" y2="348.17" gradientUnits="userSpaceOnUse">
<stop stop-color="#F0F2F5"/>
<stop offset="0.99" stop-color="#F5F7F8"/>
</linearGradient>
<linearGradient id="paint1_linear_1222_173121" x1="95.6198" y1="505.51" x2="71.0898" y2="319.33" gradientUnits="userSpaceOnUse">
<stop stop-color="#1F1844"/>
<stop offset="0.99" stop-color="#3D3C99"/>
</linearGradient>
<linearGradient id="paint2_linear_1222_173121" x1="94.38" y1="500.72" x2="72.8" y2="336.95" gradientUnits="userSpaceOnUse">
<stop stop-color="#3F3D9E"/>
<stop offset="0.99" stop-color="#423E9F"/>
</linearGradient>
<linearGradient id="paint3_linear_1222_173121" x1="106.96" y1="437.03" x2="198.01" y2="416.11" gradientUnits="userSpaceOnUse">
<stop offset="0.01" stop-color="#BBC0D9"/>
<stop offset="1" stop-color="#D6DBF8"/>
</linearGradient>
<linearGradient id="paint4_linear_1222_173121" x1="110.357" y1="453.262" x2="181.183" y2="453.498" gradientUnits="userSpaceOnUse">
<stop stop-color="#BAC6D8"/>
<stop offset="0.99" stop-color="#D6DBF8"/>
</linearGradient>
<linearGradient id="paint5_linear_1222_173121" x1="2820.33" y1="13640.6" x2="1983.06" y2="12835.9" gradientUnits="userSpaceOnUse">
<stop stop-color="#1F1844"/>
<stop offset="0.99" stop-color="#3D3C99"/>
</linearGradient>
<linearGradient id="paint6_linear_1222_173121" x1="3253.05" y1="8297.26" x2="2418.6" y2="7707.38" gradientUnits="userSpaceOnUse">
<stop stop-color="#1F1844"/>
<stop offset="0.99" stop-color="#3D3C99"/>
</linearGradient>
<linearGradient id="paint7_linear_1222_173121" x1="3130.31" y1="12399.6" x2="3954.19" y2="11641.3" gradientUnits="userSpaceOnUse">
<stop stop-color="#1F1844"/>
<stop offset="0.99" stop-color="#3D3C99"/>
</linearGradient>
<linearGradient id="paint8_linear_1222_173121" x1="2918.33" y1="8495.87" x2="3546.7" y2="7969.98" gradientUnits="userSpaceOnUse">
<stop stop-color="#1F1844"/>
<stop offset="0.99" stop-color="#3D3C99"/>
</linearGradient>
<linearGradient id="paint9_linear_1222_173121" x1="3796.96" y1="6380.28" x2="2505.98" y2="5898.66" gradientUnits="userSpaceOnUse">
<stop stop-color="#1F1844"/>
<stop offset="0.99" stop-color="#3D3C99"/>
</linearGradient>
<linearGradient id="paint10_linear_1222_173121" x1="2721.54" y1="10203" x2="3299.04" y2="9708.7" gradientUnits="userSpaceOnUse">
<stop stop-color="#1F1844"/>
<stop offset="0.99" stop-color="#3D3C99"/>
</linearGradient>
<linearGradient id="paint11_linear_1222_173121" x1="103.94" y1="380.63" x2="95.0098" y2="417.13" gradientUnits="userSpaceOnUse">
<stop offset="0.01" stop-color="#3D3C99"/>
<stop offset="1" stop-color="#1F1844"/>
</linearGradient>
<linearGradient id="paint12_linear_1222_173121" x1="75.9008" y1="432.004" x2="84.1835" y2="423.614" gradientUnits="userSpaceOnUse">
<stop stop-color="#E0E4EB"/>
<stop offset="0.99" stop-color="#F3F6FD"/>
</linearGradient>
<linearGradient id="paint13_linear_1222_173121" x1="47064.8" y1="-58427.7" x2="47189.8" y2="-58817.4" gradientUnits="userSpaceOnUse">
<stop stop-color="#E0E4EB"/>
<stop offset="0.99" stop-color="#F3F6FD"/>
</linearGradient>
<linearGradient id="paint14_linear_1222_173121" x1="-54852.2" y1="-10540.9" x2="-54615.7" y2="-10248.1" gradientUnits="userSpaceOnUse">
<stop stop-color="#E0E4EB"/>
<stop offset="0.99" stop-color="#F3F6FD"/>
</linearGradient>
<linearGradient id="paint15_linear_1222_173121" x1="1665.28" y1="7128.76" x2="1842.89" y2="6951.1" gradientUnits="userSpaceOnUse">
<stop offset="0.01" stop-color="#BBC0D9"/>
<stop offset="1" stop-color="#D6DBF8"/>
</linearGradient>
<linearGradient id="paint16_linear_1222_173121" x1="-42613.3" y1="-26754.8" x2="-42427.9" y2="-26437.4" gradientUnits="userSpaceOnUse">
<stop stop-color="#E0E4EB"/>
<stop offset="0.99" stop-color="#F3F6FD"/>
</linearGradient>
<linearGradient id="paint17_linear_1222_173121" x1="17665.4" y1="36847.7" x2="17936.2" y2="36783.3" gradientUnits="userSpaceOnUse">
<stop stop-color="#E0E4EB"/>
<stop offset="0.99" stop-color="#F3F6FD"/>
</linearGradient>
<linearGradient id="paint18_linear_1222_173121" x1="28434.9" y1="-82647.1" x2="28452.4" y2="-83083.7" gradientUnits="userSpaceOnUse">
<stop stop-color="#E0E4EB"/>
<stop offset="0.99" stop-color="#F3F6FD"/>
</linearGradient>
<linearGradient id="paint19_linear_1222_173121" x1="1815.81" y1="8492.02" x2="2021.01" y2="8281.24" gradientUnits="userSpaceOnUse">
<stop offset="0.01" stop-color="#BBC0D9"/>
<stop offset="1" stop-color="#D6DBF8"/>
</linearGradient>
<linearGradient id="paint20_linear_1222_173121" x1="-42381.2" y1="-29240.1" x2="-42248.6" y2="-28889.6" gradientUnits="userSpaceOnUse">
<stop stop-color="#E0E4EB"/>
<stop offset="0.99" stop-color="#F3F6FD"/>
</linearGradient>
<linearGradient id="paint21_linear_1222_173121" x1="105.85" y1="380.11" x2="96.9302" y2="416.61" gradientUnits="userSpaceOnUse">
<stop stop-color="#E6EAF1"/>
<stop offset="0.99" stop-color="#F3F6FD"/>
</linearGradient>
<linearGradient id="paint22_linear_1222_173121" x1="69.36" y1="540.26" x2="137.37" y2="524.63" gradientUnits="userSpaceOnUse">
<stop offset="0.11" stop-color="#8988D5"/>
<stop offset="0.56" stop-color="#9D9CE8"/>
<stop offset="1" stop-color="#A7A5EE"/>
</linearGradient>
<linearGradient id="paint23_linear_1222_173121" x1="89.3701" y1="223.35" x2="404.65" y2="223.35" gradientUnits="userSpaceOnUse">
<stop offset="0.01" stop-color="#BBBFD9"/>
<stop offset="1" stop-color="#D6DBF8"/>
</linearGradient>
<linearGradient id="paint24_linear_1222_173121" x1="10968.9" y1="58333.3" x2="11666.5" y2="58333.3" gradientUnits="userSpaceOnUse">
<stop offset="0.01" stop-color="#BBBFD9"/>
<stop offset="1" stop-color="#D6DBF8"/>
</linearGradient>
<linearGradient id="paint25_linear_1222_173121" x1="13858.1" y1="58923.7" x2="14578.8" y2="58923.7" gradientUnits="userSpaceOnUse">
<stop offset="0.01" stop-color="#BBBFD9"/>
<stop offset="1" stop-color="#D6DBF8"/>
</linearGradient>
<linearGradient id="paint26_linear_1222_173121" x1="11966.3" y1="65601.6" x2="12587.8" y2="65601.6" gradientUnits="userSpaceOnUse">
<stop offset="0.01" stop-color="#BBBFD9"/>
<stop offset="1" stop-color="#D6DBF8"/>
</linearGradient>
<linearGradient id="paint27_linear_1222_173121" x1="462.93" y1="453.37" x2="462.93" y2="288.34" gradientUnits="userSpaceOnUse">
<stop stop-color="#201F4F"/>
<stop offset="0.39" stop-color="#3D3C99"/>
<stop offset="1" stop-color="#403DA0"/>
</linearGradient>
<linearGradient id="paint28_linear_1222_173121" x1="514.76" y1="374.41" x2="529.76" y2="375.91" gradientUnits="userSpaceOnUse">
<stop offset="0.11" stop-color="#343381"/>
<stop offset="0.56" stop-color="#3D3C99"/>
<stop offset="1" stop-color="#403DA0"/>
</linearGradient>
<linearGradient id="paint29_linear_1222_173121" x1="402.95" y1="368.06" x2="394" y2="341.64" gradientUnits="userSpaceOnUse">
<stop stop-color="#753200"/>
<stop offset="0.05" stop-color="#793300"/>
<stop offset="0.38" stop-color="#8E3D00"/>
<stop offset="0.7" stop-color="#9C4200"/>
<stop offset="1" stop-color="#A04400"/>
</linearGradient>
<linearGradient id="paint30_linear_1222_173121" x1="355.62" y1="439.88" x2="429.01" y2="439.88" gradientUnits="userSpaceOnUse">
<stop stop-color="#F7D6D2"/>
<stop offset="0.95" stop-color="#F7E5E3"/>
</linearGradient>
<linearGradient id="paint31_linear_1222_173121" x1="374.85" y1="490.32" x2="421.17" y2="490.32" gradientUnits="userSpaceOnUse">
<stop offset="0.05" stop-color="#F7E5E3"/>
<stop offset="1" stop-color="#F7D6D2"/>
</linearGradient>
<linearGradient id="paint32_linear_1222_173121" x1="403.27" y1="536.85" x2="431.07" y2="536.85" gradientUnits="userSpaceOnUse">
<stop stop-color="#753200"/>
<stop offset="1" stop-color="#A04400"/>
</linearGradient>
<linearGradient id="paint33_linear_1222_173121" x1="18359" y1="35406.1" x2="21168.8" y2="35227" gradientUnits="userSpaceOnUse">
<stop stop-color="#1F1844"/>
<stop offset="0.99" stop-color="#3D3C99"/>
</linearGradient>
<linearGradient id="paint34_linear_1222_173121" x1="405.65" y1="337.95" x2="457.16" y2="330.87" gradientUnits="userSpaceOnUse">
<stop offset="0.01" stop-color="#BBBFD9"/>
<stop offset="0.29" stop-color="#CACDE2"/>
<stop offset="0.84" stop-color="#F2F3F8"/>
<stop offset="1" stop-color="white"/>
</linearGradient>
<linearGradient id="paint35_linear_1222_173121" x1="30561.3" y1="36517" x2="36615.1" y2="35946.1" gradientUnits="userSpaceOnUse">
<stop stop-color="#1F1844"/>
<stop offset="0.99" stop-color="#3D3C99"/>
</linearGradient>
<linearGradient id="paint36_linear_1222_173121" x1="9928.6" y1="17486.6" x2="10869.3" y2="17486.6" gradientUnits="userSpaceOnUse">
<stop stop-color="#753200"/>
<stop offset="1" stop-color="#A04400"/>
</linearGradient>
<linearGradient id="paint37_linear_1222_173121" x1="64324.2" y1="68527.5" x2="69419.5" y2="72042.8" gradientUnits="userSpaceOnUse">
<stop offset="0.05" stop-color="#F7E5E3"/>
<stop offset="1" stop-color="#F7D6D2"/>
</linearGradient>
<linearGradient id="paint38_linear_1222_173121" x1="26349.3" y1="26375.4" x2="40137" y2="26375.4" gradientUnits="userSpaceOnUse">
<stop offset="0.01" stop-color="#BBBFD9"/>
<stop offset="0.29" stop-color="#CACDE2"/>
<stop offset="0.84" stop-color="#F2F3F8"/>
<stop offset="1" stop-color="white"/>
</linearGradient>
<linearGradient id="paint39_linear_1222_173121" x1="370.6" y1="373.53" x2="403" y2="331.16" gradientUnits="userSpaceOnUse">
<stop stop-color="white"/>
<stop offset="0.16" stop-color="#F2F3F8"/>
<stop offset="0.71" stop-color="#CACDE2"/>
<stop offset="0.99" stop-color="#BBBFD9"/>
</linearGradient>
<linearGradient id="paint40_linear_1222_173121" x1="5197.35" y1="10949.8" x2="5295.17" y2="10949.8" gradientUnits="userSpaceOnUse">
<stop stop-color="#1F1844"/>
<stop offset="0.99" stop-color="#3D3C99"/>
</linearGradient>
<linearGradient id="paint41_linear_1222_173121" x1="58500.5" y1="14312.9" x2="58454.5" y2="16387.7" gradientUnits="userSpaceOnUse">
<stop stop-color="#753200"/>
<stop offset="1" stop-color="#A04400"/>
</linearGradient>
<linearGradient id="paint42_linear_1222_173121" x1="12637.4" y1="13382.2" x2="13425.3" y2="13382.2" gradientUnits="userSpaceOnUse">
<stop stop-color="white"/>
<stop offset="0.16" stop-color="#F2F3F8"/>
<stop offset="0.71" stop-color="#CACDE2"/>
<stop offset="0.99" stop-color="#BBBFD9"/>
</linearGradient>
<linearGradient id="paint43_linear_1222_173121" x1="10448.2" y1="91030.9" x2="10772.7" y2="91030.9" gradientUnits="userSpaceOnUse">
<stop offset="0.11" stop-color="#8988D5"/>
<stop offset="0.56" stop-color="#9D9CE8"/>
<stop offset="1" stop-color="#A7A5EE"/>
</linearGradient>
<linearGradient id="paint44_linear_1222_173121" x1="4307.19" y1="91030.9" x2="4590.44" y2="91030.9" gradientUnits="userSpaceOnUse">
<stop offset="0.11" stop-color="#8988D5"/>
<stop offset="0.56" stop-color="#9D9CE8"/>
<stop offset="1" stop-color="#A7A5EE"/>
</linearGradient>
<linearGradient id="paint45_linear_1222_173121" x1="140443" y1="7985.05" x2="140443" y2="7662.46" gradientUnits="userSpaceOnUse">
<stop offset="0.11" stop-color="#343381"/>
<stop offset="0.56" stop-color="#3D3C99"/>
<stop offset="1" stop-color="#403DA0"/>
</linearGradient>
<linearGradient id="paint46_linear_1222_173121" x1="9153.15" y1="16357.7" x2="9578.96" y2="16357.7" gradientUnits="userSpaceOnUse">
<stop stop-color="#1F1844"/>
<stop offset="0.99" stop-color="#3D3C99"/>
</linearGradient>
<linearGradient id="paint47_linear_1222_173121" x1="481.76" y1="251.49" x2="493.83" y2="264.94" gradientUnits="userSpaceOnUse">
<stop stop-color="#201F4F"/>
<stop offset="0.96" stop-color="#252557"/>
</linearGradient>
<linearGradient id="paint48_linear_1222_173121" x1="467.23" y1="254.38" x2="478.85" y2="275.02" gradientUnits="userSpaceOnUse">
<stop stop-color="#29295C"/>
<stop offset="0.96" stop-color="#252557"/>
</linearGradient>
<linearGradient id="paint49_linear_1222_173121" x1="383.78" y1="218.19" x2="497.31" y2="218.19" gradientUnits="userSpaceOnUse">
<stop stop-color="#464B8B"/>
<stop offset="0.28" stop-color="#393C76"/>
<stop offset="0.74" stop-color="#27275A"/>
<stop offset="1" stop-color="#201F4F"/>
</linearGradient>
<linearGradient id="paint50_linear_1222_173121" x1="24662.8" y1="29439.7" x2="29562" y2="28133.7" gradientUnits="userSpaceOnUse">
<stop stop-color="#753200"/>
<stop offset="1" stop-color="#A04400"/>
</linearGradient>
<linearGradient id="paint51_linear_1222_173121" x1="464.15" y1="255.93" x2="439.39" y2="280.23" gradientUnits="userSpaceOnUse">
<stop stop-color="#A04400"/>
<stop offset="1" stop-color="#753200"/>
</linearGradient>
<linearGradient id="paint52_linear_1222_173121" x1="2738.55" y1="2086.6" x2="2716.3" y2="2100.44" gradientUnits="userSpaceOnUse">
<stop stop-color="#753200"/>
<stop offset="1" stop-color="#A04400"/>
</linearGradient>
<linearGradient id="paint53_linear_1222_173121" x1="382.78" y1="250.42" x2="452.83" y2="218" gradientUnits="userSpaceOnUse">
<stop stop-color="#A04400" stop-opacity="0"/>
<stop offset="0.24" stop-color="#974000" stop-opacity="0.14"/>
<stop offset="0.7" stop-color="#803700" stop-opacity="0.52"/>
<stop offset="0.9" stop-color="#753200" stop-opacity="0.7"/>
</linearGradient>
<linearGradient id="paint54_linear_1222_173121" x1="18536" y1="17743.1" x2="20182.9" y2="17743.1" gradientUnits="userSpaceOnUse">
<stop offset="0.01" stop-color="#3D3C99"/>
<stop offset="1" stop-color="#1F1844"/>
</linearGradient>
</defs>
</svg>
