<svg width="650" height="650" viewBox="0 0 650 650" fill="none" xmlns="http://www.w3.org/2000/svg">
<path d="M611.6 319.65C556.59 207.17 399.23 42.44 194.77 42C-18.5901 41.56 -39.2301 253.17 75.7699 312C190.77 370.83 22.6199 444.15 142.82 517.81C264.48 592.37 524.49 585.37 588.49 527.37C652.49 469.37 635.37 368.24 611.6 319.65Z" fill="url(#paint0_linear_1212_172379)"/>
<path d="M93 465.83C93 465.83 120 435.77 117.14 423.92C114.28 412.07 131.03 397.68 131.36 380.42C131.73 360.87 121.29 366.1 117.67 357.74C112.31 345.35 124.24 334.38 106.21 329.64C93.9 326.4 85.21 332.72 86.37 317.49C87.53 302.26 82 283.41 72.16 276.57C58.07 266.79 29.4 266.03 39.06 285.73C49.21 306.44 40.26 340.54 37.9 349.88C12.9 448.58 93 465.83 93 465.83Z" fill="url(#paint1_linear_1212_172379)"/>
<path d="M62.9099 296.87C65.9999 322.35 97.9099 363.07 83.4799 390.28C69.0499 417.49 90.9499 459.62 90.9499 459.62" stroke="url(#paint2_linear_1212_172379)" stroke-width="0.93" stroke-miterlimit="10"/>
<path d="M174.88 408.9C157.34 415.1 176.33 437.79 157.15 448.01C137.97 458.23 113.38 463.41 112.25 458.45C112.17 458.12 111.14 454.83 110.05 450.02C109.8 448.91 109.55 447.71 109.3 446.45C109.24 446.1 109.17 445.74 109.1 445.38C108.384 441.543 107.899 437.666 107.65 433.77C107.65 433.65 107.65 433.53 107.65 433.41C107.56 431.86 107.53 430.3 107.56 428.75C107.59 427.2 107.67 425.75 107.83 424.32C108.4 418.8 109.98 413.71 113.21 410.06C114.036 409.111 114.977 408.268 116.01 407.55C129.34 398.28 134.66 402.78 134.56 389.08C134.38 365.6 141.07 362.08 148.94 364.41C156.81 366.74 162.94 367.41 164.11 358.7C165.28 349.99 158.11 311.34 176.03 311.41C207.03 311.51 191.34 351.03 188.21 357.41C180.71 372.78 196.31 375.19 200.02 386.41C203.73 397.63 192.41 402.7 174.88 408.9Z" fill="url(#paint3_linear_1212_172379)"/>
<path d="M108.82 492.19C108.82 492.19 104.11 449 137 424.75C151.88 413.81 179.54 374.75 177 332.47" stroke="url(#paint4_linear_1212_172379)" stroke-width="2.67" stroke-miterlimit="10"/>
<path d="M62.6398 372C66.7298 365.06 96.1498 393.68 90.9998 400C85.8498 406.32 58.7398 378.59 62.6398 372Z" fill="url(#paint5_linear_1212_172379)"/>
<path d="M55.2199 411C55.8099 402.92 91.3199 414.54 89.4999 422.52C87.6799 430.5 54.6599 418.71 55.2199 411Z" fill="url(#paint6_linear_1212_172379)"/>
<path d="M122.25 375.35C128.54 380.28 97.4899 407.02 91.9499 401.09C86.4099 395.16 116.26 370.65 122.25 375.35Z" fill="url(#paint7_linear_1212_172379)"/>
<path d="M119 409C124.29 415 94.2999 430 89.7999 423.23C85.2999 416.46 114 403.35 119 409Z" fill="url(#paint8_linear_1212_172379)"/>
<path d="M57.57 440.06C56.02 432.64 95.16 436.91 95.5 444.55C95.84 452.19 59.05 447.12 57.57 440.06Z" fill="url(#paint9_linear_1212_172379)"/>
<path d="M117.09 431.42C121.15 438.28 93.0899 455.42 89.8399 447.93C86.5899 440.44 113.22 424.88 117.09 431.42Z" fill="url(#paint10_linear_1212_172379)"/>
<path d="M101.62 338.61C109.52 339.19 99.3 379 91.49 377.16C83.68 375.32 94.09 338.06 101.62 338.61Z" fill="url(#paint11_linear_1212_172379)"/>
<path d="M65.61 370.09C69.7 363.15 99.12 391.77 93.97 398.09C88.82 404.41 61.71 376.7 65.61 370.09Z" fill="url(#paint12_linear_1212_172379)"/>
<path d="M57.5798 409.36C58.1698 401.28 93.6798 412.9 91.8598 420.88C90.0398 428.86 56.9998 417.05 57.5798 409.36Z" fill="url(#paint13_linear_1212_172379)"/>
<path d="M123.45 373.57C129.74 378.5 98.6898 405.24 93.1498 399.31C87.6098 393.38 117.46 368.88 123.45 373.57Z" fill="url(#paint14_linear_1212_172379)"/>
<path d="M108.47 422.79C109.02 417.37 110.53 412.37 113.64 408.79C117.39 408.04 120.54 408.19 121.92 409.79C124.85 413.05 116.89 419.17 108.47 422.79Z" fill="url(#paint15_linear_1212_172379)"/>
<path d="M120.48 407.78C125.77 413.78 95.78 428.78 91.28 422.01C86.78 415.24 115.44 402.08 120.48 407.78Z" fill="url(#paint16_linear_1212_172379)"/>
<path d="M93.5998 367.77C93.5998 367.77 94.4998 388.45 91.7598 406.5C89.0198 424.55 95.9298 455.1 107.18 464.86" stroke="url(#paint17_linear_1212_172379)" stroke-width="1.55" stroke-miterlimit="10"/>
<path d="M57.57 438.64C56.02 431.22 95.16 435.49 95.5 443.13C95.84 450.77 59.05 445.71 57.57 438.64Z" fill="url(#paint18_linear_1212_172379)"/>
<path d="M109.9 444.52C109.84 444.18 109.78 443.82 109.71 443.47C109.023 439.701 108.559 435.894 108.32 432.07C108.32 431.95 108.32 431.83 108.32 431.72C114.71 428.18 121.53 426.4 123.32 429.46C125.59 433.31 117.77 440.38 109.9 444.52Z" fill="url(#paint19_linear_1212_172379)"/>
<path d="M121.88 426.52C125.94 433.38 97.8798 450.52 94.6298 443.03C91.3798 435.54 118 420 121.88 426.52Z" fill="url(#paint20_linear_1212_172379)"/>
<path d="M103.53 338.09C111.43 338.67 101.21 378.48 93.3999 376.64C85.5899 374.8 95.9999 337.54 103.53 338.09Z" fill="url(#paint21_linear_1212_172379)"/>
<path d="M110.31 529.12H85.9999C80.6941 529.119 75.5691 527.192 71.5764 523.698C67.5837 520.203 64.9946 515.379 64.2899 510.12L58.2899 465.34C58.1946 464.627 58.2526 463.901 58.46 463.212C58.6675 462.523 59.0196 461.885 59.4928 461.343C59.966 460.801 60.5495 460.366 61.2043 460.067C61.8591 459.768 62.5701 459.612 63.2899 459.61H133C133.72 459.612 134.431 459.768 135.086 460.067C135.74 460.366 136.324 460.801 136.797 461.343C137.27 461.885 137.622 462.523 137.83 463.212C138.037 463.901 138.095 464.627 138 465.34L132 510.12C131.296 515.375 128.71 520.197 124.721 523.691C120.732 527.185 115.612 529.114 110.31 529.12Z" fill="url(#paint22_linear_1212_172379)"/>
<path d="M390.35 74.09H97.9598C91.6361 74.09 86.5098 79.2164 86.5098 85.54V279.14C86.5098 285.464 91.6361 290.59 97.9598 290.59H390.35C396.673 290.59 401.8 285.464 401.8 279.14V85.54C401.8 79.2164 396.673 74.09 390.35 74.09Z" fill="url(#paint23_linear_1212_172379)"/>
<path d="M385.99 83.38H102.32C98.5423 83.38 95.48 86.4424 95.48 90.22V274.47C95.48 278.248 98.5423 281.31 102.32 281.31H385.99C389.768 281.31 392.83 278.248 392.83 274.47V90.22C392.83 86.4424 389.768 83.38 385.99 83.38Z" fill="white"/>
<path d="M420.71 499.61C419.836 499.604 418.974 499.41 418.181 499.042C417.389 498.674 416.684 498.14 416.116 497.477C415.547 496.813 415.127 496.035 414.885 495.196C414.642 494.356 414.583 493.474 414.71 492.61L429.12 385.75L441 387.12L426.75 494.37C426.32 497.38 420.71 499.61 420.71 499.61Z" fill="url(#paint24_linear_1212_172379)"/>
<path d="M416.73 466.99L422.07 476.66L433.9 484.33L438.87 483.66L445.57 468.66L443.57 461.83L435.07 457.83L416.73 466.99Z" fill="url(#paint25_linear_1212_172379)"/>
<path d="M482.9 160.69C483.81 157.87 484.33 150.45 484.81 148.13C481.06 148.64 477.81 154.24 477.81 157.63C478.76 157.5 481.85 160 482.9 160.69Z" fill="url(#paint26_linear_1212_172379)"/>
<path d="M432.05 337.56C422.05 339.26 393.36 344.22 385.88 353.56C380.12 360.76 375.88 381.87 365.79 406.65C362.86 399.29 359.14 385.94 357.28 378.95C354.69 369.21 352.28 347.5 374.4 341.87C389 338.15 421 336.84 432.05 337.56Z" fill="#191337"/>
<path d="M414.6 336.87C414.6 336.87 390 339.36 378.82 353C370.07 363.68 362.2 396.19 362.2 396.19" stroke="#F3F6FD" stroke-miterlimit="10" stroke-linecap="round"/>
<path d="M527.26 491.76L512.47 382.87L522.47 378.87L539.2 489.67C539.89 493.61 536.86 494.33 533.87 494.87C530.88 495.41 528 495.78 527.26 491.76Z" fill="url(#paint27_linear_1212_172379)"/>
<path d="M488.65 504.81L476 380.68H488.34L500.91 503.93C501.19 507.76 498.27 507.61 495.39 508.04C492.19 508.52 489 509.14 488.65 504.81Z" fill="url(#paint28_linear_1212_172379)"/>
<path d="M534.44 366.22C531.83 385.51 503.44 388.22 470.44 389.29C469.44 389.79 432.98 389.57 416 383.85L416.59 253.23C416.59 242.23 421.3 224 437.4 223.73C464.4 223.28 514.55 219.16 534.18 225.23C538.67 241.35 541.94 259.15 534.46 305.71C530.17 332.35 535.7 357 534.44 366.22Z" fill="url(#paint29_linear_1212_172379)"/>
<path d="M527 233.33C533 251.33 532.24 261.73 524.25 290.8C510.94 339.25 532.79 364.12 486.62 388.55C514.62 386.95 532.22 382.64 534.44 366.22C535.7 356.96 530.17 332.35 534.44 305.7C539.95 271.41 550.23 243.39 536.56 226.83C532.78 222.25 525 227.25 527 233.33Z" fill="url(#paint30_linear_1212_172379)"/>
<path d="M360.9 482.06C353.09 479.17 342.65 473.06 342.65 473.06C342.65 473.06 329.65 487.06 328.2 488.43C333.01 490.33 330.59 504.23 334.57 506.43C338.55 508.63 349.08 499.11 354.15 500.27C354.61 495.81 359.53 484.48 360.9 482.06Z" fill="url(#paint31_linear_1212_172379)"/>
<path d="M437.7 459.49L416.7 469.67C414.09 467.67 412.7 462.87 410.87 460.03C407.57 454.92 404.04 455.7 398.55 447.67L384.85 424.33L413.75 380.41L432.4 431C434 435.11 433.4 446.38 433.4 446.38C434.84 449.71 441.09 458.18 437.7 459.49Z" fill="#191337"/>
<path d="M534.44 272.94C527.39 274.13 505.63 277.03 498.82 274C499.53 280.74 500.26 292.69 500.26 292.69C500.26 292.69 442.1 287.14 420.26 295.46C420.26 294.75 420.26 293.91 420.31 292.99C420.58 285.21 421.86 271.19 421.86 271.19C421.86 271.19 411.33 269.19 408.22 266.02C408.014 265.816 407.832 265.587 407.68 265.34C408.16 261.34 412.98 244.59 421.86 230.87C429.38 219.3 440 214 459.27 211.31L484.72 209.54C484.72 209.54 510.05 206.86 521.72 219.62C533.39 232.38 534.44 272.94 534.44 272.94Z" fill="url(#paint32_linear_1212_172379)"/>
<path d="M421.9 271.19C421.9 271.19 421.9 283.43 422.96 292.19C402.83 301.26 398.53 308.46 398.79 309.94L394.5 292.3L402.93 291.39L408.26 266C411.37 269.17 421.9 271.19 421.9 271.19Z" fill="url(#paint33_linear_1212_172379)"/>
<path d="M396.38 318.8H309.9L294 250.66C293.804 249.823 293.8 248.952 293.988 248.113C294.176 247.274 294.551 246.488 295.086 245.815C295.621 245.141 296.301 244.598 297.076 244.225C297.851 243.851 298.7 243.658 299.56 243.66H380.4L396.38 318.8Z" fill="url(#paint34_linear_1212_172379)"/>
<path d="M510.89 335.74C510.89 335.74 521.53 364.04 487.71 375.92C465.84 383.6 424.71 382.02 424.71 382.02L378.36 467.87C376.861 470.633 374.502 472.831 371.64 474.13L370.35 474.71C368.77 476.97 364.04 488.71 361.49 487.64L337.19 476.27C335.02 475.38 340.43 467.52 341.47 465.42C342.19 463.96 341.01 455.18 342.1 450.63C349.6 419.13 371.23 363.29 378.61 354.18C386.14 344.88 397.61 340.77 407.61 339.07C418.47 337.22 431.79 332.66 431.79 332.66L510.89 335.74Z" fill="#1F1844"/>
<path d="M421.29 334.38C421.29 334.38 417.67 333.93 412.02 333.56" stroke="#17FF44" stroke-width="1.95" stroke-miterlimit="10"/>
<path d="M470.2 222.94C467.309 223.497 464.315 223.086 461.681 221.77C459.047 220.454 456.92 218.307 455.63 215.66C455.63 215.66 455.13 214.74 454.47 210.66L454.18 208.85L453.91 207.18L453.57 205.18C452.615 205.301 451.653 205.364 450.69 205.37C443.14 205.37 430.8 202.37 425.41 190.94C421.64 182.94 423.66 174.85 423.03 169.94C422.4 165.03 419.92 161.83 418.26 156.46C416.14 149.59 417.74 140.39 420.91 137.84C435.18 126.28 464.61 131.08 464.61 131.08C464.61 131.08 474.61 133.96 473.61 154.17C474.49 153.39 473.15 157.82 474.44 157.37C477.14 156.47 479.57 156.57 481.37 157.61C485.37 159.86 486.29 166.55 480.58 176.74C480.52 176.86 480.45 176.98 480.38 177.1C480.406 178.991 480.553 180.878 480.82 182.75C480.82 183.03 480.89 183.32 480.93 183.62C481.39 187.08 481.93 191.56 482.56 195.89C483.4 202.14 484.36 207.49 484.7 209.57C485.53 214.59 480.82 221.22 470.2 222.94Z" fill="url(#paint35_linear_1212_172379)"/>
<path d="M473.63 154.14C474.63 133.93 464.63 131.05 464.63 131.05C464.63 131.05 435.2 126.25 420.93 137.81C418.69 139.61 418.8 143.48 418.7 146.81C424.24 140.98 437.11 141.31 447.1 140.26C451.88 139.76 450.43 145.14 451.79 145.2C462.09 141.88 469.79 146.25 469.87 161.41L474.37 157.35C473.26 157.5 474.48 153.39 473.63 154.14Z" fill="url(#paint36_linear_1212_172379)"/>
<path d="M577.74 517.51H569.1C566.51 517.51 564.41 516.1 564.41 514.35V332.88H582.41V514.35C582.43 516.1 580.33 517.51 577.74 517.51Z" fill="url(#paint37_linear_1212_172379)"/>
<path d="M270.11 517.51H258.86C257.32 517.51 256.07 516.61 256.07 515.51V332.88H272.9V515.5C272.9 516.61 271.65 517.51 270.11 517.51Z" fill="url(#paint38_linear_1212_172379)"/>
<path d="M507.9 328.1L423.24 318.8V290.8L517.63 298.69L507.9 328.1Z" fill="url(#paint39_linear_1212_172379)"/>
<path d="M256.35 318.64H582C583.372 318.64 584.731 318.91 585.999 319.435C587.267 319.961 588.419 320.73 589.389 321.701C590.36 322.671 591.129 323.823 591.654 325.091C592.18 326.359 592.45 327.718 592.45 329.09V337.56H245.9V329.09C245.9 326.318 247.001 323.66 248.961 321.701C250.92 319.741 253.578 318.64 256.35 318.64Z" fill="url(#paint40_linear_1212_172379)"/>
<path d="M433 314.55L432.09 318.61H396.38L377.7 247.22C377.592 246.801 377.581 246.363 377.668 245.939C377.754 245.516 377.937 245.117 378.201 244.775C378.466 244.432 378.805 244.155 379.193 243.963C379.581 243.772 380.007 243.672 380.44 243.67C381.077 243.67 381.695 243.884 382.195 244.277C382.696 244.671 383.05 245.221 383.2 245.84L394.5 292.31L398.79 309.94C398.786 309.997 398.786 310.053 398.79 310.11V310.17H429.39C429.937 310.153 430.482 310.262 430.98 310.489C431.479 310.715 431.92 311.052 432.268 311.475C432.617 311.898 432.864 312.395 432.991 312.928C433.118 313.461 433.121 314.016 433 314.55Z" fill="url(#paint41_linear_1212_172379)"/>
<path d="M341.4 290.31C345.409 290.31 348.66 287.06 348.66 283.05C348.66 279.04 345.409 275.79 341.4 275.79C337.39 275.79 334.14 279.04 334.14 283.05C334.14 287.06 337.39 290.31 341.4 290.31Z" fill="white"/>
<path d="M498.88 273.64L496.51 259.94" stroke="white" stroke-miterlimit="10" stroke-linecap="round"/>
<path d="M421.9 271.19L424.01 259.94" stroke="white" stroke-miterlimit="10" stroke-linecap="round"/>
<path d="M485.24 146.93C485.38 143.39 484.7 139.65 483.53 134.56C481.01 123.56 473.64 118.99 462.11 116.92L451.11 115.64C450.11 115.52 431.67 114.18 423.11 119.23C419.89 121.12 415.66 125.73 415.71 128.8C415.84 136.64 415.71 140.8 417.49 146.8C421.25 130.75 429.79 149.54 449.9 133.18C453.63 130.18 453.23 138.06 454.59 138.12C466.22 134.37 474.49 140.41 472.34 160.69C475.34 158.9 477.34 157.05 479.13 156.81C481.38 153.94 485.16 148.79 485.24 146.93Z" fill="#1F1844"/>
<path d="M480.95 183.59C478.583 189.49 474.964 194.806 470.342 199.171C465.72 203.535 460.206 206.845 454.18 208.87L453.91 207.2L453.57 205.2C452.615 205.321 451.653 205.384 450.69 205.39C456.59 200.31 473 185.95 480.6 176.76C480.54 176.88 480.47 177 480.4 177.12C480.426 179.011 480.573 180.898 480.84 182.77C480.88 183 480.91 183.29 480.95 183.59Z" fill="url(#paint42_linear_1212_172379)"/>
<path d="M474.35 159.78C474.71 159.37 475.83 158.36 475.83 158.36L474.97 154.62L469.69 158.14C469.191 158.473 468.796 158.939 468.548 159.485C468.301 160.031 468.211 160.636 468.29 161.23L470.06 174.52C462.74 179.01 446.06 191.91 442.9 192.43C438.9 193.1 437.56 188.1 435.4 189.26C433.24 190.42 433.56 193.43 432.06 193.43C431.28 193.43 426.17 190.23 424.49 188.08C424.49 188.08 427.09 196.56 427.65 198.08C428.94 201.53 436.47 208.51 436.47 208.51C436.851 208.89 437.314 209.177 437.824 209.351C438.333 209.524 438.876 209.578 439.41 209.51L448.86 208.37L453.61 205.42C460.23 201.61 475.55 186.61 475.61 184.56C475.94 172.57 470.75 163.85 474.35 159.78Z" fill="#1F1844"/>
<path d="M476 163.5C476 163.5 478.13 159.5 480.38 162C482.63 164.5 480.38 169.63 480.38 169.63L476 163.5Z" fill="url(#paint43_linear_1212_172379)"/>
<path d="M532.79 273.24C532.7 281.81 532.07 301.24 528.4 309.54C523.62 320.35 517.07 320.21 499.17 317.2C481.27 314.19 451.63 303.53 442.41 303.53C433.19 303.53 427.41 310.2 427.41 310.2H398.64C398.38 308.72 398.49 301.1 420.34 292.98C424 291.43 434.55 290.15 443.69 289.49C468.79 287.68 499.69 292.26 499.69 292.26C499.69 292.26 499.57 280.73 498.86 273.99C505.58 277 526.55 274.18 532.79 273.24Z" fill="url(#paint44_linear_1212_172379)"/>
<path d="M474.24 293.92C474.24 293.92 483.38 293.17 483.38 300.83C483.38 308.49 474.24 308.57 474.24 308.57" stroke="#D6D9E8" stroke-width="5.49" stroke-miterlimit="10"/>
<path d="M475.31 318.61H452.57L449.38 286.26C449.35 285.838 449.409 285.415 449.554 285.018C449.699 284.621 449.926 284.259 450.221 283.956C450.516 283.653 450.871 283.416 451.264 283.26C451.656 283.103 452.078 283.032 452.5 283.05H474.3C474.715 283.032 475.129 283.1 475.517 283.25C475.904 283.4 476.256 283.629 476.55 283.922C476.845 284.216 477.075 284.567 477.226 284.954C477.377 285.341 477.447 285.755 477.43 286.17L475.31 318.61Z" fill="url(#paint45_linear_1212_172379)"/>
<path d="M452.15 218.79C452.15 218.79 453.57 227.79 469.07 226.96C484.57 226.13 489.28 213.96 489.28 213.96" stroke="white" stroke-miterlimit="10" stroke-linecap="round"/>
<path d="M299.16 494.18C299.16 494.18 289.68 492.09 286.05 493.39C282.42 494.69 281.49 497.39 281.23 500.28C280.97 503.17 284.02 507.28 295.8 511.64C307.868 515.943 320.159 519.591 332.62 522.57C336.48 523.35 343.02 524.51 348.62 524.19C350.159 524.078 351.623 523.481 352.8 522.483C353.977 521.486 354.807 520.14 355.17 518.64C355.456 517.488 355.844 516.363 356.33 515.28C357.33 513.28 356.95 510.92 357.53 509.28C358.11 507.64 359.53 496.28 356.33 494.64C353.13 493 347.97 502.71 340.89 501.91C333.81 501.11 333.02 492.25 333.02 492.25C333.02 492.25 336.4 489.16 334.58 486.99C332.76 484.82 334.85 483.1 333.41 482.24C331.97 481.38 326.89 484.41 326.89 484.41C326.89 484.41 310.54 491.13 304.13 493.84C302.83 494.34 299.16 494.18 299.16 494.18Z" fill="#191337"/>
<path d="M285.49 502.62C306.49 514.62 330.91 514.87 330.91 514.87C337.74 516.46 344.56 521 353.32 515.79L354.09 515.37" stroke="white" stroke-miterlimit="10" stroke-linecap="round"/>
<path d="M417.76 471.17C417.76 471.17 429.89 474.82 432.26 478.77C434.63 482.72 442.73 470.67 439.16 463.86C435.59 457.05 440.46 458.16 443.81 460.93C447.16 463.7 449.87 461.69 452.21 463.68C454.55 465.67 459.36 470.08 455.85 478.36C452.34 486.64 444.48 490.2 441.36 496.41C438.24 502.62 439.36 515.27 434.57 520C429.78 524.73 420.68 530.78 410.36 525.73C400.04 520.68 409.26 506.87 411.66 503.43C414.06 499.99 414.53 488.23 414.66 483.43C414.79 478.63 414 472.6 417.76 471.17Z" fill="#191337"/>
<path d="M443.52 462.43C443.52 462.43 450.31 464.49 447.96 472.79C445.61 481.09 437 487.44 436.15 496.21C435.3 504.98 435.35 512.77 426.86 519.13C418.37 525.49 414.66 524.6 414.66 524.6" stroke="white" stroke-width="0.76" stroke-miterlimit="10"/>
<defs>
<linearGradient id="paint0_linear_1212_172379" x1="6.48989" y1="307.16" x2="633" y2="307.16" gradientUnits="userSpaceOnUse">
<stop stop-color="#F0F2F5"/>
<stop offset="0.99" stop-color="#F5F7F8"/>
</linearGradient>
<linearGradient id="paint1_linear_1212_172379" x1="92.77" y1="464.5" x2="68.23" y2="278.32" gradientUnits="userSpaceOnUse">
<stop stop-color="#1F1844"/>
<stop offset="0.99" stop-color="#3D3C99"/>
</linearGradient>
<linearGradient id="paint2_linear_1212_172379" x1="91.5299" y1="459.71" x2="69.9499" y2="295.94" gradientUnits="userSpaceOnUse">
<stop stop-color="#3F3D9E"/>
<stop offset="0.99" stop-color="#423E9F"/>
</linearGradient>
<linearGradient id="paint3_linear_1212_172379" x1="104.11" y1="396.02" x2="195.15" y2="375.1" gradientUnits="userSpaceOnUse">
<stop offset="0.01" stop-color="#BBC0D9"/>
<stop offset="1" stop-color="#D6DBF8"/>
</linearGradient>
<linearGradient id="paint4_linear_1212_172379" x1="107.51" y1="412.25" x2="178.326" y2="412.488" gradientUnits="userSpaceOnUse">
<stop stop-color="#BAC6D8"/>
<stop offset="0.99" stop-color="#D6DBF8"/>
</linearGradient>
<linearGradient id="paint5_linear_1212_172379" x1="2733.55" y1="12368.6" x2="1896.29" y2="11564.2" gradientUnits="userSpaceOnUse">
<stop stop-color="#1F1844"/>
<stop offset="0.99" stop-color="#3D3C99"/>
</linearGradient>
<linearGradient id="paint6_linear_1212_172379" x1="3152.29" y1="7561.94" x2="2317.88" y2="6972.05" gradientUnits="userSpaceOnUse">
<stop stop-color="#1F1844"/>
<stop offset="0.99" stop-color="#3D3C99"/>
</linearGradient>
<linearGradient id="paint7_linear_1212_172379" x1="3036.75" y1="11243.6" x2="3860.3" y2="10485.3" gradientUnits="userSpaceOnUse">
<stop stop-color="#1F1844"/>
<stop offset="0.99" stop-color="#3D3C99"/>
</linearGradient>
<linearGradient id="paint8_linear_1212_172379" x1="2829.07" y1="7736.05" x2="3456.91" y2="7210.09" gradientUnits="userSpaceOnUse">
<stop stop-color="#1F1844"/>
<stop offset="0.99" stop-color="#3D3C99"/>
</linearGradient>
<linearGradient id="paint9_linear_1212_172379" x1="3685.87" y1="5840.66" x2="2394.48" y2="5359.02" gradientUnits="userSpaceOnUse">
<stop stop-color="#1F1844"/>
<stop offset="0.99" stop-color="#3D3C99"/>
</linearGradient>
<linearGradient id="paint10_linear_1212_172379" x1="2639.11" y1="9344.41" x2="3216.32" y2="8850.21" gradientUnits="userSpaceOnUse">
<stop stop-color="#1F1844"/>
<stop offset="0.99" stop-color="#3D3C99"/>
</linearGradient>
<linearGradient id="paint11_linear_1212_172379" x1="101.08" y1="339.62" x2="92.1499" y2="376.12" gradientUnits="userSpaceOnUse">
<stop offset="0.01" stop-color="#3D3C99"/>
<stop offset="1" stop-color="#1F1844"/>
</linearGradient>
<linearGradient id="paint12_linear_1212_172379" x1="73.1745" y1="390.932" x2="81.4573" y2="382.542" gradientUnits="userSpaceOnUse">
<stop stop-color="#E0E4EB"/>
<stop offset="0.99" stop-color="#F3F6FD"/>
</linearGradient>
<linearGradient id="paint13_linear_1212_172379" x1="25385.8" y1="-138849" x2="25510.6" y2="-139238" gradientUnits="userSpaceOnUse">
<stop stop-color="#E0E4EB"/>
<stop offset="0.99" stop-color="#F3F6FD"/>
</linearGradient>
<linearGradient id="paint14_linear_1212_172379" x1="-80716" y1="52530.5" x2="-80479.4" y2="52823.4" gradientUnits="userSpaceOnUse">
<stop stop-color="#E0E4EB"/>
<stop offset="0.99" stop-color="#F3F6FD"/>
</linearGradient>
<linearGradient id="paint15_linear_1212_172379" x1="1621.78" y1="6495.76" x2="1799.53" y2="6318.15" gradientUnits="userSpaceOnUse">
<stop offset="0.01" stop-color="#BBC0D9"/>
<stop offset="1" stop-color="#D6DBF8"/>
</linearGradient>
<linearGradient id="paint16_linear_1212_172379" x1="-57502.7" y1="30995" x2="-57317.2" y2="31312.4" gradientUnits="userSpaceOnUse">
<stop stop-color="#E0E4EB"/>
<stop offset="0.99" stop-color="#F3F6FD"/>
</linearGradient>
<linearGradient id="paint17_linear_1212_172379" x1="2772.65" y1="-31436.9" x2="3043.51" y2="-31501.4" gradientUnits="userSpaceOnUse">
<stop stop-color="#E0E4EB"/>
<stop offset="0.99" stop-color="#F3F6FD"/>
</linearGradient>
<linearGradient id="paint18_linear_1212_172379" x1="-266.599" y1="-182713" x2="-249.136" y2="-183150" gradientUnits="userSpaceOnUse">
<stop stop-color="#E0E4EB"/>
<stop offset="0.99" stop-color="#F3F6FD"/>
</linearGradient>
<linearGradient id="paint19_linear_1212_172379" x1="1768.91" y1="7769.14" x2="1974.11" y2="7558.36" gradientUnits="userSpaceOnUse">
<stop offset="0.01" stop-color="#BBC0D9"/>
<stop offset="1" stop-color="#D6DBF8"/>
</linearGradient>
<linearGradient id="paint20_linear_1212_172379" x1="-73481.5" y1="37145.9" x2="-73348.9" y2="37496.4" gradientUnits="userSpaceOnUse">
<stop stop-color="#E0E4EB"/>
<stop offset="0.99" stop-color="#F3F6FD"/>
</linearGradient>
<linearGradient id="paint21_linear_1212_172379" x1="103" y1="339.1" x2="94.0699" y2="375.6" gradientUnits="userSpaceOnUse">
<stop stop-color="#E6EAF1"/>
<stop offset="0.99" stop-color="#F3F6FD"/>
</linearGradient>
<linearGradient id="paint22_linear_1212_172379" x1="66.4999" y1="499.25" x2="134.52" y2="483.62" gradientUnits="userSpaceOnUse">
<stop offset="0.11" stop-color="#8988D5"/>
<stop offset="0.56" stop-color="#9D9CE8"/>
<stop offset="1" stop-color="#A7A5EE"/>
</linearGradient>
<linearGradient id="paint23_linear_1212_172379" x1="86.5098" y1="182.34" x2="401.8" y2="182.34" gradientUnits="userSpaceOnUse">
<stop offset="0.01" stop-color="#BBBFD9"/>
<stop offset="1" stop-color="#D6DBF8"/>
</linearGradient>
<linearGradient id="paint24_linear_1212_172379" x1="11341.5" y1="50790.4" x2="12037.6" y2="50790.4" gradientUnits="userSpaceOnUse">
<stop offset="0.01" stop-color="#BBBFD9"/>
<stop offset="1" stop-color="#D6DBF8"/>
</linearGradient>
<linearGradient id="paint25_linear_1212_172379" x1="440.34" y1="482.46" x2="428.01" y2="460.79" gradientUnits="userSpaceOnUse">
<stop stop-color="#753200"/>
<stop offset="1" stop-color="#A04400"/>
</linearGradient>
<linearGradient id="paint26_linear_1212_172379" x1="3822.27" y1="2087.52" x2="3871.48" y2="2087.52" gradientUnits="userSpaceOnUse">
<stop stop-color="#753200"/>
<stop offset="1" stop-color="#A04400"/>
</linearGradient>
<linearGradient id="paint27_linear_1212_172379" x1="14261.7" y1="51218.8" x2="14982.3" y2="51218.8" gradientUnits="userSpaceOnUse">
<stop offset="0.01" stop-color="#BBBFD9"/>
<stop offset="1" stop-color="#D6DBF8"/>
</linearGradient>
<linearGradient id="paint28_linear_1212_172379" x1="12342.3" y1="57146.4" x2="12963.8" y2="57146.4" gradientUnits="userSpaceOnUse">
<stop offset="0.01" stop-color="#BBBFD9"/>
<stop offset="1" stop-color="#D6DBF8"/>
</linearGradient>
<linearGradient id="paint29_linear_1212_172379" x1="477.43" y1="387.7" x2="477.43" y2="222.67" gradientUnits="userSpaceOnUse">
<stop stop-color="#201F4F"/>
<stop offset="0.39" stop-color="#3D3C99"/>
<stop offset="1" stop-color="#403DA0"/>
</linearGradient>
<linearGradient id="paint30_linear_1212_172379" x1="529.26" y1="308.74" x2="544.26" y2="310.24" gradientUnits="userSpaceOnUse">
<stop offset="0.11" stop-color="#343381"/>
<stop offset="0.56" stop-color="#3D3C99"/>
<stop offset="1" stop-color="#403DA0"/>
</linearGradient>
<linearGradient id="paint31_linear_1212_172379" x1="11287.3" y1="17511.4" x2="11821" y2="16545.8" gradientUnits="userSpaceOnUse">
<stop stop-color="#753200"/>
<stop offset="1" stop-color="#A04400"/>
</linearGradient>
<linearGradient id="paint32_linear_1212_172379" x1="489.05" y1="252.39" x2="633.41" y2="252.39" gradientUnits="userSpaceOnUse">
<stop stop-color="#A7A5EE"/>
<stop offset="0.44" stop-color="#9D9CE8"/>
<stop offset="0.89" stop-color="#8988D5"/>
</linearGradient>
<linearGradient id="paint33_linear_1212_172379" x1="414.66" y1="303.33" x2="405.72" y2="276.91" gradientUnits="userSpaceOnUse">
<stop stop-color="#753200"/>
<stop offset="0.05" stop-color="#793300"/>
<stop offset="0.38" stop-color="#8E3D00"/>
<stop offset="0.7" stop-color="#9C4200"/>
<stop offset="1" stop-color="#A04400"/>
</linearGradient>
<linearGradient id="paint34_linear_1212_172379" x1="268.89" y1="281.23" x2="403.43" y2="281.23" gradientUnits="userSpaceOnUse">
<stop offset="0.01" stop-color="#BBBFD9"/>
<stop offset="0.29" stop-color="#CACDE2"/>
<stop offset="0.84" stop-color="#F2F3F8"/>
<stop offset="1" stop-color="white"/>
</linearGradient>
<linearGradient id="paint35_linear_1212_172379" x1="27460.4" y1="19379.2" x2="31471.7" y2="17716.9" gradientUnits="userSpaceOnUse">
<stop stop-color="#753200"/>
<stop offset="1" stop-color="#A04400"/>
</linearGradient>
<linearGradient id="paint36_linear_1212_172379" x1="438.28" y1="154.12" x2="469.13" y2="134.18" gradientUnits="userSpaceOnUse">
<stop stop-color="#A04400" stop-opacity="0"/>
<stop offset="0.18" stop-color="#9A4100" stop-opacity="0.14"/>
<stop offset="0.52" stop-color="#8A3B00" stop-opacity="0.52"/>
<stop offset="0.9" stop-color="#753200"/>
</linearGradient>
<linearGradient id="paint37_linear_1212_172379" x1="10723.7" y1="78835.7" x2="11048.2" y2="78835.7" gradientUnits="userSpaceOnUse">
<stop offset="0.11" stop-color="#8988D5"/>
<stop offset="0.56" stop-color="#9D9CE8"/>
<stop offset="1" stop-color="#A7A5EE"/>
</linearGradient>
<linearGradient id="paint38_linear_1212_172379" x1="4565.72" y1="78835.7" x2="4848.97" y2="78835.7" gradientUnits="userSpaceOnUse">
<stop offset="0.11" stop-color="#8988D5"/>
<stop offset="0.56" stop-color="#9D9CE8"/>
<stop offset="1" stop-color="#A7A5EE"/>
</linearGradient>
<linearGradient id="paint39_linear_1212_172379" x1="40372.9" y1="11833.3" x2="49283.3" y2="11833.3" gradientUnits="userSpaceOnUse">
<stop stop-color="#A7A5EE"/>
<stop offset="0.44" stop-color="#9D9CE8"/>
<stop offset="0.89" stop-color="#8988D5"/>
</linearGradient>
<linearGradient id="paint40_linear_1212_172379" x1="145502" y1="6676.89" x2="145502" y2="6354.3" gradientUnits="userSpaceOnUse">
<stop offset="0.11" stop-color="#343381"/>
<stop offset="0.56" stop-color="#3D3C99"/>
<stop offset="1" stop-color="#403DA0"/>
</linearGradient>
<linearGradient id="paint41_linear_1212_172379" x1="385.1" y1="307.86" x2="417.5" y2="265.5" gradientUnits="userSpaceOnUse">
<stop stop-color="white"/>
<stop offset="0.16" stop-color="#F2F3F8"/>
<stop offset="0.71" stop-color="#CACDE2"/>
<stop offset="0.99" stop-color="#BBBFD9"/>
</linearGradient>
<linearGradient id="paint42_linear_1212_172379" x1="481.06" y1="182.1" x2="454.06" y2="208.6" gradientUnits="userSpaceOnUse">
<stop stop-color="#A04400"/>
<stop offset="1" stop-color="#753200"/>
</linearGradient>
<linearGradient id="paint43_linear_1212_172379" x1="3064.75" y1="1542.57" x2="3038.25" y2="1559.1" gradientUnits="userSpaceOnUse">
<stop stop-color="#753200"/>
<stop offset="1" stop-color="#A04400"/>
</linearGradient>
<linearGradient id="paint44_linear_1212_172379" x1="63309.6" y1="11503.3" x2="63262" y2="13685.1" gradientUnits="userSpaceOnUse">
<stop stop-color="#753200"/>
<stop offset="1" stop-color="#A04400"/>
</linearGradient>
<linearGradient id="paint45_linear_1212_172379" x1="13058.7" y1="10981.4" x2="13846.6" y2="10981.4" gradientUnits="userSpaceOnUse">
<stop stop-color="white"/>
<stop offset="0.16" stop-color="#F2F3F8"/>
<stop offset="0.71" stop-color="#CACDE2"/>
<stop offset="0.99" stop-color="#BBBFD9"/>
</linearGradient>
</defs>
</svg>
