<svg width="500" height="500" viewBox="0 0 500 500" fill="none" xmlns="http://www.w3.org/2000/svg">
<path d="M497.743 361.278V498.979H210.4V389.029H235.327V420.9H241.743V365.19H273.443V418.069H277.632V351.01H305.177V369.406H319.314V392.322H323.584V377.912H348.637V420.888H355.953V385.955H378.86V359.418H394.438V344.303H412.452V411.338H418.511V383.355H448.191V423.403H452.299V390.718H482.395V361.278H497.743Z" fill="#EBEBEB"/>
<path d="M217.659 393.039H213.447V399.138H217.659V393.039Z" fill="white"/>
<path d="M224.974 393.039H220.762V399.138H224.974V393.039Z" fill="white"/>
<path d="M232.278 393.039H228.066V399.138H232.278V393.039Z" fill="white"/>
<path d="M217.659 402.2H213.447V408.3H217.659V402.2Z" fill="white"/>
<path d="M224.974 402.2H220.762V408.3H224.974V402.2Z" fill="white"/>
<path d="M232.278 402.2H228.066V408.3H232.278V402.2Z" fill="white"/>
<path d="M217.659 411.374H213.447V417.474H217.659V411.374Z" fill="white"/>
<path d="M224.974 411.374H220.762V417.474H224.974V411.374Z" fill="white"/>
<path d="M232.278 411.374H228.066V417.474H232.278V411.374Z" fill="white"/>
<path d="M217.659 420.548H213.447V426.647H217.659V420.548Z" fill="white"/>
<path d="M224.974 420.548H220.762V426.647H224.974V420.548Z" fill="white"/>
<path d="M232.278 420.548H228.066V426.647H232.278V420.548Z" fill="white"/>
<path d="M363.685 390.305H359.473V395.384H363.685V390.305Z" fill="white"/>
<path d="M370.999 390.305H366.787V395.384H370.999V390.305Z" fill="white"/>
<path d="M378.304 390.305H374.092V395.384H378.304V390.305Z" fill="white"/>
<path d="M363.685 397.96H359.473V403.039H363.685V397.96Z" fill="white"/>
<path d="M370.999 397.96H366.787V403.039H370.999V397.96Z" fill="white"/>
<path d="M378.304 397.96H374.092V403.039H378.304V397.96Z" fill="white"/>
<path d="M363.685 405.603H359.473V410.681H363.685V405.603Z" fill="white"/>
<path d="M370.999 405.603H366.787V410.681H370.999V405.603Z" fill="white"/>
<path d="M378.304 405.603H374.092V410.681H378.304V405.603Z" fill="white"/>
<path d="M363.685 413.257H359.473V418.336H363.685V413.257Z" fill="white"/>
<path d="M370.999 413.257H366.787V418.336H370.999V413.257Z" fill="white"/>
<path d="M378.304 413.257H374.092V418.336H378.304V413.257Z" fill="white"/>
<path d="M363.685 421.095H359.473V426.173H363.685V421.095Z" fill="white"/>
<path d="M370.999 421.095H366.787V426.173H370.999V421.095Z" fill="white"/>
<path d="M378.304 421.095H374.092V426.173H378.304V421.095Z" fill="white"/>
<path d="M363.685 428.932H359.473V434.01H363.685V428.932Z" fill="white"/>
<path d="M370.999 428.932H366.787V434.01H370.999V428.932Z" fill="white"/>
<path d="M378.304 428.932H374.092V434.01H378.304V428.932Z" fill="white"/>
<path d="M363.685 436.781H359.473V441.86H363.685V436.781Z" fill="white"/>
<path d="M370.999 436.781H366.787V441.86H370.999V436.781Z" fill="white"/>
<path d="M378.304 436.781H374.092V441.86H378.304V436.781Z" fill="white"/>
<path d="M363.685 444.618H359.473V449.697H363.685V444.618Z" fill="white"/>
<path d="M370.999 444.618H366.787V449.697H370.999V444.618Z" fill="white"/>
<path d="M378.304 444.618H374.092V449.697H378.304V444.618Z" fill="white"/>
<path d="M269.622 369.102H245.342V372.918H269.622V369.102Z" fill="white"/>
<path d="M269.622 376.49H245.342V380.305H269.622V376.49Z" fill="white"/>
<path d="M269.622 383.89H245.342V387.705H269.622V383.89Z" fill="white"/>
<path d="M269.622 391.289H245.342V395.105H269.622V391.289Z" fill="white"/>
<path d="M269.622 398.677H245.342V402.492H269.622V398.677Z" fill="white"/>
<path d="M269.622 406.077H245.342V409.892H269.622V406.077Z" fill="white"/>
<path d="M269.622 413.476H245.342V417.291H269.622V413.476Z" fill="white"/>
<path d="M269.622 420.864H245.342V424.679H269.622V420.864Z" fill="white"/>
<path d="M444.418 386.915H422.1V390.73H444.418V386.915Z" fill="white"/>
<path d="M444.418 394.315H422.1V398.13H444.418V394.315Z" fill="white"/>
<path d="M444.418 401.702H422.1V405.518H444.418V401.702Z" fill="white"/>
<path d="M444.418 409.102H422.1V412.917H444.418V409.102Z" fill="white"/>
<path d="M444.418 416.502H422.1V420.317H444.418V416.502Z" fill="white"/>
<path d="M444.418 423.889H422.1V427.704H444.418V423.889Z" fill="white"/>
<path d="M444.418 431.289H422.1V435.104H444.418V431.289Z" fill="white"/>
<path d="M444.418 438.688H422.1V442.504H444.418V438.688Z" fill="white"/>
<path d="M444.418 445.711H422.1V449.527H444.418V445.711Z" fill="white"/>
<path d="M444.418 452.734H422.1V456.55H444.418V452.734Z" fill="white"/>
<path d="M444.418 459.77H422.1V463.585H444.418V459.77Z" fill="white"/>
<path d="M444.418 466.793H422.1V470.608H444.418V466.793Z" fill="white"/>
<path d="M444.418 473.816H422.1V477.631H444.418V473.816Z" fill="white"/>
<path d="M480.51 395.846H456.934V399.661H480.51V395.846Z" fill="white"/>
<path d="M480.51 403.245H456.934V407.061H480.51V403.245Z" fill="white"/>
<path d="M480.51 410.645H456.934V414.46H480.51V410.645Z" fill="white"/>
<path d="M480.51 418.033H456.934V421.848H480.51V418.033Z" fill="white"/>
<path d="M480.51 425.432H456.934V429.248H480.51V425.432Z" fill="white"/>
<path d="M480.51 432.82H456.934V436.635H480.51V432.82Z" fill="white"/>
<path d="M480.51 440.219H456.934V444.035H480.51V440.219Z" fill="white"/>
<path d="M480.51 447.619H456.934V451.434H480.51V447.619Z" fill="white"/>
<path d="M480.51 454.241H456.934V458.056H480.51V454.241Z" fill="white"/>
<path d="M480.51 460.851H456.934V464.666H480.51V460.851Z" fill="white"/>
<path d="M480.51 467.473H456.934V471.288H480.51V467.473Z" fill="white"/>
<path d="M338.409 381.362H330.908V385.044H338.409V381.362Z" fill="white"/>
<path d="M338.409 388.507H330.908V392.188H338.409V388.507Z" fill="white"/>
<path d="M338.409 395.651H330.908V399.333H338.409V395.651Z" fill="white"/>
<path d="M338.409 402.784H330.908V406.465H338.409V402.784Z" fill="white"/>
<path d="M338.409 409.928H330.908V413.61H338.409V409.928Z" fill="white"/>
<path d="M338.409 417.073H330.908V420.754H338.409V417.073Z" fill="white"/>
<path d="M338.409 424.217H330.908V427.899H338.409V424.217Z" fill="white"/>
<path d="M338.409 431.362H330.908V435.043H338.409V431.362Z" fill="white"/>
<path d="M348.614 381.362H341.113V385.044H348.614V381.362Z" fill="white"/>
<path d="M348.614 388.507H341.113V392.188H348.614V388.507Z" fill="white"/>
<path d="M348.614 395.651H341.113V399.333H348.614V395.651Z" fill="white"/>
<path d="M348.614 402.784H341.113V406.465H348.614V402.784Z" fill="white"/>
<path d="M348.614 409.928H341.113V413.61H348.614V409.928Z" fill="white"/>
<path d="M348.614 417.073H341.113V420.754H348.614V417.073Z" fill="white"/>
<path d="M348.614 424.217H341.113V427.899H348.614V424.217Z" fill="white"/>
<path d="M348.614 431.362H341.113V435.043H348.614V431.362Z" fill="white"/>
<path d="M289.619 354.874H281.807V360.682H289.619V354.874Z" fill="white"/>
<path d="M301.279 354.874H293.467V360.682H301.279V354.874Z" fill="white"/>
<path d="M289.619 363.392H281.807V369.2H289.619V363.392Z" fill="white"/>
<path d="M301.279 363.392H293.467V369.2H301.279V363.392Z" fill="white"/>
<path d="M289.619 371.921H281.807V377.729H289.619V371.921Z" fill="white"/>
<path d="M301.279 371.921H293.467V377.729H301.279V371.921Z" fill="white"/>
<path d="M289.619 380.451H281.807V386.259H289.619V380.451Z" fill="white"/>
<path d="M301.279 380.451H293.467V386.259H301.279V380.451Z" fill="white"/>
<path d="M289.619 388.981H281.807V394.789H289.619V388.981Z" fill="white"/>
<path d="M301.279 388.981H293.467V394.789H301.279V388.981Z" fill="white"/>
<path d="M289.619 397.498H281.807V403.306H289.619V397.498Z" fill="white"/>
<path d="M301.279 397.498H293.467V403.306H301.279V397.498Z" fill="white"/>
<path d="M289.619 406.028H281.807V411.836H289.619V406.028Z" fill="white"/>
<path d="M301.279 406.028H293.467V411.836H301.279V406.028Z" fill="white"/>
<path d="M289.619 414.557H281.807V420.365H289.619V414.557Z" fill="white"/>
<path d="M301.279 414.557H293.467V420.365H301.279V414.557Z" fill="white"/>
<path d="M315.703 371.921H307.891V377.729H315.703V371.921Z" fill="white"/>
<path d="M315.703 380.451H307.891V386.259H315.703V380.451Z" fill="white"/>
<path d="M315.703 388.981H307.891V394.789H315.703V388.981Z" fill="white"/>
<path d="M315.703 397.498H307.891V403.306H315.703V397.498Z" fill="white"/>
<path d="M315.703 406.028H307.891V411.836H315.703V406.028Z" fill="white"/>
<path d="M315.703 414.557H307.891V420.365H315.703V414.557Z" fill="white"/>
<path d="M289.619 422.978H281.807V428.786H289.619V422.978Z" fill="white"/>
<path d="M301.279 422.978H293.467V428.786H301.279V422.978Z" fill="white"/>
<path d="M315.703 422.978H307.891V428.786H315.703V422.978Z" fill="white"/>
<path d="M289.619 431.41H281.807V437.218H289.619V431.41Z" fill="white"/>
<path d="M301.279 431.41H293.467V437.218H301.279V431.41Z" fill="white"/>
<path d="M315.703 431.41H307.891V437.218H315.703V431.41Z" fill="white"/>
<path d="M289.619 439.831H281.807V445.639H289.619V439.831Z" fill="white"/>
<path d="M301.279 439.831H293.467V445.639H301.279V439.831Z" fill="white"/>
<path d="M315.703 439.831H307.891V445.639H315.703V439.831Z" fill="white"/>
<path d="M289.619 448.263H281.807V454.071H289.619V448.263Z" fill="white"/>
<path d="M301.279 448.263H293.467V454.071H301.279V448.263Z" fill="white"/>
<path d="M315.703 448.263H307.891V454.071H315.703V448.263Z" fill="white"/>
<path d="M289.619 456.683H281.807V462.491H289.619V456.683Z" fill="white"/>
<path d="M301.279 456.683H293.467V462.491H301.279V456.683Z" fill="white"/>
<path d="M315.703 456.683H307.891V462.491H315.703V456.683Z" fill="white"/>
<path d="M386.253 363.149H382.041V368.228H386.253V363.149Z" fill="white"/>
<path d="M393.568 363.149H389.355V368.228H393.568V363.149Z" fill="white"/>
<path d="M386.253 370.804H382.041V375.882H386.253V370.804Z" fill="white"/>
<path d="M393.568 370.804H389.355V375.882H393.568V370.804Z" fill="white"/>
<path d="M386.253 378.458H382.041V383.537H386.253V378.458Z" fill="white"/>
<path d="M393.568 378.458H389.355V383.537H393.568V378.458Z" fill="white"/>
<path d="M386.253 386.101H382.041V391.18H386.253V386.101Z" fill="white"/>
<path d="M393.568 386.101H389.355V391.18H393.568V386.101Z" fill="white"/>
<path d="M386.253 393.938H382.041V399.017H386.253V393.938Z" fill="white"/>
<path d="M393.568 393.938H389.355V399.017H393.568V393.938Z" fill="white"/>
<path d="M386.253 401.787H382.041V406.866H386.253V401.787Z" fill="white"/>
<path d="M393.568 401.787H389.355V406.866H393.568V401.787Z" fill="white"/>
<path d="M386.253 409.624H382.041V414.703H386.253V409.624Z" fill="white"/>
<path d="M393.568 409.624H389.355V414.703H393.568V409.624Z" fill="white"/>
<path d="M386.253 417.462H382.041V422.54H386.253V417.462Z" fill="white"/>
<path d="M393.568 417.462H389.355V422.54H393.568V417.462Z" fill="white"/>
<path d="M386.253 425.384H382.041V430.463H386.253V425.384Z" fill="white"/>
<path d="M393.568 425.384H389.355V430.463H393.568V425.384Z" fill="white"/>
<path d="M386.253 433.306H382.041V438.385H386.253V433.306Z" fill="white"/>
<path d="M393.568 433.306H389.355V438.385H393.568V433.306Z" fill="white"/>
<path d="M386.253 441.228H382.041V446.307H386.253V441.228Z" fill="white"/>
<path d="M393.568 441.228H389.355V446.307H393.568V441.228Z" fill="white"/>
<path d="M386.253 449.15H382.041V454.229H386.253V449.15Z" fill="white"/>
<path d="M393.568 449.15H389.355V454.229H393.568V449.15Z" fill="white"/>
<path d="M489.251 363.975H485.039V369.965H489.251V363.975Z" fill="white"/>
<path d="M496.556 363.975H492.344V369.965H496.556V363.975Z" fill="white"/>
<path d="M489.251 372.991H485.039V378.981H489.251V372.991Z" fill="white"/>
<path d="M496.556 372.991H492.344V378.981H496.556V372.991Z" fill="white"/>
<path d="M489.251 382.006H485.039V387.997H489.251V382.006Z" fill="white"/>
<path d="M496.556 382.006H492.344V387.997H496.556V382.006Z" fill="white"/>
<path d="M489.251 391.022H485.039V397.012H489.251V391.022Z" fill="white"/>
<path d="M496.556 391.022H492.344V397.012H496.556V391.022Z" fill="white"/>
<path d="M489.251 400.256H485.039V406.247H489.251V400.256Z" fill="white"/>
<path d="M496.556 400.256H492.344V406.247H496.556V400.256Z" fill="white"/>
<path d="M489.251 409.491H485.039V415.481H489.251V409.491Z" fill="white"/>
<path d="M496.556 409.491H492.344V415.481H496.556V409.491Z" fill="white"/>
<path d="M489.251 418.725H485.039V424.715H489.251V418.725Z" fill="white"/>
<path d="M496.556 418.725H492.344V424.715H496.556V418.725Z" fill="white"/>
<path d="M489.251 427.96H485.039V433.95H489.251V427.96Z" fill="white"/>
<path d="M496.556 427.96H492.344V433.95H496.556V427.96Z" fill="white"/>
<path d="M489.251 437.291H485.039V443.281H489.251V437.291Z" fill="white"/>
<path d="M496.556 437.291H492.344V443.281H496.556V437.291Z" fill="white"/>
<path d="M489.251 446.623H485.039V452.613H489.251V446.623Z" fill="white"/>
<path d="M496.556 446.623H492.344V452.613H496.556V446.623Z" fill="white"/>
<path d="M489.251 455.966H485.039V461.957H489.251V455.966Z" fill="white"/>
<path d="M496.556 455.966H492.344V461.957H496.556V455.966Z" fill="white"/>
<path d="M489.251 465.298H485.039V471.288H489.251V465.298Z" fill="white"/>
<path d="M496.556 465.298H492.344V471.288H496.556V465.298Z" fill="white"/>
<path d="M401.898 363.149H397.686V368.228H401.898V363.149Z" fill="white"/>
<path d="M409.193 363.149H404.98V368.228H409.193V363.149Z" fill="white"/>
<path d="M401.898 355.312H397.686V360.39H401.898V355.312Z" fill="white"/>
<path d="M409.193 355.312H404.98V360.39H409.193V355.312Z" fill="white"/>
<path d="M401.898 347.462H397.686V352.541H401.898V347.462Z" fill="white"/>
<path d="M409.193 347.462H404.98V352.541H409.193V347.462Z" fill="white"/>
<path d="M401.898 370.804H397.686V375.882H401.898V370.804Z" fill="white"/>
<path d="M409.193 370.804H404.98V375.882H409.193V370.804Z" fill="white"/>
<path d="M401.898 378.458H397.686V383.537H401.898V378.458Z" fill="white"/>
<path d="M409.193 378.458H404.98V383.537H409.193V378.458Z" fill="white"/>
<path d="M401.898 386.101H397.686V391.18H401.898V386.101Z" fill="white"/>
<path d="M409.193 386.101H404.98V391.18H409.193V386.101Z" fill="white"/>
<path d="M401.898 393.938H397.686V399.017H401.898V393.938Z" fill="white"/>
<path d="M409.193 393.938H404.98V399.017H409.193V393.938Z" fill="white"/>
<path d="M401.898 401.787H397.686V406.866H401.898V401.787Z" fill="white"/>
<path d="M409.193 401.787H404.98V406.866H409.193V401.787Z" fill="white"/>
<path d="M401.898 409.624H397.686V414.703H401.898V409.624Z" fill="white"/>
<path d="M409.193 409.624H404.98V414.703H409.193V409.624Z" fill="white"/>
<path d="M401.898 417.462H397.686V422.54H401.898V417.462Z" fill="white"/>
<path d="M409.193 417.462H404.98V422.54H409.193V417.462Z" fill="white"/>
<path d="M401.898 425.384H397.686V430.463H401.898V425.384Z" fill="white"/>
<path d="M409.193 425.384H404.98V430.463H409.193V425.384Z" fill="white"/>
<path d="M401.898 433.306H397.686V438.385H401.898V433.306Z" fill="white"/>
<path d="M409.193 433.306H404.98V438.385H409.193V433.306Z" fill="white"/>
<path d="M401.898 441.228H397.686V446.307H401.898V441.228Z" fill="white"/>
<path d="M409.193 441.228H404.98V446.307H409.193V441.228Z" fill="white"/>
<path d="M401.898 449.15H397.686V454.229H401.898V449.15Z" fill="white"/>
<path d="M409.193 449.15H404.98V454.229H409.193V449.15Z" fill="white"/>
<path d="M210.399 498.979H2.26562V375.664H27.1918V407.534H33.6079V389.491H65.308V418.069H69.5085V351.01H97.0542V369.406H111.179V392.322H115.46V377.912H140.502V420.888H147.83V385.955H170.736V359.418H186.304L204.317 359.503V411.338H210.387L210.399 498.979Z" fill="#EBEBEB"/>
<path d="M9.53432 379.673H5.32227V385.773H9.53432V379.673Z" fill="white"/>
<path d="M16.839 379.673H12.627V385.773H16.839V379.673Z" fill="white"/>
<path d="M24.1535 379.673H19.9414V385.773H24.1535V379.673Z" fill="white"/>
<path d="M9.53432 388.835H5.32227V394.934H9.53432V388.835Z" fill="white"/>
<path d="M16.839 388.835H12.627V394.934H16.839V388.835Z" fill="white"/>
<path d="M24.1535 388.835H19.9414V394.934H24.1535V388.835Z" fill="white"/>
<path d="M9.53432 398.009H5.32227V404.108H9.53432V398.009Z" fill="white"/>
<path d="M16.839 398.009H12.627V404.108H16.839V398.009Z" fill="white"/>
<path d="M24.1535 398.009H19.9414V404.108H24.1535V398.009Z" fill="white"/>
<path d="M9.53432 407.182H5.32227V413.282H9.53432V407.182Z" fill="white"/>
<path d="M16.839 407.182H12.627V413.282H16.839V407.182Z" fill="white"/>
<path d="M24.1535 407.182H19.9414V413.282H24.1535V407.182Z" fill="white"/>
<path d="M155.56 390.305H151.348V395.384H155.56V390.305Z" fill="white"/>
<path d="M162.864 390.305H158.652V395.384H162.864V390.305Z" fill="white"/>
<path d="M170.179 390.305H165.967V395.384H170.179V390.305Z" fill="white"/>
<path d="M155.56 397.96H151.348V403.039H155.56V397.96Z" fill="white"/>
<path d="M162.864 397.96H158.652V403.039H162.864V397.96Z" fill="white"/>
<path d="M170.179 397.96H165.967V403.039H170.179V397.96Z" fill="white"/>
<path d="M155.56 405.603H151.348V410.681H155.56V405.603Z" fill="white"/>
<path d="M162.864 405.603H158.652V410.681H162.864V405.603Z" fill="white"/>
<path d="M170.179 405.603H165.967V410.681H170.179V405.603Z" fill="white"/>
<path d="M155.56 413.257H151.348V418.336H155.56V413.257Z" fill="white"/>
<path d="M162.864 413.257H158.652V418.336H162.864V413.257Z" fill="white"/>
<path d="M170.179 413.257H165.967V418.336H170.179V413.257Z" fill="white"/>
<path d="M155.56 421.095H151.348V426.173H155.56V421.095Z" fill="white"/>
<path d="M162.864 421.095H158.652V426.173H162.864V421.095Z" fill="white"/>
<path d="M170.179 421.095H165.967V426.173H170.179V421.095Z" fill="white"/>
<path d="M155.56 428.932H151.348V434.01H155.56V428.932Z" fill="white"/>
<path d="M162.864 428.932H158.652V434.01H162.864V428.932Z" fill="white"/>
<path d="M170.179 428.932H165.967V434.01H170.179V428.932Z" fill="white"/>
<path d="M155.56 436.781H151.348V441.86H155.56V436.781Z" fill="white"/>
<path d="M162.864 436.781H158.652V441.86H162.864V436.781Z" fill="white"/>
<path d="M170.179 436.781H165.967V441.86H170.179V436.781Z" fill="white"/>
<path d="M155.56 444.618H151.348V449.697H155.56V444.618Z" fill="white"/>
<path d="M162.864 444.618H158.652V449.697H162.864V444.618Z" fill="white"/>
<path d="M170.179 444.618H165.967V449.697H170.179V444.618Z" fill="white"/>
<path d="M61.4869 393.403H37.207V397.219H61.4869V393.403Z" fill="white"/>
<path d="M61.4869 400.791H37.207V404.606H61.4869V400.791Z" fill="white"/>
<path d="M61.4869 408.191H37.207V412.006H61.4869V408.191Z" fill="white"/>
<path d="M61.4869 415.59H37.207V419.406H61.4869V415.59Z" fill="white"/>
<path d="M61.4869 422.978H37.207V426.793H61.4869V422.978Z" fill="white"/>
<path d="M61.4869 430.378H37.207V434.193H61.4869V430.378Z" fill="white"/>
<path d="M61.4869 437.777H37.207V441.592H61.4869V437.777Z" fill="white"/>
<path d="M61.4869 445.165H37.207V448.98H61.4869V445.165Z" fill="white"/>
<path d="M130.284 381.362H122.783V385.044H130.284V381.362Z" fill="white"/>
<path d="M130.284 388.507H122.783V392.188H130.284V388.507Z" fill="white"/>
<path d="M130.284 395.651H122.783V399.333H130.284V395.651Z" fill="white"/>
<path d="M130.284 402.784H122.783V406.465H130.284V402.784Z" fill="white"/>
<path d="M130.284 409.928H122.783V413.61H130.284V409.928Z" fill="white"/>
<path d="M130.284 417.073H122.783V420.754H130.284V417.073Z" fill="white"/>
<path d="M130.284 424.217H122.783V427.899H130.284V424.217Z" fill="white"/>
<path d="M130.284 431.362H122.783V435.043H130.284V431.362Z" fill="white"/>
<path d="M140.489 381.362H132.988V385.044H140.489V381.362Z" fill="white"/>
<path d="M140.489 388.507H132.988V392.188H140.489V388.507Z" fill="white"/>
<path d="M140.489 395.651H132.988V399.333H140.489V395.651Z" fill="white"/>
<path d="M140.489 402.784H132.988V406.465H140.489V402.784Z" fill="white"/>
<path d="M140.489 409.928H132.988V413.61H140.489V409.928Z" fill="white"/>
<path d="M140.489 417.073H132.988V420.754H140.489V417.073Z" fill="white"/>
<path d="M140.489 424.217H132.988V427.899H140.489V424.217Z" fill="white"/>
<path d="M140.489 431.362H132.988V435.043H140.489V431.362Z" fill="white"/>
<path d="M81.4941 354.874H73.6816V360.682H81.4941V354.874Z" fill="white"/>
<path d="M93.1445 354.874H85.332V360.682H93.1445V354.874Z" fill="white"/>
<path d="M81.4941 363.392H73.6816V369.2H81.4941V363.392Z" fill="white"/>
<path d="M93.1445 363.392H85.332V369.2H93.1445V363.392Z" fill="white"/>
<path d="M81.4941 371.921H73.6816V377.729H81.4941V371.921Z" fill="white"/>
<path d="M93.1445 371.921H85.332V377.729H93.1445V371.921Z" fill="white"/>
<path d="M81.4941 380.451H73.6816V386.259H81.4941V380.451Z" fill="white"/>
<path d="M93.1445 380.451H85.332V386.259H93.1445V380.451Z" fill="white"/>
<path d="M81.4941 388.981H73.6816V394.789H81.4941V388.981Z" fill="white"/>
<path d="M93.1445 388.981H85.332V394.789H93.1445V388.981Z" fill="white"/>
<path d="M81.4941 397.498H73.6816V403.306H81.4941V397.498Z" fill="white"/>
<path d="M93.1445 397.498H85.332V403.306H93.1445V397.498Z" fill="white"/>
<path d="M81.4941 406.028H73.6816V411.836H81.4941V406.028Z" fill="white"/>
<path d="M93.1445 406.028H85.332V411.836H93.1445V406.028Z" fill="white"/>
<path d="M81.4941 414.557H73.6816V420.365H81.4941V414.557Z" fill="white"/>
<path d="M93.1445 414.557H85.332V420.365H93.1445V414.557Z" fill="white"/>
<path d="M107.578 371.921H99.7656V377.729H107.578V371.921Z" fill="white"/>
<path d="M107.578 380.451H99.7656V386.259H107.578V380.451Z" fill="white"/>
<path d="M107.578 388.981H99.7656V394.789H107.578V388.981Z" fill="white"/>
<path d="M107.578 397.498H99.7656V403.306H107.578V397.498Z" fill="white"/>
<path d="M107.578 406.028H99.7656V411.836H107.578V406.028Z" fill="white"/>
<path d="M107.578 414.557H99.7656V420.365H107.578V414.557Z" fill="white"/>
<path d="M81.4941 422.978H73.6816V428.786H81.4941V422.978Z" fill="white"/>
<path d="M93.1445 422.978H85.332V428.786H93.1445V422.978Z" fill="white"/>
<path d="M107.578 422.978H99.7656V428.786H107.578V422.978Z" fill="white"/>
<path d="M81.4941 431.41H73.6816V437.218H81.4941V431.41Z" fill="white"/>
<path d="M93.1445 431.41H85.332V437.218H93.1445V431.41Z" fill="white"/>
<path d="M107.578 431.41H99.7656V437.218H107.578V431.41Z" fill="white"/>
<path d="M81.4941 439.831H73.6816V445.639H81.4941V439.831Z" fill="white"/>
<path d="M93.1445 439.831H85.332V445.639H93.1445V439.831Z" fill="white"/>
<path d="M107.578 439.831H99.7656V445.639H107.578V439.831Z" fill="white"/>
<path d="M81.4941 448.263H73.6816V454.071H81.4941V448.263Z" fill="white"/>
<path d="M93.1445 448.263H85.332V454.071H93.1445V448.263Z" fill="white"/>
<path d="M107.578 448.263H99.7656V454.071H107.578V448.263Z" fill="white"/>
<path d="M81.4941 456.683H73.6816V462.491H81.4941V456.683Z" fill="white"/>
<path d="M93.1445 456.683H85.332V462.491H93.1445V456.683Z" fill="white"/>
<path d="M107.578 456.683H99.7656V462.491H107.578V456.683Z" fill="white"/>
<path d="M178.118 363.149H173.906V368.228H178.118V363.149Z" fill="white"/>
<path d="M185.433 363.149H181.221V368.228H185.433V363.149Z" fill="white"/>
<path d="M178.118 370.804H173.906V375.882H178.118V370.804Z" fill="white"/>
<path d="M185.433 370.804H181.221V375.882H185.433V370.804Z" fill="white"/>
<path d="M178.118 378.458H173.906V383.537H178.118V378.458Z" fill="white"/>
<path d="M185.433 378.458H181.221V383.537H185.433V378.458Z" fill="white"/>
<path d="M178.118 386.101H173.906V391.18H178.118V386.101Z" fill="white"/>
<path d="M185.433 386.101H181.221V391.18H185.433V386.101Z" fill="white"/>
<path d="M178.118 393.938H173.906V399.017H178.118V393.938Z" fill="white"/>
<path d="M185.433 393.938H181.221V399.017H185.433V393.938Z" fill="white"/>
<path d="M178.118 401.787H173.906V406.866H178.118V401.787Z" fill="white"/>
<path d="M185.433 401.787H181.221V406.866H185.433V401.787Z" fill="white"/>
<path d="M178.118 409.624H173.906V414.703H178.118V409.624Z" fill="white"/>
<path d="M185.433 409.624H181.221V414.703H185.433V409.624Z" fill="white"/>
<path d="M178.118 417.462H173.906V422.54H178.118V417.462Z" fill="white"/>
<path d="M185.433 417.462H181.221V422.54H185.433V417.462Z" fill="white"/>
<path d="M178.118 425.384H173.906V430.463H178.118V425.384Z" fill="white"/>
<path d="M185.433 425.384H181.221V430.463H185.433V425.384Z" fill="white"/>
<path d="M178.118 433.306H173.906V438.385H178.118V433.306Z" fill="white"/>
<path d="M185.433 433.306H181.221V438.385H185.433V433.306Z" fill="white"/>
<path d="M178.118 441.228H173.906V446.307H178.118V441.228Z" fill="white"/>
<path d="M185.433 441.228H181.221V446.307H185.433V441.228Z" fill="white"/>
<path d="M178.118 449.15H173.906V454.229H178.118V449.15Z" fill="white"/>
<path d="M185.433 449.15H181.221V454.229H185.433V449.15Z" fill="white"/>
<path d="M193.753 363.149H189.541V368.228H193.753V363.149Z" fill="white"/>
<path d="M201.077 363.149H196.865V368.228H201.077V363.149Z" fill="white"/>
<path d="M193.753 370.804H189.541V375.882H193.753V370.804Z" fill="white"/>
<path d="M201.077 370.804H196.865V375.882H201.077V370.804Z" fill="white"/>
<path d="M193.753 378.458H189.541V383.537H193.753V378.458Z" fill="white"/>
<path d="M201.077 378.458H196.865V383.537H201.077V378.458Z" fill="white"/>
<path d="M193.753 386.101H189.541V391.18H193.753V386.101Z" fill="white"/>
<path d="M201.077 386.101H196.865V391.18H201.077V386.101Z" fill="white"/>
<path d="M193.753 393.938H189.541V399.017H193.753V393.938Z" fill="white"/>
<path d="M201.077 393.938H196.865V399.017H201.077V393.938Z" fill="white"/>
<path d="M193.753 401.787H189.541V406.866H193.753V401.787Z" fill="white"/>
<path d="M201.077 401.787H196.865V406.866H201.077V401.787Z" fill="white"/>
<path d="M193.753 409.624H189.541V414.703H193.753V409.624Z" fill="white"/>
<path d="M201.077 409.624H196.865V414.703H201.077V409.624Z" fill="white"/>
<path d="M193.753 417.462H189.541V422.54H193.753V417.462Z" fill="white"/>
<path d="M201.077 417.462H196.865V422.54H201.077V417.462Z" fill="white"/>
<path d="M193.753 425.384H189.541V430.463H193.753V425.384Z" fill="white"/>
<path d="M201.077 425.384H196.865V430.463H201.077V425.384Z" fill="white"/>
<path d="M193.753 433.306H189.541V438.385H193.753V433.306Z" fill="white"/>
<path d="M201.077 433.306H196.865V438.385H201.077V433.306Z" fill="white"/>
<path d="M193.753 441.228H189.541V446.307H193.753V441.228Z" fill="white"/>
<path d="M201.077 441.228H196.865V446.307H201.077V441.228Z" fill="white"/>
<path d="M193.753 449.15H189.541V454.229H193.753V449.15Z" fill="white"/>
<path d="M201.077 449.15H196.865V454.229H201.077V449.15Z" fill="white"/>
<path d="M17.4609 106.627H141.711C141.711 106.627 129.398 71.1961 110.438 71.1961C91.4777 71.1961 85.5347 95.643 85.5347 95.643C85.5347 95.643 72.737 82.3625 62.2357 82.3625C51.7344 82.3625 42.6179 99.92 42.6179 99.92C42.6179 99.92 27.743 90.479 17.4609 106.627Z" fill="#EBEBEB"/>
<path opacity="0.5" d="M311.221 239.432H369.289C369.289 239.432 356.307 219.627 346.094 219.627C335.881 219.627 332.846 232.834 332.846 232.834C332.846 232.834 325.634 226.674 318.999 227.768C312.363 228.861 311.221 239.432 311.221 239.432Z" fill="#EBEBEB"/>
<path d="M369.443 178.194H482.534C482.534 178.194 467.048 141.742 450.476 139.518C433.905 137.295 425.989 166.565 425.989 166.565C425.989 166.565 415.303 156.201 406.89 156.201C398.478 156.201 392.004 169.858 392.004 169.858C392.004 169.858 375.202 160.502 369.443 178.194Z" fill="#EBEBEB"/>
<path opacity="0.5" d="M315.039 104.732H391.445C391.445 104.732 378.324 78.3528 364.084 78.0004C349.843 77.6481 342.319 97.9273 342.319 97.9273C342.319 97.9273 320.209 79.2155 315.039 104.732Z" fill="#EBEBEB"/>
<path opacity="0.5" d="M120.293 264.134H196.699C196.699 264.134 183.566 237.755 169.326 237.403C155.086 237.051 147.608 257.366 147.608 257.366C147.608 257.366 125.463 238.618 120.293 264.134Z" fill="#EBEBEB"/>
<path d="M104.416 100.151C104.487 100.706 104.4 101.27 104.165 101.773C103.931 102.275 103.561 102.694 103.101 102.975C102.641 103.256 102.113 103.387 101.582 103.352C101.051 103.317 100.542 103.116 100.12 102.777C99.6971 102.437 99.3797 101.973 99.2074 101.443C99.0352 100.914 99.016 100.342 99.1523 99.801C99.2885 99.2598 99.5741 98.7733 99.9729 98.403C100.372 98.0327 100.866 97.7953 101.393 97.7206C102.099 97.6238 102.814 97.8249 103.38 98.2801C103.946 98.7352 104.319 99.4076 104.416 100.151Z" fill="#FFC727"/>
<path d="M101.721 149.506C101.792 150.061 101.704 150.626 101.47 151.128C101.236 151.631 100.866 152.049 100.406 152.33C99.946 152.611 99.4173 152.743 98.8866 152.707C98.356 152.672 97.8471 152.472 97.4245 152.132C97.0018 151.792 96.6843 151.328 96.5121 150.799C96.3399 150.269 96.3207 149.698 96.457 149.156C96.5932 148.615 96.8788 148.129 97.2776 147.758C97.6764 147.388 98.1706 147.151 98.6975 147.076C99.0476 147.026 99.4036 147.05 99.745 147.145C100.086 147.241 100.407 147.406 100.687 147.631C100.968 147.857 101.204 148.139 101.381 148.461C101.559 148.782 101.674 149.138 101.721 149.506Z" fill="#263238"/>
<path d="M197.208 209.603C197.231 209.787 197.219 209.974 197.173 210.154C197.127 210.333 197.048 210.501 196.94 210.648C196.832 210.796 196.698 210.919 196.545 211.012C196.392 211.104 196.223 211.164 196.048 211.188C195.873 211.212 195.696 211.2 195.525 211.151C195.355 211.103 195.195 211.02 195.055 210.906C194.915 210.793 194.798 210.651 194.71 210.49C194.622 210.329 194.565 210.151 194.542 209.967C194.497 209.595 194.593 209.219 194.81 208.921C195.028 208.624 195.349 208.43 195.702 208.382C196.056 208.333 196.413 208.435 196.695 208.664C196.978 208.893 197.162 209.23 197.208 209.603Z" fill="#FFC727"/>
<path d="M149.943 49.398C149.98 49.677 149.937 49.9612 149.82 50.2145C149.703 50.4677 149.517 50.6787 149.286 50.8206C149.055 50.9626 148.789 51.029 148.522 51.0116C148.255 50.9941 147.999 50.8936 147.787 50.7227C147.574 50.5518 147.415 50.3183 147.328 50.0517C147.242 49.7851 147.233 49.4976 147.302 49.2255C147.371 48.9534 147.515 48.709 147.716 48.5234C147.917 48.3378 148.166 48.2193 148.432 48.183C148.785 48.1346 149.142 48.2351 149.425 48.4627C149.708 48.6903 149.895 49.0265 149.943 49.398Z" fill="#FFC727"/>
<path d="M316.935 17.6003C316.981 17.9725 316.884 18.3486 316.667 18.646C316.449 18.9433 316.128 19.1376 315.775 19.1859C315.421 19.2342 315.064 19.1327 314.782 18.9037C314.499 18.6747 314.315 18.337 314.269 17.9648C314.223 17.5926 314.319 17.2164 314.537 16.919C314.754 16.6217 315.075 16.4275 315.429 16.3791C315.782 16.3308 316.14 16.4323 316.422 16.6613C316.704 16.8903 316.889 17.2281 316.935 17.6003Z" fill="#263238"/>
<path d="M165.177 125.29C165.218 125.483 165.221 125.682 165.185 125.876C165.149 126.07 165.076 126.253 164.969 126.415C164.862 126.577 164.724 126.714 164.564 126.817C164.404 126.92 164.225 126.987 164.04 127.013C163.854 127.039 163.665 127.025 163.485 126.97C163.305 126.915 163.137 126.821 162.994 126.694C162.85 126.568 162.733 126.411 162.65 126.234C162.567 126.057 162.519 125.864 162.511 125.667C162.496 125.312 162.608 124.964 162.824 124.692C163.041 124.42 163.346 124.242 163.68 124.195C164.015 124.148 164.354 124.234 164.631 124.437C164.907 124.639 165.102 124.944 165.177 125.29Z" fill="#263238"/>
<path d="M288.976 252.518C288.998 252.702 288.986 252.89 288.941 253.069C288.895 253.249 288.815 253.417 288.708 253.564C288.6 253.711 288.466 253.835 288.313 253.927C288.16 254.02 287.991 254.08 287.816 254.104C287.641 254.128 287.463 254.115 287.293 254.067C287.122 254.018 286.963 253.935 286.823 253.822C286.683 253.708 286.566 253.567 286.478 253.406C286.39 253.245 286.333 253.067 286.31 252.883C286.264 252.51 286.361 252.134 286.578 251.837C286.796 251.54 287.116 251.345 287.47 251.297C287.823 251.249 288.181 251.35 288.463 251.579C288.745 251.808 288.93 252.146 288.976 252.518Z" fill="#455A64"/>
<path d="M98.3105 260.696C98.3448 260.972 98.3005 261.253 98.1831 261.503C98.0658 261.753 97.8807 261.96 97.6512 262.1C97.4218 262.239 97.1583 262.303 96.8941 262.284C96.6299 262.266 96.3769 262.165 96.167 261.995C95.9571 261.825 95.7998 261.594 95.715 261.33C95.6302 261.065 95.6217 260.781 95.6906 260.512C95.7595 260.242 95.9026 260.001 96.1019 259.817C96.3012 259.634 96.5478 259.516 96.8103 259.48C96.9848 259.455 97.1624 259.466 97.3327 259.514C97.503 259.561 97.6626 259.644 97.8023 259.757C97.9419 259.87 98.0588 260.011 98.146 260.172C98.2333 260.334 98.2892 260.511 98.3105 260.696Z" fill="#FFC727"/>
<path d="M57.805 207.294C57.8755 207.849 57.7883 208.413 57.5542 208.916C57.3201 209.419 56.9497 209.837 56.4898 210.118C56.03 210.399 55.5013 210.53 54.9706 210.495C54.44 210.46 53.9311 210.26 53.5085 209.92C53.0858 209.58 52.7683 209.116 52.5961 208.587C52.4239 208.057 52.4047 207.485 52.541 206.944C52.6772 206.403 52.9628 205.917 53.3616 205.546C53.7604 205.176 54.2546 204.938 54.7815 204.864C55.1318 204.813 55.4883 204.835 55.8304 204.93C56.1724 205.024 56.4933 205.189 56.7744 205.415C57.0555 205.641 57.2913 205.924 57.4682 206.246C57.6451 206.568 57.7596 206.925 57.805 207.294Z" fill="#FFC727"/>
<path d="M221.653 17.4058C221.723 17.9607 221.636 18.5252 221.402 19.0279C221.168 19.5305 220.797 19.9489 220.337 20.2299C219.878 20.511 219.349 20.6422 218.818 20.6069C218.288 20.5717 217.779 20.3715 217.356 20.0318C216.933 19.6921 216.616 19.2281 216.444 18.6984C216.272 18.1687 216.252 17.5972 216.389 17.056C216.525 16.5148 216.81 16.0284 217.209 15.6581C217.608 15.2878 218.102 15.0503 218.629 14.9757C218.979 14.9261 219.335 14.9496 219.677 15.0449C220.018 15.1402 220.338 15.3055 220.619 15.5311C220.9 15.7568 221.136 16.0385 221.313 16.3602C221.49 16.6818 221.606 17.0371 221.653 17.4058Z" fill="#FFC727"/>
<path d="M404.225 302.129L408.033 300.78C408.033 300.78 405.436 299.371 405.436 294.984C405.436 290.598 409.002 288.909 407.467 284.911L403.221 286.127C403.698 287.17 403.962 288.307 403.996 289.464C404.03 290.622 403.833 291.774 403.417 292.846C402.332 295.349 401.27 298.35 404.225 302.129Z" fill="#FFC727"/>
<path d="M88.1235 292.639L84.3615 291.145C84.3615 291.145 85.5155 293.964 82.9075 297.366C80.2995 300.768 76.4798 299.796 75.3027 303.854L79.3071 305.737C79.5625 304.61 80.0395 303.552 80.7074 302.631C81.3752 301.711 82.2191 300.947 83.1845 300.391C85.5732 299.14 88.1466 297.524 88.1235 292.639Z" fill="#FFC727"/>
<path d="M192.652 105.947L188.844 104.489C188.844 104.489 189.998 107.307 187.39 110.71C184.782 114.112 180.962 113.14 179.785 117.186L183.789 119.081C184.043 117.953 184.519 116.894 185.187 115.973C185.855 115.052 186.7 114.289 187.667 113.735C190.102 112.508 192.675 110.868 192.652 105.947Z" fill="#455A64"/>
<path d="M329.627 232.64L325.865 231.158C325.865 231.158 327.019 233.977 324.411 237.379C321.803 240.781 317.984 239.809 316.807 243.855L320.811 245.75C321.064 244.623 321.541 243.564 322.209 242.642C322.877 241.721 323.722 240.959 324.688 240.404C327.1 239.177 329.685 237.537 329.627 232.64Z" fill="#455A64"/>
<path d="M169.227 195.277L169.769 191.097C169.769 191.097 167.461 192.92 163.688 190.976C159.914 189.032 160.064 184.901 156.002 184.597L155.137 189.129C156.23 189.147 157.308 189.405 158.301 189.886C159.295 190.367 160.182 191.061 160.907 191.924C162.649 194.111 164.749 196.395 169.227 195.277Z" fill="#FFC727"/>
<path d="M350.125 277.852L350.668 273.66C350.668 273.66 348.36 275.483 344.586 273.539C340.813 271.595 340.963 267.463 336.901 267.16L336.035 271.692C337.13 271.711 338.208 271.97 339.202 272.454C340.195 272.937 341.082 273.633 341.805 274.498C343.478 276.673 345.602 278.958 350.125 277.852Z" fill="#455A64"/>
<path d="M333.875 84.1851L334.418 80.0053C334.418 80.0053 332.11 81.8279 328.336 79.8838C324.563 77.9397 324.713 73.8086 320.651 73.5048L319.785 78.0369C320.879 78.0551 321.956 78.313 322.95 78.7942C323.943 79.2754 324.831 79.9692 325.555 80.8316C327.251 83.0065 329.352 85.2908 333.875 84.1851Z" fill="#FFC727"/>
<path d="M406.943 104.245L402.72 101.815C402.72 101.815 399.258 107.247 403.412 109.993C403.4 110.005 402.546 106.469 406.943 104.245Z" fill="#FFC727"/>
<path d="M403.483 116.627L407.937 114.889C407.937 114.889 408.203 110.867 403.379 110.029C403.402 110.005 406.425 113.65 403.483 116.627Z" fill="#FFC727"/>
<path d="M181.427 234.523L177.192 232.093C177.192 232.093 173.73 237.537 177.885 240.27C177.885 240.283 177.042 236.759 181.427 234.523Z" fill="#455A64"/>
<path d="M178.005 246.892L182.448 245.143C182.448 245.143 182.713 241.133 177.832 240.283C177.89 240.283 180.913 243.928 178.005 246.892Z" fill="#455A64"/>
<path d="M346.508 73.9907C346.437 73.4352 346.525 72.8701 346.759 72.3669C346.993 71.8637 347.364 71.4451 347.825 71.164C348.285 70.883 348.815 70.7522 349.346 70.7882C349.877 70.8242 350.386 71.0253 350.809 71.3662C351.231 71.7071 351.548 72.1723 351.719 72.703C351.89 73.2337 351.908 73.8059 351.77 74.3472C351.632 74.8885 351.345 75.3745 350.944 75.7436C350.544 76.1128 350.048 76.3484 349.52 76.4208C348.815 76.5174 348.102 76.316 347.538 75.8606C346.973 75.4051 346.603 74.7328 346.508 73.9907Z" fill="#263238"/>
<path d="M389.008 142.872C388.938 142.317 389.025 141.753 389.259 141.25C389.493 140.747 389.863 140.329 390.323 140.048C390.783 139.767 391.312 139.636 391.843 139.671C392.373 139.706 392.882 139.906 393.305 140.246C393.727 140.586 394.045 141.05 394.217 141.579C394.389 142.109 394.408 142.681 394.272 143.222C394.136 143.763 393.85 144.249 393.452 144.62C393.053 144.99 392.559 145.227 392.032 145.302C391.682 145.352 391.326 145.328 390.984 145.233C390.643 145.138 390.322 144.972 390.042 144.747C389.761 144.521 389.525 144.239 389.348 143.918C389.17 143.596 389.055 143.241 389.008 142.872Z" fill="#FFC727"/>
<path d="M377.863 244.961C377.829 244.684 377.873 244.403 377.99 244.153C378.108 243.903 378.293 243.696 378.522 243.557C378.752 243.417 379.015 243.353 379.279 243.372C379.543 243.39 379.797 243.491 380.006 243.661C380.216 243.831 380.374 244.062 380.458 244.327C380.543 244.591 380.552 244.875 380.483 245.145C380.414 245.414 380.271 245.655 380.071 245.839C379.872 246.022 379.626 246.14 379.363 246.176C379.011 246.224 378.655 246.123 378.374 245.895C378.093 245.667 377.909 245.331 377.863 244.961Z" fill="#FFC727"/>
<path d="M221.892 199.627L221.338 203.819C221.338 203.819 223.646 201.996 227.419 203.94C231.193 205.885 231.054 210.016 235.117 210.319L235.97 205.787C234.877 205.769 233.799 205.511 232.806 205.03C231.812 204.549 230.925 203.855 230.201 202.993C228.504 200.806 226.415 198.521 221.892 199.627Z" fill="#455A64"/>
<path d="M443.097 247.342L436.692 249.25C436.692 249.25 433.634 240.817 439.993 238.436C439.993 238.387 437.823 242.931 443.097 247.342Z" fill="#455A64"/>
<path d="M442.044 229.529L447.549 233.308C447.549 233.308 446.741 238.812 439.99 238.436C439.99 238.387 445.114 234.487 442.044 229.529Z" fill="#455A64"/>
<path d="M328.469 179.324L322.03 181.28C322.03 181.28 318.983 172.847 325.33 170.466C325.33 170.417 323.172 174.913 328.469 179.324Z" fill="#263238"/>
<path d="M327.398 161.511L332.902 165.29C332.902 165.29 332.094 170.794 325.332 170.417C325.332 170.417 330.467 166.468 327.398 161.511Z" fill="#263238"/>
<path d="M109.754 219.153L103.338 221.061C103.338 221.061 100.292 212.628 106.639 210.247C106.639 210.247 104.469 214.742 109.754 219.153Z" fill="#263238"/>
<path d="M108.706 201.34L114.211 205.119C114.211 205.119 113.391 210.623 106.641 210.247C106.641 210.247 111.776 206.298 108.706 201.34Z" fill="#263238"/>
<path d="M378.975 165.751L383.21 168.182C383.21 168.182 386.672 162.738 382.517 160.004C382.517 159.992 383.36 163.516 378.975 165.751Z" fill="#455A64"/>
<path d="M382.396 153.334L377.942 155.083C377.942 155.083 377.688 159.093 382.558 159.943C382.512 159.992 379.488 156.347 382.396 153.334Z" fill="#455A64"/>
<path d="M231.738 144.367L235.973 146.797C235.973 146.797 239.435 141.365 235.281 138.619C235.281 138.607 236.158 142.143 231.738 144.367Z" fill="#FFC727"/>
<path d="M235.16 131.985L230.705 133.723C230.705 133.723 230.452 137.745 235.321 138.583C235.275 138.607 232.252 134.974 235.16 131.985Z" fill="#FFC727"/>
<path d="M268.828 305.057L269.532 310.063C269.532 310.063 275.717 309.686 275.302 304.571C275.383 304.571 273.156 307.402 268.828 305.057Z" fill="#FFC727"/>
<path d="M280.297 300.501L276.304 297.803C276.304 297.803 273.096 299.99 275.335 304.571C275.392 304.571 276.281 299.844 280.297 300.501Z" fill="#FFC727"/>
<path d="M0 499.392L62.5 499.101L125 498.992L250 498.785L375 498.992L437.5 499.101L500 499.392L437.5 499.696L375 499.793L250 500L125 499.793L62.5 499.684L0 499.392Z" fill="#263238"/>
<path d="M305.033 215.812C287.908 227.379 258.505 235.009 235.552 232.883C231.941 232.603 228.359 232.006 224.843 231.097C220.123 229.882 215.53 228.509 211.099 227.233C181.603 218.728 156.146 211.437 112.248 224.038C59.8225 239.08 48.1326 245.908 47.1171 246.054L54.8603 237.172L44.5898 230.429C44.8322 230.429 56.6952 223.539 108.255 208.74C156.1 195.022 184.707 203.248 214.999 211.948C219.384 213.163 223.908 214.511 228.501 215.751C230.282 216.221 232.084 216.594 233.902 216.869C255.735 220.174 287.354 212.008 300.406 201.073C301.777 199.972 302.91 198.576 303.729 196.978L303.949 213.989C304.237 214.244 304.537 214.888 305.033 215.812Z" fill="#FFC727"/>
<path opacity="0.2" d="M305.033 215.812C287.908 227.379 258.505 235.009 235.552 232.883C231.941 232.603 228.359 232.006 224.843 231.097C220.123 229.882 215.53 228.509 211.099 227.233C181.603 218.728 156.146 211.437 112.248 224.038C59.8225 239.08 48.1326 245.908 47.1171 246.054L54.8603 237.172L44.5898 230.429C44.8322 230.429 56.6952 223.539 108.255 208.74C156.1 195.022 184.707 203.248 214.999 211.948C219.384 213.163 223.908 214.511 228.501 215.751C230.282 216.221 232.084 216.594 233.902 216.869C255.735 220.174 287.354 212.008 300.406 201.073C301.777 199.972 302.91 198.576 303.729 196.978L303.949 213.989C304.237 214.244 304.537 214.888 305.033 215.812Z" fill="black"/>
<path d="M301.615 191.073C301.615 191.073 301.881 231.923 294.288 240.744C294.288 240.744 244.193 337.839 217.201 343.356C194.341 348.034 111.104 283.138 111.104 283.138L137.426 240.441C137.426 240.441 151.978 247.901 171.826 259.31C188.213 268.739 202.292 279.42 202.719 278.63C208.927 266.868 234.246 233.442 233.749 231.243C228.268 206.784 244.839 191.146 244.839 191.146L301.615 191.073Z" fill="#263238"/>
<path d="M294.268 240.744C294.268 240.744 281.967 264.608 266.261 289.347L233.73 231.206C228.272 206.759 244.843 191.11 244.843 191.11H301.619C301.619 191.11 301.862 231.923 294.268 240.744Z" fill="#37474F"/>
<path d="M35.5787 275.203C36.3288 272.251 79.9841 203.284 83.2384 201.778C84.4616 201.182 137.476 240.441 137.476 240.441L111.176 282.968L77.4108 260.052C77.4108 260.052 50.1997 278.119 46.4608 279.383C42.7219 280.647 34.8171 278.144 35.5787 275.203Z" fill="#EB9481"/>
<path d="M35.59 275.203C36.3401 272.251 79.9839 203.284 83.2266 201.778C83.8151 201.486 100.536 213.466 110.518 220.684L83.4805 264.243L77.3528 260.1C77.3528 260.1 50.1995 278.107 46.4605 279.383C42.7216 280.659 34.8168 278.132 35.59 275.203Z" fill="#EBEBEB"/>
<path d="M35.4308 275.519C36.1924 272.591 79.6862 202.738 82.9059 201.219C84.1291 200.636 94.0418 207.634 104.566 216.371L77.2513 260.817C77.2513 260.817 49.9826 278.411 46.2783 279.699C42.574 280.987 34.6807 278.484 35.4308 275.519Z" fill="#FFC727"/>
<path d="M38.6585 276.37C46.2171 265.046 75.6438 218.618 82.2908 206.82C82.2908 206.723 82.2908 206.674 82.2215 206.82C74.5129 217.865 45.4324 264.547 38.4854 276.285C38.3354 276.491 38.5085 276.601 38.6585 276.37Z" fill="#263238"/>
<path d="M51.4111 276.904C52.255 275.648 52.8406 274.22 53.1307 272.711C53.4208 271.203 53.409 269.647 53.096 268.144C52.5614 265.432 51.0523 263.042 48.8839 261.473C48.8839 261.473 48.7454 261.546 48.8031 261.607C50.7229 263.514 52.0018 266.027 52.4472 268.767C52.8926 271.506 52.4804 274.324 51.2727 276.795C51.2265 276.904 51.3534 277.002 51.4111 276.904Z" fill="#263238"/>
<path d="M73.8668 263.648C76.8441 259.092 78.6789 252.713 76.9133 247.293C76.8441 247.087 76.5671 247.184 76.5441 247.366C76.0009 252.804 74.9061 258.165 73.2783 263.356C73.2632 263.434 73.2733 263.514 73.307 263.585C73.3406 263.656 73.3958 263.712 73.4636 263.746C73.5315 263.78 73.6082 263.788 73.6813 263.77C73.7544 263.753 73.8198 263.71 73.8668 263.648Z" fill="#263238"/>
<path d="M70.3024 266.333C73.2797 261.777 75.1145 255.398 73.3489 249.967C73.2796 249.76 73.0027 249.87 72.9796 250.052C72.4351 255.489 71.3403 260.85 69.7138 266.042C69.6988 266.119 69.7089 266.2 69.7425 266.27C69.7761 266.341 69.8313 266.398 69.8992 266.431C69.9671 266.465 70.0437 266.474 70.1169 266.456C70.19 266.438 70.2553 266.395 70.3024 266.333Z" fill="#263238"/>
<path d="M66.7417 268.921C69.719 264.353 71.5538 257.986 69.7882 252.555C69.719 252.348 69.442 252.458 69.4189 252.64C68.8744 258.073 67.7796 263.43 66.1531 268.618C66.1339 268.696 66.1411 268.779 66.1733 268.853C66.2055 268.927 66.2608 268.986 66.3299 269.022C66.3991 269.058 66.4778 269.067 66.5528 269.049C66.6278 269.03 66.6945 268.986 66.7417 268.921Z" fill="#263238"/>
<path d="M63.1772 271.558C66.1545 266.99 67.9893 260.562 66.2237 255.191C66.1545 254.985 65.8775 255.094 65.8545 255.277C65.3099 260.71 64.2151 266.066 62.5887 271.254C62.5695 271.333 62.5766 271.416 62.6088 271.49C62.641 271.563 62.6964 271.623 62.7655 271.659C62.8346 271.694 62.9133 271.704 62.9883 271.686C63.0633 271.667 63.13 271.622 63.1772 271.558Z" fill="#263238"/>
<path d="M90.8222 217.027C94.0765 211.851 86.4371 206.517 83.1828 211.705C79.9286 216.893 87.568 222.215 90.8222 217.027Z" fill="#263238"/>
<path d="M82.4023 276.831C85.7258 275.774 85.7835 271.57 84.7911 268.812C83.3677 265.068 81.2223 261.675 78.4903 258.849C78.121 258.436 77.7287 258.059 77.3363 257.634C77.1557 257.489 76.9823 257.335 76.817 257.172L76.667 257.075L76.24 256.71C76.2224 256.698 76.2024 256.69 76.1815 256.687C76.1605 256.684 76.1392 256.686 76.1192 256.693C76.0991 256.7 76.0809 256.712 76.0658 256.727C76.0508 256.743 76.0393 256.762 76.0323 256.783C75.9099 256.738 75.7779 256.73 75.6514 256.76C75.5249 256.79 75.409 256.857 75.3168 256.953C75.2635 257.003 75.2213 257.065 75.1934 257.135C75.1654 257.204 75.1524 257.279 75.1553 257.354C75.1553 258.679 75.1553 260.039 75.1553 261.4C75.1436 261.635 75.1436 261.87 75.1553 262.105C74.9912 265.418 75.3579 268.737 76.24 271.923C77.094 274.669 79.275 277.803 82.4023 276.831ZM76.6324 264.681C76.6324 263.539 76.5631 262.397 76.5285 261.267C76.4939 260.137 76.4593 259.347 76.4131 258.387C76.4131 258.253 76.4131 258.107 76.4131 257.986C76.4131 257.864 76.4131 257.731 76.4131 257.621L76.6208 257.889C77.0593 258.508 77.4863 259.104 77.9364 259.699C79.1277 261.31 80.2333 262.99 81.2483 264.729C81.958 265.931 82.5903 267.181 83.1409 268.472C83.9486 270.489 84.7334 277.585 79.6789 274.693C76.9093 273.125 76.7939 267.451 76.6901 264.657L76.6324 264.681Z" fill="#263238"/>
<path d="M75.8697 257.937C75.869 257.96 75.8734 257.983 75.8824 258.003C75.8914 258.024 75.9048 258.042 75.9216 258.056C75.9384 258.07 75.9581 258.08 75.9792 258.085C76.0002 258.089 76.022 258.089 76.0428 258.083C76.181 258.057 76.3163 258.017 76.4467 257.962C76.4988 257.982 76.5562 257.982 76.6083 257.962C76.8506 257.926 77.0873 257.857 77.3122 257.755C78.1613 257.502 78.9907 257.181 79.7933 256.795C83.0201 255.37 85.958 253.308 88.4482 250.72C90.433 248.618 91.9794 244.754 89.3483 242.385C89.2531 242.301 89.1529 242.224 89.0483 242.154C86.6133 240.295 83.5784 242.154 81.8128 244.195C80.0499 246.383 78.6141 248.842 77.5545 251.486C76.7814 253.32 76.0544 255.131 75.2466 256.965C75.1943 257.072 75.1702 257.191 75.1769 257.311C75.1835 257.431 75.2207 257.547 75.2844 257.646C75.3481 257.745 75.4361 257.825 75.5391 257.876C75.6421 257.927 75.7563 257.949 75.8697 257.937ZM79.4702 251.072C80.6242 248.545 82.9321 243.418 86.1171 243.138C86.8473 243.034 87.5907 243.13 88.2751 243.418C90.7215 244.633 88.1251 249.043 86.8672 250.295C85.8705 251.251 84.8142 252.136 83.7053 252.944C82.8744 253.563 82.032 254.159 81.1434 254.657C79.724 255.556 78.27 256.37 76.8275 257.233C76.7352 257.233 76.6544 257.354 76.5621 257.391C76.618 257.305 76.6608 257.211 76.689 257.111C76.8275 256.868 76.9429 256.649 77.0583 256.394C77.8777 254.645 78.6393 252.846 79.4702 251.072Z" fill="#263238"/>
<path d="M470.676 451.131C468.864 453.561 402.718 498.432 399.129 498.518C397.779 498.518 364.082 440.304 364.082 440.304L404.333 412.358L426.605 447.595C426.605 447.595 458.34 442.479 462.24 442.88C466.141 443.281 472.488 448.749 470.676 451.131Z" fill="#EB9481"/>
<path d="M470.671 451.13C468.871 453.561 402.712 498.432 399.124 498.517C398.477 498.517 387.687 480.523 381.26 469.709L422.561 441.118L426.6 447.497C426.6 447.497 458.323 442.382 462.235 442.783C466.147 443.184 472.494 448.761 470.671 451.13Z" fill="#EBEBEB"/>
<path d="M470.936 450.9C469.136 453.33 402.793 499.064 399.262 499.101C397.911 499.101 391.484 488.542 385.137 476.112L427.015 446.829C427.015 446.829 458.692 442.127 462.569 442.528C466.447 442.929 472.724 448.518 470.936 450.9Z" fill="#FFC727"/>
<path d="M468.295 448.761C457.078 455.979 412.511 486.197 401.94 494.216C401.859 494.289 401.94 494.35 401.94 494.289C413.203 487.4 457.551 456.805 468.364 448.956C468.641 448.786 468.537 448.591 468.295 448.761Z" fill="#263238"/>
<path d="M456.811 442.917C455.566 443.713 454.49 444.772 453.652 446.026C452.814 447.281 452.232 448.704 451.941 450.207C451.408 452.915 451.887 455.736 453.28 458.081C453.28 458.154 453.441 458.081 453.406 457.996C452.368 455.442 452.145 452.603 452.769 449.904C453.393 447.205 454.832 444.792 456.868 443.026C456.984 442.99 456.892 442.856 456.811 442.917Z" fill="#263238"/>
<path d="M431.177 445.639C426.723 448.579 422.603 453.694 422.188 459.369C422.188 459.587 422.464 459.612 422.557 459.442C425.116 454.686 428.153 450.234 431.616 446.161C431.667 446.096 431.695 446.014 431.695 445.93C431.694 445.845 431.664 445.764 431.611 445.7C431.557 445.637 431.484 445.596 431.405 445.585C431.325 445.573 431.244 445.592 431.177 445.639Z" fill="#263238"/>
<path d="M435.464 444.715C430.998 447.656 426.89 452.783 426.475 458.445C426.475 458.664 426.752 458.688 426.844 458.53C429.4 453.772 432.433 449.315 435.891 445.238C435.938 445.173 435.962 445.094 435.959 445.014C435.957 444.933 435.928 444.856 435.878 444.794C435.828 444.733 435.76 444.692 435.685 444.678C435.609 444.663 435.531 444.676 435.464 444.715Z" fill="#263238"/>
<path d="M439.732 443.804C435.266 446.744 431.158 451.86 430.742 457.534C430.742 457.753 431.019 457.777 431.111 457.607C433.667 452.852 436.7 448.4 440.159 444.326C440.205 444.262 440.229 444.183 440.227 444.102C440.225 444.022 440.196 443.944 440.146 443.883C440.096 443.822 440.028 443.781 439.952 443.766C439.877 443.752 439.799 443.765 439.732 443.804Z" fill="#263238"/>
<path d="M443.999 442.88C439.533 445.821 435.425 450.948 435.01 456.611C435.01 456.829 435.287 456.854 435.379 456.696C437.935 451.937 440.968 447.481 444.426 443.403C444.473 443.339 444.497 443.26 444.494 443.179C444.492 443.098 444.464 443.021 444.414 442.96C444.364 442.899 444.295 442.857 444.22 442.843C444.144 442.828 444.067 442.842 443.999 442.88Z" fill="#263238"/>
<path d="M397.987 481.276C393.037 484.654 397.987 492.758 402.972 489.368C407.958 485.978 402.938 477.886 397.987 481.276Z" fill="#263238"/>
<path d="M428.364 429.977C424.902 429.539 423.275 433.379 423.136 436.331C423.027 440.359 423.707 444.366 425.133 448.105C425.317 448.64 425.537 449.15 425.756 449.648C425.871 449.855 425.964 450.074 426.056 450.28L426.16 450.438L426.414 450.948C426.427 450.966 426.443 450.98 426.462 450.99C426.481 451 426.502 451.005 426.523 451.005C426.544 451.005 426.565 451 426.584 450.99C426.603 450.98 426.62 450.966 426.633 450.948C426.728 451.044 426.847 451.109 426.976 451.134C427.105 451.16 427.238 451.146 427.36 451.094C427.427 451.071 427.488 451.033 427.54 450.982C427.592 450.932 427.633 450.871 427.66 450.803C428.133 449.588 428.664 448.372 429.183 447.085C429.287 446.878 429.368 446.671 429.46 446.453C430.864 443.48 431.785 440.281 432.184 436.987C432.414 434.193 431.607 430.365 428.364 429.977ZM428.999 443.537C428.606 444.606 428.191 445.663 427.845 446.708C427.498 447.753 427.175 448.506 426.852 449.405C426.852 449.527 426.76 449.673 426.725 449.782L426.61 450.122C426.61 450.013 426.552 449.903 426.529 449.794C426.506 449.685 426.529 449.794 426.529 449.794C426.356 449.053 426.206 448.324 426.021 447.583C425.526 445.607 425.141 443.603 424.867 441.58C424.677 440.179 424.573 438.767 424.556 437.352C424.556 435.165 426.541 428.336 430.072 433.099C431.976 435.675 429.956 440.936 428.999 443.537Z" fill="#263238"/>
<path d="M427.197 450.037C427.207 450.017 427.211 449.994 427.211 449.971C427.21 449.949 427.205 449.926 427.195 449.906C427.185 449.886 427.17 449.869 427.153 449.856C427.135 449.843 427.115 449.834 427.093 449.83C426.955 449.814 426.816 449.814 426.678 449.83C426.653 449.818 426.625 449.811 426.597 449.811C426.569 449.811 426.542 449.818 426.516 449.83C426.282 449.769 426.042 449.736 425.801 449.733C424.926 449.604 424.042 449.547 423.158 449.563C419.666 449.504 416.195 450.152 412.934 451.471C410.326 452.564 407.441 455.456 408.953 458.761C409.007 458.879 409.069 458.992 409.137 459.101C410.672 461.823 414.169 461.373 416.546 460.316C419.005 459.04 421.263 457.372 423.239 455.371C424.647 454.022 426.009 452.613 427.405 451.301C427.528 451.237 427.628 451.133 427.691 451.004C427.753 450.876 427.774 450.729 427.75 450.587C427.727 450.445 427.66 450.314 427.561 450.215C427.461 450.116 427.334 450.054 427.197 450.037ZM421.3 454.824C419.258 456.647 415.196 460.377 412.195 459.308C411.486 459.105 410.841 458.706 410.326 458.154C408.526 456.027 412.634 453.05 414.215 452.431C415.491 451.975 416.794 451.61 418.115 451.337C419.108 451.118 420.112 450.96 421.116 450.827C422.766 450.608 424.405 450.474 426.055 450.28H426.366C426.284 450.342 426.207 450.411 426.136 450.487C425.916 450.657 425.732 450.815 425.524 450.997C424.105 452.236 422.731 453.549 421.3 454.824Z" fill="#263238"/>
<path d="M405.561 413.671L364.122 440.244C364.122 440.244 321.874 393.549 312.192 353.234C309.273 341.083 259.951 265.386 243.403 246.419C221.627 221.449 243.576 191.037 243.576 191.037H303.722L304.022 213.892C308.753 221.972 405.561 413.671 405.561 413.671Z" fill="#263238"/>
<path d="M291.553 203.151C293.883 204.61 296.098 206.264 298.177 208.096C300.282 209.895 302.25 211.865 304.062 213.989C301.729 212.529 299.514 210.871 297.438 209.032C295.333 207.237 293.365 205.271 291.553 203.151Z" fill="#37474F"/>
<path d="M281.32 73.5412C280.581 68.681 279.601 63.5656 272.7 61.2084C257.894 56.1659 247.312 77.4172 230.221 84.2215C209.634 92.4595 201.372 105.546 209.75 113.954C219.108 123.37 236.488 118.121 250.866 92.0829C259.867 75.8133 267.888 71.7065 271.58 71.7672C274.246 71.7672 277.985 77.4536 277.985 77.4536L281.32 73.5412Z" fill="#263238"/>
<path d="M256.046 83.2738C254.442 85.7039 253.114 88.3891 251.707 90.9772C250.299 93.5653 248.937 96.1776 247.483 98.7171C246.029 101.257 244.494 103.76 242.798 106.117C241.147 108.493 239.276 110.691 237.213 112.678C235.186 114.681 232.812 116.253 230.219 117.307C227.559 118.276 224.76 118.753 221.945 118.717C219.098 118.688 216.296 117.973 213.752 116.627C212.466 115.953 211.267 115.108 210.186 114.112C209.651 113.611 209.146 113.075 208.674 112.508C208.183 111.95 207.771 111.319 207.451 110.637C208.034 112.051 208.886 113.325 209.955 114.379C210.987 115.481 212.151 116.436 213.417 117.222C214.709 118 216.084 118.612 217.514 119.045C218.947 119.472 220.423 119.724 221.911 119.798C223.387 119.876 224.867 119.806 226.33 119.592L227.427 119.409L228.5 119.179C229.227 119.012 229.943 118.801 230.646 118.547C233.407 117.451 235.939 115.801 238.101 113.687C242.23 109.482 245.693 104.608 248.36 99.2517C249.756 96.6272 251.026 93.9541 252.261 91.2688C253.495 88.5836 254.707 85.8983 256.046 83.2738Z" fill="#263238"/>
<path d="M281.354 74.9507C281.215 72.8822 280.828 70.8407 280.2 68.8754C279.563 66.957 278.518 65.2169 277.147 63.7873C275.775 62.3576 274.112 61.2762 272.283 60.6252C271.376 60.3001 270.44 60.0681 269.491 59.9326C268.553 59.7688 267.601 59.7077 266.652 59.7504C264.758 59.9041 262.903 60.4015 261.17 61.2206C259.422 62.0842 257.763 63.1347 256.22 64.3554C253.081 66.7855 250.173 69.6044 247.161 72.314C244.162 75.091 240.968 77.6255 237.606 79.8959C234.156 82.0152 230.557 83.8513 226.839 85.388C223.157 86.848 219.572 88.565 216.107 90.5276C214.381 91.5242 212.783 92.7492 211.353 94.1728L210.314 95.2542C209.991 95.6551 209.702 96.0683 209.391 96.4692L208.929 97.0768L208.537 97.7329L207.764 99.0694C209.476 95.2392 212.242 92.039 215.703 89.8837C219.137 87.769 222.699 85.8938 226.366 84.2701C229.967 82.6358 233.46 80.7482 236.821 78.6201C240.104 76.3676 243.221 73.8575 246.145 71.1111C249.169 68.438 252.077 65.5948 255.377 63.1525C257.021 61.8982 258.785 60.8273 260.639 59.9569C262.531 59.0964 264.558 58.6143 266.617 58.5353C267.648 58.5303 268.676 58.6361 269.687 58.8512C270.689 59.043 271.674 59.3276 272.629 59.7018C274.55 60.4376 276.276 61.6465 277.664 63.2275C279.051 64.8085 280.059 66.7158 280.603 68.7904C281.129 70.796 281.382 72.8702 281.354 74.9507Z" fill="#263238"/>
<path d="M286.056 73.8207C285.918 72.3141 284.672 70.5158 283.748 70.37C282.825 70.2242 276.34 74.1852 275.959 76.105C275.578 78.0248 278.809 79.252 278.809 79.252L286.056 73.8207Z" fill="#FFC727"/>
<path d="M297.418 126.019C305.738 106.578 313.793 91.3781 326.267 68.3651C332.753 56.3847 344.039 37.0896 346.935 31.9135C350.755 25.1578 378.035 51.3543 374.954 55.607C372.946 58.4138 361.51 75.8376 350.467 88.1583C336.284 103.954 325.817 118.632 309.985 134.962C298.018 147.343 291.925 138.862 297.418 126.019Z" fill="#EB9481"/>
<path d="M367.288 63.9302C374.131 61.1356 394.892 45.7044 398.331 41.7676C401.77 37.8309 410.898 25.5345 408.266 22.4483C405.635 19.3621 402.693 22.7156 402.693 22.7156C402.693 22.7156 406.155 16.4095 402.843 14.0523C400.212 12.1811 395.838 16.6768 395.838 16.6768C395.838 16.6768 399.3 9.55661 395.723 7.66113C392.48 5.92361 388.926 12.0353 388.926 12.0353C388.926 12.0353 391.234 5.76565 387.772 4.74501C383.652 3.52996 379.694 14.3439 375.539 18.4508C374.605 19.3864 348.34 36.0812 348.34 36.0812L367.288 63.9302Z" fill="#EB9481"/>
<path d="M388.76 11.7073C384.986 19.5079 383.209 22.6427 376.781 27.6245C376.654 27.7217 376.781 27.9404 376.897 27.8432C383.625 23.554 385.99 20.0304 389.141 11.8409C389.291 11.44 388.944 11.3428 388.76 11.7073Z" fill="#263238"/>
<path d="M395.753 16.6647C391.945 24.6597 389.118 27.6852 382.713 33.4445C382.621 33.5296 382.713 33.6875 382.84 33.6146C389.545 28.5236 393.226 25.2429 395.984 16.7376C396.146 16.3487 395.926 16.3001 395.753 16.6647Z" fill="#263238"/>
<path d="M402.333 23.0073C398.167 30.4677 395.247 34.1371 388.381 38.9001C388.355 38.9244 388.338 38.9576 388.332 38.994C388.326 39.0303 388.333 39.0676 388.351 39.0993C388.369 39.131 388.397 39.1552 388.429 39.1677C388.462 39.1801 388.498 39.18 388.531 39.1674C395.986 35.0363 399.656 30.492 402.541 23.1652C402.771 22.667 402.633 22.5334 402.333 23.0073Z" fill="#263238"/>
<path d="M343.35 38.8636C343.35 38.8636 346.177 27.1384 356.747 22.825C361.006 21.0753 366.972 7.74618 370.907 8.01349C375.304 8.31725 372.153 20.3827 366.799 26.8711C366.799 26.8711 373.942 38.8272 369.107 45.3156C368.056 46.725 360.382 51.1843 358.467 50.7711L343.35 38.8636Z" fill="#EB9481"/>
<path d="M366.481 27.7337C369.424 32.2901 371.466 39.2038 369.378 44.2341C369.362 44.2631 369.359 44.2973 369.367 44.3292C369.376 44.3611 369.396 44.3881 369.424 44.4042C369.451 44.4203 369.484 44.4242 369.514 44.4151C369.545 44.406 369.57 44.3846 369.585 44.3556C372.528 39.2888 370.22 31.2574 367.37 27.3449C366.816 26.6037 365.72 26.5673 366.481 27.7337Z" fill="#263238"/>
<path d="M305.488 181.061L303.687 191.073H244.834C244.834 191.073 254.066 140.296 275.588 125.229C286.366 117.696 296.198 121.001 300.976 129.458C302.187 131.596 314.5 154.002 314.154 164.694C313.831 174.22 305.488 181.061 305.488 181.061Z" fill="#EB9481"/>
<path d="M314.167 164.743C313.855 173.625 306.481 180.211 305.57 181L248.193 176.93C249.532 171.997 251.263 166.213 253.467 160.247C259.168 160.463 264.876 160.191 270.535 159.433C273.039 158.935 278.612 150.15 285.744 151.049C292.876 151.948 300.007 159.433 300.007 159.433C303.138 155.905 307.196 153.439 311.663 152.349C313.186 156.979 314.282 161.438 314.167 164.743Z" fill="#263238"/>
<path d="M300.989 129.446C300.684 128.899 300.348 128.372 299.985 127.866C301.681 133.042 304.889 144.452 300.758 145.582C296.223 146.797 284.81 128.17 281.279 122.204C279.277 122.967 277.37 123.983 275.601 125.229C259.087 136.59 245.251 177.622 243.555 191.037H303.701L305.489 181.025C305.489 181.025 313.833 174.184 314.167 164.706C314.513 154.002 302.2 131.596 300.989 129.446ZM278.567 154.293C275.52 161.231 268.585 166.614 263.969 165.958C260.195 165.411 258.43 160.016 259.93 153.127C262.515 141.39 273.512 124.087 278.521 124.5C284.267 124.974 283.621 142.738 278.567 154.293Z" fill="#455A64"/>
<path d="M286.458 172.653C289.679 173.23 292.845 174.104 295.921 175.265C297.456 175.873 298.944 176.578 300.444 177.307C301.183 177.683 301.933 178.011 302.752 178.339C303.525 178.715 304.345 178.969 305.187 179.093C305.257 179.093 305.245 179.239 305.187 179.239C304.391 179.237 303.596 179.168 302.81 179.032C302.049 178.859 301.301 178.628 300.571 178.339C299.013 177.744 297.479 177.051 295.955 176.432C292.817 175.217 289.689 174.002 286.493 172.981C286.25 172.945 286.308 172.617 286.458 172.653Z" fill="#263238"/>
<path d="M278.285 175.763C280.955 175.575 283.635 175.575 286.305 175.763C287.644 175.873 288.959 176.079 290.286 176.322C290.909 176.444 291.544 176.578 292.167 176.723C292.791 176.869 293.529 177.161 294.221 177.307C294.302 177.307 294.291 177.465 294.221 177.452C293.564 177.331 292.883 177.367 292.225 177.294L290.229 177.1C288.902 176.979 287.574 176.869 286.236 176.723C283.582 176.432 280.927 176.189 278.262 176.019C278.112 176.031 278.146 175.763 278.285 175.763Z" fill="#263238"/>
<path d="M249.082 170.162C254.786 170.488 260.503 170.488 266.207 170.162C277.205 169.372 289.61 167.27 289.864 167.44C290.326 167.756 311.997 167.222 311.997 167.222L313.671 168.218L313.936 167.003L312.448 166.153C312.974 164.41 313.093 162.559 312.794 160.758C312.286 157.902 308.178 146.177 308.062 145.849C307.947 145.521 300.838 128.571 300.746 128.474C300.654 128.377 299.984 127.854 299.984 127.854L307.07 145.946C304.733 146.49 302.361 146.851 299.973 147.028C297.06 146.88 294.156 146.576 291.272 146.116C291.272 146.116 286.194 132.07 285.387 130.624C284.579 129.178 281.832 121.973 281.555 122.119C281.294 122.21 281.028 122.288 280.759 122.35C280.759 122.35 284.913 133.285 285.513 134.403C286.114 135.521 289.991 146.93 289.991 146.93C289.991 146.93 290.822 156.456 290.856 158.17C290.637 160.705 290.275 163.225 289.772 165.715C289.772 165.715 277.424 167.623 266.519 168.607C257.425 169.445 249.463 169.397 249.347 169.397C249.232 169.397 249.082 170.162 249.082 170.162Z" fill="white"/>
<path d="M296.845 151.948L297.364 163.662C297.364 164.281 297.075 164.767 296.683 164.792C296.291 164.816 295.956 164.354 295.933 163.734L295.494 154.014L294.998 154.488C294.907 154.596 294.778 154.662 294.64 154.67C294.498 154.659 294.361 154.603 294.248 154.51C294.135 154.417 294.051 154.291 294.006 154.148C293.891 153.906 293.846 153.635 293.877 153.367C293.907 153.099 294.013 152.846 294.179 152.641L295.702 151.11C295.702 151.11 295.702 151.11 295.771 151.11H295.841C295.841 151.11 295.841 151.11 295.898 151.11C295.928 151.098 295.961 151.098 295.991 151.11H296.164C296.164 151.11 296.221 151.11 296.245 151.11H296.302C296.302 151.11 296.36 151.171 296.383 151.171C296.402 151.175 296.422 151.175 296.441 151.171V151.232C296.441 151.232 296.441 151.232 296.498 151.304C296.556 151.377 296.498 151.304 296.498 151.39L296.556 151.462C296.556 151.462 296.556 151.523 296.556 151.56C296.556 151.596 296.556 151.645 296.556 151.657C296.559 151.689 296.559 151.722 296.556 151.754C296.539 151.801 296.539 151.853 296.556 151.9L296.845 151.948Z" fill="#263238"/>
<path d="M308.637 151.778L305.925 163.686C305.833 164.099 305.59 164.354 305.29 164.366C305.194 164.375 305.098 164.354 305.013 164.306C304.819 164.14 304.673 163.919 304.594 163.67C304.514 163.42 304.503 163.152 304.563 162.896L306.871 152.568L303.536 152.726C303.144 152.726 302.798 152.24 302.775 151.645C302.752 151.049 303.052 150.539 303.432 150.527L307.875 150.308C307.917 150.297 307.961 150.297 308.002 150.308C308.103 150.337 308.197 150.387 308.279 150.454V150.515C308.287 150.538 308.287 150.564 308.279 150.588L308.337 150.661V150.746C308.339 150.778 308.339 150.81 308.337 150.843V150.94C308.337 150.94 308.337 151.013 308.337 151.037C308.332 151.069 308.332 151.102 308.337 151.134C308.349 151.28 308.349 151.426 308.337 151.572C308.648 151.657 308.648 151.718 308.637 151.778Z" fill="#263238"/>
<path d="M285.674 122.957C285.893 124.33 291.513 133.54 297.421 133.65C299.337 133.65 299.972 122.641 299.972 122.641L300.191 121.827L303.307 110.576L291.086 101.086L289.309 99.8714C289.309 99.8714 288.651 103.006 287.866 106.931C287.866 107.113 287.797 107.295 287.751 107.49C287.705 107.684 287.659 107.915 287.624 108.122C287.497 108.705 287.37 109.337 287.255 109.896C287.139 110.454 287.082 110.795 287.012 111.269C286.943 111.742 286.851 112.216 286.759 112.702C286.179 116.091 285.816 119.517 285.674 122.957Z" fill="#EB9481"/>
<path d="M287.871 106.907C288.774 110.186 290.344 113.22 292.472 115.797C294.6 118.373 297.236 120.431 300.196 121.827L303.311 110.576L291.091 101.086L289.314 99.8714C289.314 99.8714 288.656 102.982 287.871 106.907Z" fill="#263238"/>
<path d="M312.375 84.1364C321.941 102.095 312.802 110.151 309.121 112.313C305.786 114.282 294.119 120.539 282.902 103.723C271.685 86.9067 276.532 76.5423 283.952 71.6213C291.372 66.7004 302.808 66.1901 312.375 84.1364Z" fill="#EB9481"/>
<path d="M307.7 82.6662C307.282 82.8372 306.854 82.9792 306.419 83.0915C305.984 83.3098 305.493 83.3696 305.022 83.2616C304.881 83.1987 304.764 83.0882 304.689 82.9475C304.613 82.8067 304.585 82.6437 304.607 82.4839C304.7 82.1806 304.867 81.9085 305.092 81.6952C305.317 81.4818 305.592 81.3348 305.888 81.2689C306.475 81.0323 307.124 81.0323 307.711 81.2689C307.835 81.334 307.939 81.4343 308.011 81.5585C308.083 81.6827 308.121 81.8257 308.12 81.9713C308.119 82.1169 308.079 82.2593 308.004 82.3821C307.93 82.505 307.824 82.6034 307.7 82.6662Z" fill="#263238"/>
<path d="M296.55 89.3612C296.916 89.0841 297.264 88.7796 297.588 88.4499C298 88.1898 298.317 87.792 298.489 87.3199C298.517 87.1595 298.492 86.9939 298.418 86.8503C298.345 86.7067 298.227 86.5938 298.085 86.5301C297.791 86.4383 297.478 86.4327 297.181 86.5141C296.884 86.5955 296.614 86.7607 296.4 86.9919C295.885 87.3771 295.53 87.9554 295.407 88.6079C295.388 88.7565 295.409 88.9079 295.47 89.0438C295.53 89.1798 295.626 89.2945 295.747 89.3741C295.868 89.4538 296.008 89.4949 296.15 89.4926C296.293 89.4903 296.431 89.4447 296.55 89.3612Z" fill="#263238"/>
<path d="M305.893 101.475C306.302 101.709 306.775 101.787 307.232 101.694C307.682 101.466 308.076 101.134 308.386 100.722C308.386 100.722 308.478 100.722 308.467 100.722C308.416 101.053 308.283 101.364 308.08 101.622C307.877 101.881 307.612 102.077 307.313 102.192C307.037 102.248 306.752 102.217 306.493 102.102C306.234 101.988 306.014 101.795 305.859 101.548C305.743 101.524 305.824 101.451 305.893 101.475Z" fill="#263238"/>
<path d="M308.402 94.1971C308.402 94.1971 309.614 95.886 310.064 96.7487C310.064 96.8216 309.937 96.9796 309.66 97.1618C309.025 97.7118 308.258 98.0663 307.443 98.1864C306.629 98.3065 305.799 98.1874 305.044 97.8423C305.028 97.8285 305.016 97.8099 305.01 97.7889C305.004 97.7678 305.004 97.7453 305.01 97.7243C305.016 97.7033 305.028 97.6848 305.045 97.6712C305.061 97.6575 305.081 97.6494 305.102 97.6479C306.543 97.7894 307.988 97.4356 309.222 96.6394C309.152 96.3721 307.064 93.8204 307.191 93.7354C307.856 93.4225 308.559 93.2059 309.279 93.0914C306.868 89.4463 303.925 86.3357 301.571 82.727C301.551 82.7008 301.541 82.6676 301.543 82.634C301.546 82.6005 301.56 82.5691 301.583 82.5461C301.606 82.5231 301.637 82.5102 301.669 82.5099C301.701 82.5097 301.732 82.5221 301.755 82.5448C305.008 85.8258 307.943 89.4402 310.514 93.3344C310.837 93.7962 308.852 94.1485 308.402 94.1971Z" fill="#263238"/>
<path d="M308.71 97.4413C308.579 98.242 308.258 98.9946 307.775 99.6284C307.499 99.963 307.133 100.201 306.725 100.309C305.836 100.527 305.432 99.7863 305.248 99.0937C305.146 98.6976 305.096 98.2889 305.098 97.8787C306.315 98.1465 307.582 97.9931 308.71 97.4413Z" fill="#263238"/>
<path d="M307.771 99.604C307.496 99.9387 307.129 100.176 306.721 100.284C305.833 100.503 305.429 99.762 305.244 99.0694C305.662 98.8501 306.137 98.7836 306.595 98.8805C307.052 98.9773 307.466 99.2319 307.771 99.604Z" fill="#FF9CBD"/>
<path d="M298.973 93.4924C298.97 93.6641 298.934 93.8334 298.869 93.9906C298.826 94.1216 298.757 94.2409 298.665 94.3397C298.573 94.4386 298.461 94.5144 298.338 94.5617C297.576 94.8776 296.872 94.2458 296.445 93.4924C296.445 93.4924 296.445 93.3952 296.445 93.4195C296.942 93.6504 297.495 93.8691 297.876 93.5775C298.116 93.3198 298.28 92.995 298.349 92.6419C298.53 92.9464 298.739 93.2313 298.973 93.4924Z" fill="#263238"/>
<path d="M298.469 93.4924C298.324 93.1065 298.284 92.6858 298.353 92.2773C298.4 92.0613 298.487 91.8574 298.61 91.6778C298.733 91.4982 298.889 91.3467 299.069 91.2324C299.26 91.1309 299.472 91.078 299.686 91.078C299.901 91.078 300.112 91.1309 300.304 91.2324C300.643 91.4002 300.939 91.65 301.169 91.9614C301.307 92.1452 301.43 92.3403 301.538 92.5447C301.776 92.9667 301.918 93.4406 301.954 93.9298C301.8 93.6166 301.619 93.3196 301.412 93.0428C301.219 92.7937 301.011 92.5583 300.788 92.3381C300.338 91.9007 299.796 91.6334 299.404 91.9007C299.183 92.054 299.019 92.2825 298.939 92.5479C298.859 92.8134 298.868 93.0996 298.965 93.3587C299.112 94.0188 299.321 94.6619 299.588 95.2785C299.085 94.7855 298.702 94.1731 298.469 93.4924Z" fill="#263238"/>
<path d="M309.479 86.6031C309.62 86.6848 309.772 86.7461 309.929 86.7853C310.057 86.817 310.191 86.8193 310.32 86.792C310.45 86.7648 310.572 86.7086 310.679 86.6274C310.961 86.3384 311.135 85.9524 311.169 85.5396C311.203 85.1269 311.094 84.7151 310.864 84.3795C310.864 84.3795 310.794 84.2945 310.783 84.3795C310.691 84.9506 310.564 85.5946 310.125 85.7282C309.789 85.8037 309.439 85.7698 309.121 85.631C309.276 85.9394 309.396 86.2656 309.479 86.6031Z" fill="#263238"/>
<path d="M309.736 86.1778C309.508 85.8599 309.206 85.6089 308.859 85.4488C308.662 85.3714 308.452 85.3368 308.242 85.3473C308.032 85.3577 307.826 85.4129 307.636 85.5095C307.448 85.6163 307.286 85.7671 307.162 85.9504C307.037 86.1337 306.955 86.3445 306.921 86.5666C306.864 86.9746 306.9 87.3909 307.024 87.7817C307.105 88.0004 307.198 88.2191 307.29 88.4256C307.501 88.8651 307.805 89.2476 308.178 89.5435C308.003 89.2387 307.863 88.9122 307.763 88.5714C307.663 88.2705 307.586 87.9617 307.532 87.648C307.44 87.004 307.532 86.433 307.948 86.1899C308.19 86.0803 308.461 86.0615 308.715 86.1367C308.969 86.2118 309.191 86.3765 309.344 86.6031C309.779 87.0907 310.166 87.6241 310.498 88.1948C310.402 87.4677 310.141 86.7757 309.736 86.1778Z" fill="#263238"/>
<path d="M291.249 73.1402C292.415 74.4951 293.167 76.1888 293.407 78.0004C293.591 83.1522 288.341 84.671 287.544 87.1862C286.748 89.7013 288.894 92.423 288.294 94.7073C287.452 97.8665 285.409 97.0645 285.813 98.6562C286.217 100.248 287.567 105.278 286.136 106.809C284.706 108.34 261.753 82.5082 284.752 71.0624C284.752 71.0624 287.187 67.8061 293.245 67.9154C301.935 68.0734 307.704 76.7853 307.704 76.7853C306.843 77.0292 305.943 77.0789 305.062 76.9311C303.481 76.5302 302.558 76.0684 301.438 75.8497C299.673 75.5217 299.269 76.676 297.469 76.3965C294.688 75.9469 291.249 73.1402 291.249 73.1402Z" fill="#263238"/>
<path d="M290.535 72.1925C291.475 73.1779 292.304 74.2747 293.004 75.461C293.753 76.5773 294.196 77.8887 294.285 79.252C294.197 80.6185 293.634 81.903 292.704 82.8607C291.839 83.8692 290.719 84.6347 289.808 85.7647C289.335 86.3415 289.02 87.0429 288.896 87.7938C288.84 88.5325 288.922 89.2756 289.138 89.9809C289.613 91.2424 289.748 92.6169 289.531 93.9541C289.372 94.5988 289.083 95.2002 288.685 95.7179C288.287 96.2356 287.789 96.6575 287.223 96.9553C286.069 97.5871 284.661 97.9395 283.818 99.0816C284.753 98.0124 286.126 97.8666 287.35 97.2469C287.991 96.9611 288.565 96.5298 289.029 95.9837C289.494 95.4376 289.839 94.7902 290.038 94.0878C290.341 92.6662 290.237 91.182 289.738 89.8229C289.553 89.1945 289.483 88.5349 289.531 87.8788C289.652 87.2465 289.931 86.6596 290.338 86.1778C291.146 85.145 292.266 84.3431 293.177 83.2617C293.649 82.7251 294.038 82.1143 294.331 81.4512C294.652 80.7863 294.807 80.0461 294.781 79.3006C294.636 77.8581 294.113 76.4865 293.27 75.3395C292.482 74.1784 291.563 73.1217 290.535 72.1925Z" fill="#263238"/>
<path d="M291.553 73.0309C292.342 74.0469 293.258 74.9461 294.276 75.704C295.311 76.5183 296.552 76.9918 297.842 77.0648C298.47 77.0575 299.097 76.9842 299.711 76.8461C300.267 76.7443 300.838 76.8074 301.362 77.0284C301.892 77.3712 302.452 77.66 303.035 77.8911C303.644 78.07 304.283 78.0991 304.904 77.9761C304.3 77.9688 303.703 77.8324 303.15 77.5751C302.6 77.2999 302.078 76.9661 301.592 76.5788C300.994 76.2487 300.311 76.1254 299.642 76.2264C299.056 76.3438 298.461 76.4048 297.865 76.4087C296.68 76.3097 295.54 75.8912 294.553 75.1936C293.511 74.5399 292.509 73.8175 291.553 73.0309Z" fill="#263238"/>
<path d="M286.82 102.97C286.82 102.97 280.611 98.6442 278.603 101.208C276.595 103.772 282.815 111.184 286.289 111.111C286.734 111.134 287.178 111.061 287.596 110.899C288.014 110.736 288.396 110.486 288.719 110.163C289.043 109.841 289.301 109.453 289.478 109.023C289.656 108.592 289.748 108.129 289.751 107.66L286.82 102.97Z" fill="#EB9481"/>
<path d="M280.436 103.286C280.378 103.286 280.436 103.383 280.436 103.383C282.894 103.383 284.786 105.011 286.379 106.821C286.172 106.649 285.931 106.526 285.675 106.461C285.418 106.396 285.151 106.39 284.892 106.445C284.633 106.499 284.388 106.612 284.175 106.775C283.961 106.939 283.784 107.15 283.655 107.393C283.655 107.465 283.655 107.526 283.759 107.49C284.082 107.217 284.476 107.055 284.888 107.025C285.3 106.994 285.712 107.097 286.067 107.32C286.666 107.71 287.223 108.166 287.729 108.68C287.902 108.838 288.202 108.583 288.041 108.389C287.037 105.473 283.471 102.362 280.436 103.286Z" fill="#263238"/>
<path d="M314.625 89.1547C315.851 91.7443 316.595 94.5571 316.817 97.4413C316.933 98.8932 316.875 100.355 316.644 101.791C316.531 102.513 316.377 103.227 316.183 103.93C315.964 104.63 315.706 105.315 315.41 105.983C314.8 107.302 314.023 108.528 313.102 109.628C312.156 110.695 311.081 111.626 309.905 112.399C307.557 113.917 304.889 114.802 302.139 114.974C303.47 114.72 304.77 114.313 306.016 113.759C308.499 112.739 310.723 111.125 312.513 109.045C313.384 108.005 314.114 106.844 314.683 105.594C315.823 103.068 316.346 100.283 316.206 97.4899C316.176 96.0812 316.026 94.6781 315.756 93.298C315.482 91.8878 315.104 90.5024 314.625 89.1547Z" fill="#263238"/>
<path d="M271.651 141.28C271.374 140.806 271.097 140.333 270.809 139.859C272.609 141.779 274.479 143.601 276.417 145.363C276.417 145.363 276.533 145.363 276.487 145.29C274.583 142.981 272.644 140.721 270.624 138.522C269.667 137.489 268.743 136.42 267.751 135.412C266.758 134.403 265.443 133.212 264.427 132.022C264.3 131.876 264.081 132.022 264.208 132.204C265.212 133.334 266.112 134.561 267.082 135.74C268.051 136.918 268.813 137.732 269.713 138.692C269.883 139.067 270.072 139.432 270.278 139.786C270.624 140.357 270.971 140.916 271.351 141.463C272.113 142.544 272.921 143.601 273.659 144.658C272.99 143.613 272.309 142.398 271.651 141.28Z" fill="#263238"/>
<path d="M279.336 124.318C270.508 103.662 263.11 88.7537 249.874 64.319C242.95 51.5974 234.249 36.3728 231.168 30.8808C227.118 23.6999 198.152 51.4516 201.43 56.0324C203.553 59.0214 210.592 68.6689 223.021 84.173C237.192 101.828 249.193 116.518 266.007 133.869C278.701 146.955 285.175 137.951 279.336 124.318Z" fill="#EB9481"/>
<path d="M208.604 62.9581C201.334 59.9934 179.304 43.6631 175.646 39.4226C171.988 35.182 162.306 22.2053 165.098 18.9246C167.891 15.644 171.018 19.2041 171.018 19.2041C171.018 19.2041 167.349 12.5092 170.857 10.0062C173.649 8.01349 178.288 12.7886 178.288 12.7886C178.288 12.7886 174.642 5.23102 178.415 3.21403C181.877 1.37931 185.639 7.85553 185.639 7.85553C185.639 7.85553 183.193 1.2092 186.793 0.103501C191.167 -1.20876 195.402 10.3099 199.776 14.6841C200.768 15.6805 228.625 33.3959 228.625 33.3959L208.604 62.9581Z" fill="#EB9481"/>
<path d="M185.783 7.52751C189.799 15.8142 191.691 19.1191 198.477 24.4289C198.604 24.5261 198.477 24.7569 198.338 24.6597C191.195 20.1033 188.691 16.3609 185.344 7.64902C185.229 7.2359 185.598 7.12655 185.783 7.52751Z" fill="#263238"/>
<path d="M178.375 12.7765C182.356 21.2818 185.414 24.4774 192.223 30.5891C192.315 30.6742 192.223 30.8564 192.084 30.7835C184.976 25.3644 181.052 21.8772 178.132 12.8494C177.948 12.4484 178.19 12.3877 178.375 12.7765Z" fill="#263238"/>
<path d="M171.352 19.5078C175.771 27.4299 178.876 31.3303 186.169 36.3849C186.2 36.41 186.222 36.4464 186.229 36.4871C186.237 36.5277 186.23 36.57 186.21 36.6058C186.19 36.6416 186.159 36.6686 186.121 36.6816C186.084 36.6946 186.043 36.6928 186.007 36.6765C178.091 32.2901 174.19 27.4542 171.132 19.6658C170.925 19.1433 171.075 19.0096 171.352 19.5078Z" fill="#263238"/>
<path d="M234.011 36.3485C234.011 36.3485 231.011 23.8943 219.794 19.3378C215.259 17.4909 208.924 3.33558 204.793 3.61504C200.177 3.94311 203.465 16.7498 209.155 23.6391C209.155 23.6391 201.561 36.3242 206.731 43.2257C207.885 44.7202 215.963 49.4468 218.017 49.0215L234.011 36.3485Z" fill="#EB9481"/>
<path d="M209.454 24.5381C206.338 29.3983 204.157 36.6886 206.384 42.047C206.401 42.0792 206.405 42.1172 206.395 42.1525C206.385 42.1878 206.363 42.2176 206.332 42.2353C206.301 42.2531 206.265 42.2573 206.232 42.247C206.198 42.2368 206.17 42.2129 206.153 42.1807C203.037 36.798 205.484 28.2683 208.519 24.125C209.096 23.3231 210.261 23.3231 209.454 24.5381Z" fill="#263238"/>
<path d="M303.734 193.783C289.747 186.772 249.681 172.446 222.308 165.484C197.809 159.275 172.491 168.23 148.015 176.881C132.54 182.349 117.93 187.513 103.759 188.886C48.1485 194.281 29.9848 152.677 28.75 150.903L39.0205 153.601L40.8323 141.523C41.8708 143.006 55.4648 177.708 102.398 173.115C114.826 171.9 128.628 167.039 143.249 161.863C168.51 152.933 197.14 142.811 225.828 150.077C254.205 157.258 297.745 171.535 307.934 178.546L303.734 193.783Z" fill="#FFC727"/>
<path d="M109.414 499.502L120.204 497.448C120.204 497.448 108.664 485.055 115.761 477.424C122.858 469.794 133.452 476.537 133.452 476.537C133.452 476.537 131.801 458.397 145.13 454.606C158.459 450.815 170.172 477.923 170.172 477.923C170.172 477.923 172.133 471.556 182.081 474.059C192.028 476.562 199.887 490.826 199.887 490.826L404.385 499.393" fill="white"/>
<path d="M109.414 499.502L120.192 497.4V497.485C117.832 494.901 115.912 491.909 114.515 488.639C113.813 486.992 113.422 485.218 113.361 483.415C113.32 481.583 113.855 479.789 114.884 478.311C115.39 477.582 115.984 476.925 116.65 476.355C117.312 475.775 118.036 475.278 118.808 474.873C120.357 474.091 122.051 473.677 123.77 473.658C127.207 473.669 130.583 474.619 133.567 476.416L133.279 476.61C133.101 473.881 133.272 471.139 133.786 468.457C134.268 465.76 135.232 463.183 136.625 460.863C137.693 459.124 139.088 457.633 140.723 456.482C142.358 455.331 144.199 454.543 146.134 454.168C147.441 453.941 148.777 453.983 150.069 454.29C152.628 454.962 155.001 456.261 156.993 458.081C158.978 459.839 160.785 461.81 162.382 463.962C165.553 468.268 168.262 472.929 170.46 477.862H169.975C170.636 476.244 171.846 474.945 173.368 474.217C174.853 473.514 176.473 473.185 178.099 473.257C181.328 473.331 184.478 474.322 187.216 476.124C189.907 477.936 192.336 480.145 194.428 482.686C196.545 485.189 198.442 487.889 200.094 490.754L199.944 490.656L404.443 499.417L199.933 491.033H199.841V490.948C198.195 488.108 196.302 485.436 194.186 482.965C192.113 480.466 189.707 478.297 187.043 476.525C184.368 474.774 181.294 473.817 178.146 473.755C176.593 473.69 175.047 474.01 173.634 474.691C172.24 475.36 171.134 476.551 170.529 478.032L170.298 478.615L170.045 478.056C167.839 473.177 165.13 468.569 161.967 464.314C160.404 462.187 158.633 460.241 156.681 458.506C154.768 456.737 152.487 455.464 150.023 454.788C148.751 454.48 147.433 454.438 146.146 454.666C144.903 454.902 143.696 455.31 142.557 455.882C140.257 457.035 138.307 458.84 136.925 461.094C135.558 463.366 134.611 465.889 134.132 468.53C133.618 471.167 133.436 473.863 133.59 476.55V476.926L133.279 476.744C130.361 474.971 127.057 474.025 123.689 473.998C122.012 474.026 120.362 474.44 118.854 475.213C117.355 475.994 116.048 477.129 115.034 478.53C114.05 479.936 113.531 481.644 113.557 483.39C113.593 485.16 113.953 486.905 114.619 488.53C115.978 491.793 117.855 494.788 120.169 497.388L120.238 497.461H120.146L109.414 499.502Z" fill="#263238"/>
<path d="M245.677 184.16C239.907 184.403 234.137 184.524 228.367 184.621C222.597 184.718 216.827 184.718 211.057 184.767C205.287 184.816 199.517 184.767 193.747 184.621L185.081 184.451C182.196 184.354 179.311 184.293 176.426 184.16C179.311 184.026 182.196 183.965 185.081 183.856L193.747 183.686C199.517 183.588 205.287 183.601 211.057 183.552C216.827 183.503 222.597 183.552 228.367 183.698C234.137 183.844 239.895 183.904 245.677 184.16Z" fill="#263238"/>
<path d="M334.839 40.1394C329.069 40.3824 323.299 40.5039 317.529 40.6011C311.759 40.6984 305.989 40.6862 300.219 40.7348C294.449 40.7834 288.679 40.7348 282.909 40.6011L274.243 40.431C271.358 40.3338 268.473 40.2731 265.576 40.1394C268.473 39.9936 271.346 39.9329 274.243 39.8357L282.909 39.6656C288.679 39.5683 294.449 39.5683 300.219 39.5319C305.989 39.4954 311.759 39.5319 317.529 39.6656C323.299 39.7992 329.057 39.8843 334.839 40.1394Z" fill="#263238"/>
<path d="M343.926 47.5027C340.141 47.7579 336.367 47.8672 332.582 47.9644C328.797 48.0616 325.024 48.0981 321.25 48.1102C317.477 48.1224 313.68 48.1102 309.906 47.9766L304.24 47.8065C302.359 47.6971 300.467 47.6485 298.574 47.5027C300.467 47.3691 302.359 47.3083 304.24 47.2111L309.918 47.041C313.691 46.9316 317.477 46.9073 321.262 46.8952C325.047 46.883 328.82 46.8952 332.594 47.041C336.367 47.1868 340.141 47.2597 343.926 47.5027Z" fill="#263238"/>
<path d="M96.6683 272.652C91.6023 272.895 86.5248 273.016 81.4588 273.113C76.3927 273.211 71.3152 273.211 66.2492 273.259C61.1832 273.308 56.1056 273.259 51.0281 273.113L43.4349 272.943C40.8961 272.846 38.3573 272.785 35.8301 272.652C38.3573 272.518 40.8961 272.457 43.4349 272.348L51.0396 272.178C56.1172 272.081 61.1832 272.093 66.2607 272.044C71.3383 271.996 76.4043 272.044 81.4703 272.19C86.5363 272.336 91.6023 272.409 96.6683 272.652Z" fill="#263238"/>
<path d="M130.197 261.704C125.12 261.947 120.054 262.069 114.976 262.166C109.899 262.263 104.833 262.263 99.7666 262.312C94.7006 262.36 89.623 262.312 84.5455 262.166L76.9407 261.996C74.4019 261.899 71.8747 261.838 69.3359 261.704C71.8747 261.558 74.4019 261.51 76.9407 261.4L84.5455 261.23C89.623 261.133 94.6891 261.145 99.7666 261.097C104.844 261.048 109.91 261.097 114.976 261.23C120.042 261.364 125.12 261.473 130.197 261.704Z" fill="#263238"/>
<path d="M256.07 199.797C247.992 200.052 239.914 200.162 231.837 200.259L207.603 200.405L183.369 200.271L171.275 200.101C167.236 199.992 163.197 199.943 159.17 199.797C163.209 199.664 167.248 199.603 171.275 199.506L183.369 199.336L207.603 199.19L231.837 199.336C239.949 199.433 248.004 199.506 256.07 199.797Z" fill="#263238"/>
<path d="M379.908 477.631C374.069 477.886 368.229 477.995 362.39 478.092C356.551 478.19 350.7 478.19 344.861 478.238C339.022 478.287 333.183 478.238 327.344 478.092L318.573 477.922C315.654 477.825 312.734 477.764 309.814 477.631C312.734 477.497 315.654 477.436 318.573 477.327L327.344 477.157C333.183 477.072 339.022 477.072 344.861 477.023C350.7 476.975 356.551 477.023 362.39 477.169C368.229 477.315 374.069 477.376 379.908 477.631Z" fill="#263238"/>
<path d="M362.937 485.565C354.686 485.82 346.423 485.942 338.172 486.039L313.396 486.173L288.632 486.039L276.249 485.869C272.118 485.772 267.998 485.711 263.867 485.565C267.998 485.431 272.118 485.371 276.249 485.274L288.632 485.103L313.396 484.958L338.172 485.103C346.423 485.201 354.686 485.322 362.937 485.565Z" fill="#263238"/>
<path d="M206.579 190.089C199.655 190.332 192.65 190.454 185.692 190.551C178.733 190.648 171.763 190.636 164.804 190.697C157.846 190.757 150.876 190.697 143.906 190.551L133.462 190.381C130 190.283 126.538 190.223 123.076 190.089C126.538 189.943 130 189.882 133.462 189.785L143.906 189.615C150.83 189.518 157.834 189.53 164.804 189.481C171.774 189.433 178.721 189.481 185.692 189.615C192.662 189.749 199.62 189.785 206.579 190.089Z" fill="#263238"/>
</svg>
