<svg width="500" height="500" viewBox="0 0 500 500" fill="none" xmlns="http://www.w3.org/2000/svg">
<path d="M72.59 317.98H46.11V329.17H72.59V317.98Z" fill="#EBEBEB"/>
<path d="M57.82 332.09H31.34V343.28H57.82V332.09Z" fill="#EBEBEB"/>
<path d="M311.35 246.71H284.87V257.9H311.35V246.71Z" fill="#EBEBEB"/>
<path d="M296.58 260.82H270.1V272.01H296.58V260.82Z" fill="#EBEBEB"/>
<path d="M468.66 332.09H442.18V343.28H468.66V332.09Z" fill="#EBEBEB"/>
<path d="M453.89 113.62H427.41V124.81H453.89V113.62Z" fill="#EBEBEB"/>
<path d="M468.66 127.73H442.18V138.92H468.66V127.73Z" fill="#EBEBEB"/>
<path d="M281.81 246.71H255.33V257.9H281.81V246.71Z" fill="#EBEBEB"/>
<path d="M72.59 113.62H46.11V124.81H72.59V113.62Z" fill="#EBEBEB"/>
<path d="M427.19 104.62H295.5V46.36H427.19V104.62ZM299.5 100.62H423.19V50.36H299.5V100.62Z" fill="#EBEBEB"/>
<path d="M361.79 49.88H357.79V101.09H361.79V49.88Z" fill="#EBEBEB"/>
<path d="M262.25 469.96C358.718 469.96 436.92 462.425 436.92 453.13C436.92 443.835 358.718 436.3 262.25 436.3C165.782 436.3 87.58 443.835 87.58 453.13C87.58 462.425 165.782 469.96 262.25 469.96Z" fill="#EBEBEB"/>
<path d="M46.98 430.13L97.74 429.88L148.49 429.8L250 429.63L351.51 429.8L402.26 429.88L453.01 430.13L402.26 430.37L351.51 430.46L250 430.63L148.49 430.46L97.74 430.37L46.98 430.13Z" fill="#263238"/>
<path d="M104.15 71.3H72.29V246.06H104.15V71.3Z" fill="#A6A6A6"/>
<path d="M186.34 71.3H104.16V246.06H186.34V71.3Z" fill="#DBDBDB"/>
<path d="M183.76 74.11H106.74V243.31H183.76V74.11Z" fill="#C7C7C7"/>
<path d="M183.76 74.11H159.26V243.31H183.76V74.11Z" fill="#A6A6A6"/>
<path d="M230.84 251.1L186.34 246.06V71.3L230.84 66.26V251.1Z" fill="#C7C7C7"/>
<path d="M160.82 125.97H119.68V174.31H160.82V125.97Z" fill="#DBDBDB"/>
<path d="M124.38 125.97H119.68V174.31H124.38V125.97Z" fill="#A6A6A6"/>
<path d="M129.89 130C129.892 130.285 129.809 130.565 129.652 130.803C129.495 131.041 129.271 131.227 129.008 131.337C128.745 131.448 128.455 131.478 128.175 131.424C127.895 131.369 127.638 131.233 127.435 131.032C127.233 130.831 127.095 130.574 127.038 130.295C126.982 130.015 127.01 129.725 127.119 129.461C127.227 129.198 127.412 128.972 127.649 128.813C127.886 128.655 128.165 128.57 128.45 128.57C128.639 128.569 128.826 128.605 129 128.676C129.175 128.747 129.334 128.852 129.468 128.985C129.601 129.118 129.708 129.276 129.78 129.45C129.853 129.625 129.89 129.811 129.89 130Z" fill="#C7C7C7"/>
<path d="M128.45 171.75C129.245 171.75 129.89 171.105 129.89 170.31C129.89 169.515 129.245 168.87 128.45 168.87C127.655 168.87 127.01 169.515 127.01 170.31C127.01 171.105 127.655 171.75 128.45 171.75Z" fill="#C7C7C7"/>
<path d="M158.36 130C158.362 130.285 158.279 130.565 158.122 130.803C157.965 131.041 157.741 131.227 157.478 131.337C157.215 131.448 156.925 131.478 156.645 131.424C156.365 131.369 156.108 131.233 155.905 131.032C155.703 130.831 155.565 130.574 155.508 130.295C155.452 130.015 155.48 129.725 155.589 129.461C155.697 129.198 155.882 128.972 156.119 128.813C156.356 128.655 156.635 128.57 156.92 128.57C157.109 128.569 157.296 128.605 157.47 128.676C157.645 128.747 157.804 128.852 157.938 128.985C158.071 129.118 158.178 129.276 158.25 129.45C158.323 129.625 158.36 129.811 158.36 130Z" fill="#C7C7C7"/>
<path d="M158.36 170.31C158.36 170.595 158.276 170.873 158.117 171.11C157.959 171.347 157.734 171.531 157.471 171.64C157.208 171.749 156.918 171.778 156.639 171.722C156.36 171.667 156.103 171.53 155.902 171.328C155.7 171.127 155.563 170.87 155.508 170.591C155.452 170.312 155.481 170.022 155.59 169.759C155.699 169.496 155.883 169.271 156.12 169.113C156.357 168.954 156.635 168.87 156.92 168.87C157.109 168.869 157.297 168.905 157.473 168.977C157.648 169.049 157.807 169.155 157.941 169.289C158.075 169.423 158.181 169.582 158.253 169.757C158.325 169.933 158.361 170.121 158.36 170.31Z" fill="#C7C7C7"/>
<path d="M131.71 137.71C131.71 138.175 131.572 138.63 131.313 139.017C131.055 139.403 130.687 139.705 130.257 139.882C129.827 140.06 129.354 140.106 128.898 140.014C128.442 139.923 128.023 139.698 127.695 139.368C127.366 139.038 127.143 138.619 127.054 138.162C126.964 137.706 127.012 137.233 127.192 136.804C127.371 136.375 127.674 136.008 128.062 135.751C128.449 135.494 128.905 135.358 129.37 135.36C129.991 135.363 130.587 135.611 131.025 136.052C131.464 136.492 131.71 137.088 131.71 137.71Z" fill="#263238"/>
<path d="M131.71 145.82C131.71 146.285 131.572 146.74 131.313 147.127C131.055 147.513 130.687 147.814 130.257 147.992C129.827 148.17 129.354 148.216 128.898 148.124C128.442 148.033 128.023 147.808 127.695 147.478C127.366 147.148 127.143 146.729 127.054 146.272C126.964 145.816 127.012 145.343 127.192 144.914C127.371 144.485 127.674 144.118 128.062 143.861C128.449 143.604 128.905 143.468 129.37 143.47C129.678 143.47 129.983 143.531 130.268 143.649C130.552 143.767 130.811 143.941 131.028 144.159C131.246 144.377 131.418 144.636 131.535 144.921C131.652 145.206 131.711 145.512 131.71 145.82Z" fill="#263238"/>
<path d="M124.94 239.17C124.14 224.41 128.64 194.56 131.62 174.81C132.98 165.75 134.06 158.59 134.16 156.01C134.46 148.55 129.29 146.84 129.07 146.77L129.65 144.86C129.72 144.86 136.52 147.03 136.16 156.09C136.05 158.78 134.97 165.99 133.59 175.09C130.59 194.77 126.15 224.49 126.94 239.09L124.94 239.17Z" fill="#DD6A57"/>
<path d="M128.89 239.21C127.81 228.13 130.64 209.93 133.36 192.33C136.28 173.54 139.29 154.11 136.89 146.1C134.89 139.45 129.48 138.73 129.25 138.7L129.47 136.7C129.76 136.7 136.42 137.55 138.8 145.51C141.33 153.95 138.42 172.73 135.34 192.61C132.63 210.09 129.83 228.16 130.88 239L128.89 239.21Z" fill="#455A64"/>
<path d="M154.86 174.31H150.32V243.31H154.86V174.31Z" fill="#FFC727"/>
<path d="M149.81 74.11H145.27V125.97H149.81V74.11Z" fill="white"/>
<path d="M141.18 239.12H118.04V243.31H141.18V239.12Z" fill="#DBDBDB"/>
<path d="M134.66 0H124.57V71.3H134.66V0Z" fill="#263238"/>
<path d="M144.7 71.3H148.04V-1.52588e-05H144.7V71.3Z" fill="#263238"/>
<path d="M152.59 71.3H155.93V-1.52588e-05H152.59V71.3Z" fill="#263238"/>
<path d="M139.13 325.68C139.13 327.33 138.13 328.68 136.95 328.68C135.77 328.68 134.77 327.34 134.77 325.68C134.77 324.02 135.77 322.68 136.95 322.68C138.13 322.68 139.13 324 139.13 325.68Z" fill="#A6A6A6"/>
<path d="M144.7 317.36H148.04V246.06H144.7V317.36Z" fill="#263238"/>
<path d="M144.71 317.36H148.05L136.56 327.02V324.31L144.71 317.36Z" fill="#263238"/>
<path d="M132.13 246.06H127.09V327.45H132.13V246.06Z" fill="#C7C7C7"/>
<path d="M119.97 337.5C121.174 337.5 122.15 336.161 122.15 334.51C122.15 332.859 121.174 331.52 119.97 331.52C118.766 331.52 117.79 332.859 117.79 334.51C117.79 336.161 118.766 337.5 119.97 337.5Z" fill="#A6A6A6"/>
<path d="M127.09 327.45H132.13L119.57 336.45V332.77L127.09 327.45Z" fill="#C7C7C7"/>
<path d="M146.62 325.68C146.62 327.33 145.62 328.68 144.44 328.68C143.26 328.68 142.26 327.34 142.26 325.68C142.26 324.02 143.26 322.68 144.44 322.68C145.62 322.68 146.62 324 146.62 325.68Z" fill="#A6A6A6"/>
<path d="M152.59 317.36H155.93V246.06H152.59V317.36Z" fill="#263238"/>
<path d="M152.59 317.36H155.93L144.44 327.02V324.31L152.59 317.36Z" fill="#263238"/>
<path d="M280.43 322.79C277.04 319.46 272.65 315.44 267.43 316.88C262.54 318.23 260.67 323.56 259.8 328C258.67 333.72 257.8 339.5 256.89 345.27C255.98 351.04 255.11 356.92 254.27 362.75C253.803 366.043 253.337 369.333 252.87 372.62L252.18 377.56C251.96 379.18 251.69 380.79 251.6 382.42C251.6 382.94 252.38 383.02 252.5 382.52C253.13 379.78 253.39 376.92 253.79 374.13C254.19 371.34 254.6 368.53 255.01 365.72C255.83 360.16 256.663 354.597 257.51 349.03C258.357 343.463 259.22 337.9 260.1 332.34C260.86 327.63 261.21 321.77 265.39 318.66C266.523 317.882 267.836 317.405 269.204 317.276C270.572 317.146 271.951 317.368 273.21 317.92C275.96 318.97 278.15 320.92 280.31 322.92C280.4 323 280.5 322.85 280.43 322.79Z" fill="#263238"/>
<path d="M275.79 319.39C275.79 319.39 268.79 316.89 265.42 321.96C262.05 327.03 266.09 339.96 297.69 347.18C296.767 337.3 294.198 327.643 290.09 318.61C283.31 303.83 271.24 309.43 275.79 319.39Z" fill="#FFC727"/>
<path d="M295.88 345.07C295.4 344.183 294.869 343.325 294.29 342.5C293.76 341.69 293.23 340.88 292.68 340.07C292.28 339.46 291.86 338.86 291.45 338.26C291.45 338.12 291.45 337.96 291.51 337.81C291.57 337.66 291.58 337.26 291.61 336.99C291.69 336.4 291.78 335.81 291.87 335.21C291.96 334.61 292.05 334.04 292.16 333.45C292.238 332.818 292.379 332.195 292.58 331.59C292.58 331.5 292.45 331.45 292.44 331.59C292.371 331.946 292.278 332.297 292.16 332.64C292.08 332.9 292.01 333.17 291.95 333.43C291.79 334.03 291.65 334.64 291.51 335.24C291.37 335.84 291.28 336.36 291.19 336.92C291.14 337.19 291.1 337.46 291.06 337.73C290.5 336.92 289.93 336.13 289.33 335.35C287.65 333.14 285.88 331.01 284.04 328.93C284.21 325.61 284.13 322.32 284.86 319.05C284.86 318.96 284.75 318.91 284.73 319C283.895 322.079 283.498 325.26 283.55 328.45L281.55 326.26C280.01 324.607 278.44 322.98 276.84 321.38C276.77 321.32 276.67 321.38 276.74 321.48C279.4 324.35 281.93 327.33 284.39 330.37C282.461 330.338 280.531 330.412 278.61 330.59C276.47 330.74 274.34 331.02 272.21 331.31C272.12 331.31 272.15 331.47 272.21 331.45C274.329 331.15 276.462 330.96 278.6 330.88C280.66 330.79 282.71 330.88 284.77 330.88C286.103 332.527 287.42 334.193 288.72 335.88H287C286 335.88 285.08 335.96 284.12 336.04C282.159 336.2 280.212 336.49 278.29 336.91C278.2 336.91 278.22 337.07 278.29 337.05C280.23 336.84 282.17 336.65 284.13 336.58C285.06 336.58 285.99 336.58 286.92 336.58H288.38C288.646 336.611 288.916 336.584 289.17 336.5L291.72 339.82C292.387 340.7 293.053 341.59 293.72 342.49C294.38 343.41 294.98 344.41 295.72 345.27C295.747 345.291 295.78 345.301 295.814 345.297C295.848 345.294 295.879 345.277 295.9 345.25C295.921 345.223 295.931 345.19 295.927 345.156C295.924 345.122 295.907 345.091 295.88 345.07Z" fill="#263238"/>
<path d="M278.81 326.57C277.69 326.423 276.559 326.367 275.43 326.4C274.3 326.4 273.17 326.4 272.05 326.48C272.031 326.48 272.014 326.487 272 326.5C271.987 326.514 271.98 326.531 271.98 326.55C271.98 326.569 271.987 326.586 272 326.599C272.014 326.613 272.031 326.62 272.05 326.62C273.2 326.53 274.34 326.51 275.49 326.53C276.64 326.55 277.7 326.65 278.81 326.62C278.84 326.62 278.85 326.57 278.81 326.57Z" fill="#263238"/>
<path d="M288.73 329.11C288.86 328.04 288.99 326.95 289.22 325.89C289.224 325.879 289.226 325.868 289.225 325.857C289.223 325.845 289.219 325.834 289.213 325.825C289.207 325.815 289.198 325.808 289.188 325.802C289.178 325.797 289.166 325.794 289.155 325.794C289.144 325.794 289.132 325.797 289.122 325.802C289.112 325.808 289.103 325.815 289.097 325.825C289.091 325.834 289.087 325.845 289.085 325.857C289.084 325.868 289.086 325.879 289.09 325.89C288.92 326.95 288.72 328.01 288.56 329.07C288.48 329.6 288.41 330.13 288.34 330.67C288.247 331.168 288.203 331.674 288.21 332.18C288.217 332.2 288.229 332.217 288.246 332.23C288.263 332.242 288.284 332.249 288.305 332.249C288.326 332.249 288.347 332.242 288.364 332.23C288.381 332.217 288.393 332.2 288.4 332.18C288.499 331.683 288.552 331.177 288.56 330.67C288.61 330.14 288.67 329.63 288.73 329.11Z" fill="#263238"/>
<path d="M286.65 317.15C286.37 318.21 286.1 319.27 285.91 320.34C285.81 320.88 285.72 321.43 285.65 321.97C285.553 322.498 285.516 323.034 285.54 323.57C285.54 323.57 285.61 323.57 285.63 323.57C285.755 323.071 285.838 322.563 285.88 322.05C285.95 321.53 286.03 321 286.12 320.48C286.31 319.38 286.51 318.29 286.78 317.2C286.81 317.11 286.67 317.07 286.65 317.15Z" fill="#263238"/>
<path d="M245.49 381.26C245.317 379.26 245.127 377.26 244.92 375.26C244.5 371.32 244.023 367.39 243.49 363.47C242.97 359.56 242.49 355.64 241.84 351.74C241.604 349.933 241.199 348.152 240.63 346.42C240.429 345.675 240.058 344.987 239.546 344.409C239.034 343.831 238.395 343.38 237.68 343.09C233.96 341.8 231.45 345.66 229.95 348.39C229.95 348.47 230.03 348.53 230.08 348.46C230.98 347.16 233.46 343.54 236.28 343.71C238.18 343.82 239.7 345.16 240.61 349.9C242.88 361.69 244.93 385.62 245.16 387.19C245.29 388.02 245.88 387.98 245.88 387.09C245.89 385.16 245.67 383.2 245.49 381.26Z" fill="#263238"/>
<path d="M231 347C231 347 234.25 335.52 227.07 341.26C215.07 350.82 214.68 371.59 214.68 371.59C214.68 371.59 235.95 359.24 238.59 351.1C242.48 338.92 231 347 231 347Z" fill="#FFC727"/>
<path d="M235 352.58C233.33 352.92 231.64 353.14 230 353.39L227.61 353.72C227.07 353.8 226.53 353.85 225.98 353.92C227.57 351.73 229.16 349.56 230.68 347.33C230.74 347.25 230.61 347.16 230.54 347.23C229.283 348.531 228.098 349.9 226.99 351.33C226.68 350.44 226.36 349.55 226.05 348.67C225.68 347.67 225.3 346.62 225.05 345.56C225.054 345.549 225.056 345.538 225.055 345.527C225.053 345.515 225.049 345.504 225.043 345.495C225.037 345.485 225.028 345.478 225.018 345.472C225.008 345.467 224.996 345.464 224.985 345.464C224.974 345.464 224.962 345.467 224.952 345.472C224.942 345.478 224.933 345.485 224.927 345.495C224.921 345.504 224.917 345.515 224.915 345.527C224.914 345.538 224.916 345.549 224.92 345.56C225.21 346.56 225.41 347.68 225.69 348.74C225.97 349.8 226.28 350.74 226.69 351.74C225.91 352.74 225.16 353.74 224.44 354.84C224.07 353.84 223.62 352.84 223.29 351.74C223.29 351.66 223.13 351.74 223.16 351.74C223.54 352.91 223.74 354.12 224.1 355.29C223.61 356 223.1 356.72 222.66 357.44C221.8 358.76 220.99 360.11 220.2 361.44C220.14 361.468 220.089 361.514 220.056 361.571C220.022 361.628 220.006 361.694 220.01 361.76C218.67 364.08 217.39 366.44 216.13 368.82C216.121 368.837 216.119 368.857 216.124 368.876C216.13 368.895 216.143 368.911 216.16 368.92C216.177 368.929 216.197 368.931 216.216 368.926C216.235 368.92 216.251 368.907 216.26 368.89C217.52 366.54 218.92 364.25 220.38 362C220.586 361.978 220.794 361.978 221 362L221.74 361.85C222.29 361.73 222.83 361.58 223.38 361.45C224.46 361.18 225.52 360.93 226.62 360.74C226.71 360.74 226.67 360.58 226.62 360.6C225.33 360.85 224.04 360.99 222.74 361.14C222.13 361.21 221.51 361.29 220.9 361.39H220.81C221.58 360.23 222.35 359.08 223.14 357.94C223.93 356.8 224.7 355.71 225.5 354.61C226.24 354.5 226.97 354.31 227.7 354.17L230.17 353.69C231.82 353.36 233.45 353 235.11 352.69C235.11 352.71 235.07 352.57 235 352.58Z" fill="#263238"/>
<path d="M222.2 353.72L221.91 352.8C221.715 352.169 221.555 351.528 221.43 350.88C221.43 350.79 221.27 350.83 221.29 350.88C221.43 351.53 221.58 352.17 221.73 352.82C221.864 353.47 222.048 354.108 222.28 354.73C222.291 354.763 222.314 354.791 222.345 354.807C222.376 354.823 222.412 354.826 222.445 354.815C222.478 354.804 222.506 354.781 222.522 354.75C222.538 354.719 222.541 354.683 222.53 354.65C222.44 354.36 222.31 354 222.2 353.72Z" fill="#263238"/>
<path d="M237.15 349.93C236.15 350.07 235.21 350.14 234.23 350.23C233.25 350.32 232.28 350.45 231.31 350.59C231.25 350.59 231.25 350.68 231.31 350.68C232.31 350.61 233.26 350.54 234.23 350.41C235.2 350.28 236.23 350.14 237.16 350.07C237.25 350.06 237.24 349.91 237.15 349.93Z" fill="#263238"/>
<path d="M261.14 366.73C260.76 358.28 260.23 349.84 259.38 341.42C258.96 337.23 258.48 333.04 257.89 328.87C257.364 324.772 256.556 320.716 255.47 316.73C254.736 313.63 253.375 310.713 251.47 308.16C250.522 306.921 249.275 305.944 247.846 305.319C246.417 304.695 244.853 304.444 243.3 304.59C239.6 305.05 236.62 307.38 234.05 309.91C231.16 312.75 228.51 315.85 225.83 318.91L223.83 321.23C223.77 321.3 223.83 321.4 223.93 321.33C226.55 318.33 229.27 315.4 232.11 312.61C234.74 310.03 237.45 307.21 241.11 306.14C242.803 305.601 244.614 305.56 246.33 306.02C247.692 306.454 248.918 307.232 249.89 308.28C251.824 310.529 253.195 313.206 253.89 316.09C256.16 323.86 256.98 332 257.82 340.02C258.66 348.04 259.26 356.34 259.67 364.53C260.08 372.72 260.4 380.99 261.19 389.19C261.29 390.19 261.42 391.19 261.55 392.19C261.63 392.87 262.69 392.87 262.63 392.19C261.91 383.7 261.52 375.22 261.14 366.73Z" fill="#263238"/>
<path d="M233.54 310.83C233.54 310.83 238.37 301.9 232.66 299.03C226.95 296.16 207.88 317.47 202.31 348.62C202.31 348.62 233.13 334.98 243.59 321.39C254.05 307.8 242.19 304.81 233.54 310.83Z" fill="#FFC727"/>
<path d="M238.07 318.09C234.61 318.09 231.15 317.83 227.69 317.85L229.64 315.62C230.61 314.633 231.515 313.584 232.35 312.48C232.4 312.41 232.29 312.3 232.22 312.36C231.282 313.174 230.407 314.056 229.6 315C228.73 315.92 227.87 316.84 227.01 317.77C225.677 319.21 224.373 320.66 223.1 322.12C223.1 321.98 223.1 321.84 223.1 321.7C223.1 321.09 223.1 320.49 223.1 319.88C223.1 318.71 223.1 317.53 223.1 316.36C223.1 313.98 223.1 311.58 223.28 309.21C223.28 309.11 223.15 309.12 223.14 309.21C222.97 311.6 222.73 313.98 222.61 316.37C222.55 317.54 222.52 318.72 222.51 319.9C222.51 320.5 222.51 321.11 222.51 321.71C222.51 322.04 222.51 322.39 222.51 322.71L221.9 323.38C219.14 326.54 216.51 329.81 213.9 333.14C213.91 332.954 213.91 332.767 213.9 332.58C213.9 332.22 213.82 331.85 213.78 331.48C213.69 330.69 213.58 329.9 213.47 329.11C213.36 328.32 213.24 327.62 213.11 326.88C212.98 326.14 212.77 325.21 212.7 324.36C212.7 324.26 212.54 324.28 212.57 324.36C212.714 325.197 212.807 326.042 212.85 326.89C212.93 327.65 213 328.42 213.07 329.18C213.14 329.94 213.2 330.7 213.28 331.47C213.28 331.83 213.35 332.2 213.39 332.57C213.39 332.75 213.39 332.93 213.46 333.12C213.474 333.273 213.525 333.421 213.61 333.55L212.29 335.27C210.54 337.59 208.83 339.92 207.11 342.27C207.11 342.34 207.16 342.44 207.21 342.37C208.84 340.25 210.51 338.17 212.21 336.11C213.47 336.16 214.77 336.11 216.04 336.05C217.31 335.99 218.71 336.05 220.04 336.05C220.13 336.05 220.12 335.91 220.04 335.91H216.04C214.82 335.91 213.58 335.85 212.36 335.91C213.85 334.1 215.36 332.3 216.87 330.5L218.52 328.5C219.035 328.56 219.555 328.56 220.07 328.5H221.89C223.03 328.5 224.17 328.5 225.31 328.5C227.66 328.5 230.01 328.39 232.37 328.38C232.46 328.38 232.45 328.24 232.37 328.24C230.02 328.24 227.66 328.11 225.31 328.05C224.17 328.05 223.03 327.98 221.89 327.97H220.07C219.72 327.97 219.36 327.97 219.01 327.97L222.9 323.37C222.93 323.351 222.955 323.323 222.97 323.29C224.23 321.8 225.49 320.29 226.77 318.83L227.3 318.23C230.89 318.34 234.48 318.1 238.07 318.17C238.17 318.24 238.16 318.09 238.07 318.09Z" fill="#263238"/>
<path d="M236.3 324.21H235.46C235.447 324.215 235.436 324.224 235.428 324.236C235.42 324.247 235.416 324.261 235.416 324.275C235.416 324.289 235.42 324.303 235.428 324.314C235.436 324.326 235.447 324.335 235.46 324.34H236.3C236.4 324.36 236.39 324.21 236.3 324.21Z" fill="#263238"/>
<path d="M234.44 324.22C233.33 324.22 232.22 324.22 231.11 324.15H229.44C228.925 324.085 228.405 324.085 227.89 324.15C227.89 324.15 227.89 324.24 227.89 324.25C228.399 324.357 228.921 324.394 229.44 324.36H231.1H234.43C234.53 324.37 234.53 324.23 234.44 324.22Z" fill="#263238"/>
<path d="M224.75 334.63C222.495 334.254 220.216 334.047 217.93 334.01V334.06C220.2 334.28 222.46 334.4 224.71 334.76C224.8 334.78 224.84 334.64 224.75 334.63Z" fill="#263238"/>
<path d="M215.48 324.71C215.48 324.51 215.48 324.31 215.41 324.12C215.35 323.67 215.28 323.23 215.21 322.78C215.08 321.94 214.93 321.09 214.77 320.25C214.77 320.17 214.62 320.19 214.63 320.25C214.74 321.12 214.83 321.99 214.91 322.87C214.91 323.3 214.98 323.73 215.02 324.16C215.01 324.574 215.07 324.987 215.2 325.38C215.26 325.51 215.46 325.46 215.49 325.38C215.536 325.159 215.532 324.93 215.48 324.71Z" fill="#263238"/>
<path d="M260.84 299.36C259.73 297.31 258.33 294.59 255.58 294.77C253.3 294.91 252.28 297.23 251.79 299.15C250.29 305.08 250.19 311.33 249.89 317.41C249.28 330.26 248.72 343.12 248.64 355.98C248.64 359.54 248.64 363.107 248.64 366.68C248.64 370.31 248.64 373.97 248.9 377.6C248.912 377.661 248.945 377.717 248.993 377.757C249.042 377.797 249.102 377.818 249.165 377.818C249.228 377.818 249.288 377.797 249.337 377.757C249.385 377.717 249.418 377.661 249.43 377.6C249.43 374.5 249.34 371.38 249.33 368.27C249.32 365.16 249.33 362.2 249.39 359.17C249.49 353.023 249.653 346.877 249.88 340.73C250.11 334.62 250.38 328.52 250.63 322.41C250.757 319.357 250.89 316.307 251.03 313.26C251.16 310.26 251.29 307.34 251.63 304.4C251.82 302.76 252.06 301.11 252.41 299.49C252.577 298.282 253.067 297.142 253.83 296.19C254.355 295.677 255.045 295.367 255.777 295.314C256.509 295.261 257.236 295.469 257.83 295.9C259.081 296.807 260.065 298.033 260.68 299.45C260.76 299.52 260.88 299.44 260.84 299.36Z" fill="#263238"/>
<path d="M260.09 298.38C260.09 298.38 257.83 290.38 262.83 294.38C271.16 301.04 271.46 315.51 271.46 315.51C271.46 315.51 256.65 306.91 254.81 301.23C252.07 292.78 260.09 298.38 260.09 298.38Z" fill="#FFC727"/>
<path d="M268.34 309.58C268.21 309.36 268.06 309.14 267.92 308.92C267.94 308.694 267.94 308.466 267.92 308.24C267.92 307.9 267.92 307.55 267.92 307.24C267.92 306.56 267.92 305.89 267.99 305.24C267.99 305.221 267.983 305.204 267.969 305.191C267.956 305.177 267.939 305.17 267.92 305.17C267.901 305.17 267.884 305.177 267.87 305.191C267.857 305.204 267.85 305.221 267.85 305.24C267.85 305.9 267.79 306.56 267.77 307.24C267.77 307.57 267.77 307.91 267.77 308.24C267.77 308.37 267.77 308.52 267.77 308.66C267.19 307.76 266.6 306.87 265.98 305.99C265.8 305.73 265.61 305.49 265.43 305.23C265.338 304.363 265.322 303.49 265.38 302.62C265.38 301.69 265.38 300.77 265.44 299.84C265.44 299.821 265.433 299.804 265.419 299.791C265.406 299.777 265.389 299.77 265.37 299.77C265.351 299.77 265.334 299.777 265.32 299.791C265.307 299.804 265.3 299.821 265.3 299.84C265.3 300.84 265.22 301.77 265.17 302.74C265.118 303.429 265.102 304.12 265.12 304.81C263.69 302.86 262.17 300.99 260.63 299.12C260.58 299.06 260.47 299.12 260.52 299.21C261.52 300.41 262.39 301.65 263.28 302.9C261.54 302.49 259.77 302.26 257.99 302C257.9 302 257.87 302.13 257.99 302.14C259.86 302.42 261.7 302.89 263.56 303.3C264.27 304.3 264.97 305.3 265.67 306.3L266.51 307.53H266.43L265.85 307.45L264.62 307.34C263.77 307.27 262.91 307.23 262.06 307.18C261.97 307.18 261.97 307.32 262.06 307.33C262.9 307.33 263.74 307.41 264.58 307.5L265.9 307.66L266.48 307.73H266.65L268.07 309.83C268.91 311.07 269.66 312.39 270.55 313.59C270.6 313.66 270.7 313.59 270.67 313.51C269.969 312.156 269.191 310.844 268.34 309.58Z" fill="#263238"/>
<path d="M264.66 300.55V299.61C264.64 298.942 264.667 298.274 264.74 297.61C264.74 297.591 264.733 297.574 264.719 297.561C264.706 297.547 264.689 297.54 264.67 297.54C264.651 297.54 264.634 297.547 264.621 297.561C264.607 297.574 264.6 297.591 264.6 297.61C264.6 298.26 264.53 298.9 264.5 299.55C264.5 299.87 264.5 300.2 264.5 300.55V301C264.47 301.152 264.47 301.308 264.5 301.46C264.5 301.476 264.506 301.491 264.518 301.502C264.529 301.514 264.544 301.52 264.56 301.52C264.576 301.52 264.591 301.514 264.602 301.502C264.614 301.491 264.62 301.476 264.62 301.46C264.64 301.317 264.64 301.173 264.62 301.03L264.66 300.55Z" fill="#263238"/>
<path d="M262.83 303.86C262.273 303.774 261.713 303.717 261.15 303.69C260.54 303.64 259.93 303.58 259.32 303.5C259.301 303.5 259.284 303.507 259.271 303.521C259.257 303.534 259.25 303.551 259.25 303.57C259.25 303.589 259.257 303.606 259.271 303.62C259.284 303.633 259.301 303.64 259.32 303.64C260.49 303.72 261.65 303.93 262.82 303.97C262.88 304 262.89 303.87 262.83 303.86Z" fill="#263238"/>
<path d="M261.18 342C258.07 339.66 255.27 336.3 251.08 336.13C247.62 336 245.2 338.6 243.81 341.5C243.114 343.04 242.548 344.635 242.12 346.27C241.493 348.463 240.903 350.663 240.35 352.87C239.27 357.21 238.35 361.6 237.58 366.01C237.16 368.47 236.77 370.94 236.46 373.41C236.057 375.919 235.814 378.45 235.73 380.99C235.729 381.086 235.764 381.179 235.828 381.251C235.891 381.323 235.979 381.369 236.075 381.38C236.17 381.391 236.266 381.366 236.345 381.311C236.423 381.256 236.478 381.174 236.5 381.08C236.92 379.01 237.1 376.87 237.41 374.78C237.72 372.69 238.03 370.57 238.41 368.47C239.117 364.283 239.943 360.11 240.89 355.95C241.78 352.03 242.66 348.05 243.89 344.23C244.8 341.5 246.25 338.31 249.21 337.32C253.7 335.83 257.78 339.63 261.07 342.1C261.16 342.17 261.26 342.07 261.18 342Z" fill="#263238"/>
<path d="M258 339.78C258 339.78 255.13 331.58 259.28 329.97C265.5 327.56 281.79 345.91 278.6 373.97C278.6 373.97 266.02 367.04 256.73 359.24C247.44 351.44 245.05 341.24 249.15 338.62C253.25 336 258 339.78 258 339.78Z" fill="#FFC727"/>
<path d="M276.68 368C276.248 367.02 275.744 366.074 275.17 365.17C274.64 364.17 274.1 363.25 273.54 362.3C272.46 360.45 271.39 358.6 270.28 356.76L269.73 355.87C269.73 355.76 269.73 355.65 269.8 355.54L269.99 354.73C270.13 354.12 270.23 353.51 270.35 352.89C270.57 351.69 270.78 350.47 271.11 349.29C271.11 349.2 270.98 349.17 270.97 349.29C270.71 350.5 270.33 351.68 269.97 352.86C269.8 353.43 269.61 354.01 269.46 354.6C269.46 354.8 269.35 355 269.3 355.2C267.96 353.01 266.6 350.82 265.14 348.71C265.234 348.419 265.281 348.116 265.28 347.81C265.28 347.4 265.37 346.99 265.42 346.58C265.53 345.66 265.64 344.73 265.77 343.81C266.04 342 266.31 340.2 266.77 338.42C266.77 338.33 266.65 338.31 266.63 338.42C266.18 340.19 265.69 341.96 265.36 343.75C265.19 344.63 265.04 345.52 264.92 346.4C264.86 346.85 264.81 347.3 264.77 347.74C264.77 347.87 264.77 348.01 264.72 348.14C264.26 347.51 263.81 346.87 263.34 346.25C261.9 344.36 260.41 342.51 258.91 340.67C258.85 340.6 258.74 340.67 258.79 340.75C261.357 344.016 263.719 347.44 265.86 351L267.09 353H266.68C266.15 352.93 265.62 352.9 265.09 352.85C264.03 352.75 262.98 352.65 261.92 352.57C259.8 352.4 257.67 352.27 255.55 352.05C255.46 352.05 255.44 352.18 255.55 352.19C257.69 352.43 259.83 352.77 261.96 353.08L265.11 353.5C265.909 353.665 266.724 353.749 267.54 353.75L270.04 357.81C269.854 357.795 269.666 357.795 269.48 357.81H266.48C265.11 357.81 263.75 357.81 262.38 357.81C262.29 357.81 262.3 357.95 262.38 357.95C263.77 357.95 265.15 358.04 266.53 358.11L268.53 358.23L269.53 358.3C269.814 358.36 270.107 358.36 270.39 358.3L272.52 361.75C273.17 362.81 273.83 363.87 274.52 364.92C275.149 366.041 275.861 367.114 276.65 368.13C276.6 368.13 276.72 368.08 276.68 368Z" fill="#263238"/>
<path d="M270.69 345.28C270.563 346.182 270.373 347.075 270.12 347.95C269.89 348.86 269.63 349.76 269.33 350.65C269.326 350.661 269.324 350.673 269.325 350.685C269.326 350.697 269.329 350.708 269.334 350.719C269.339 350.73 269.346 350.739 269.355 350.747C269.364 350.755 269.374 350.761 269.385 350.765C269.396 350.769 269.408 350.771 269.42 350.77C269.432 350.769 269.443 350.766 269.454 350.761C269.465 350.756 269.474 350.749 269.482 350.74C269.49 350.731 269.496 350.721 269.5 350.71C269.78 349.82 270.03 348.93 270.25 348.03C270.47 347.13 270.61 346.2 270.83 345.3C270.831 345.291 270.831 345.281 270.828 345.272C270.826 345.263 270.822 345.255 270.817 345.248C270.805 345.233 270.789 345.223 270.77 345.22C270.751 345.217 270.733 345.222 270.718 345.233C270.703 345.245 270.693 345.261 270.69 345.28Z" fill="#263238"/>
<path d="M261.44 350.77C261.248 350.604 261.004 350.512 260.75 350.51L259.57 350.35L257.35 350.08C255.82 349.9 254.28 349.75 252.75 349.56C252.66 349.56 252.64 349.69 252.75 349.7C254.19 349.87 255.63 350.09 257.08 350.28C257.78 350.38 258.49 350.48 259.2 350.56L260.2 350.67C260.599 350.67 260.994 350.737 261.37 350.87C261.44 350.91 261.49 350.82 261.44 350.77Z" fill="#263238"/>
<path d="M270.66 363.13C269.94 363.07 269.21 363.04 268.49 363.02H267.39H266.86C266.631 363.045 266.399 363.045 266.17 363.02C266.07 363.02 266.06 363.18 266.17 363.16C266.383 363.14 266.597 363.14 266.81 363.16H267.38L268.48 363.22C269.2 363.27 269.93 363.31 270.66 363.31C270.75 363.28 270.75 363.14 270.66 363.13Z" fill="#263238"/>
<path d="M275.1 360L275.34 358.77C275.49 357.96 275.64 357.15 275.78 356.34C275.78 356.321 275.773 356.304 275.759 356.29C275.746 356.277 275.729 356.27 275.71 356.27C275.691 356.27 275.674 356.277 275.66 356.29C275.647 356.304 275.64 356.321 275.64 356.34C275.47 357.13 275.29 357.92 275.11 358.71C275.02 359.1 274.93 359.5 274.85 359.89C274.85 360.08 274.77 360.26 274.74 360.44C274.682 360.628 274.659 360.824 274.67 361.02C274.67 361.09 274.78 361.14 274.83 361.02C274.98 360.699 275.071 360.353 275.1 360Z" fill="#263238"/>
<path d="M273.43 384.21L272.73 395.83L270.66 430.13H228.25L226.18 395.83L225.48 384.21H273.43Z" fill="#455A64"/>
<path d="M273.43 384.21L272.73 395.83H226.18L225.48 384.21H273.43Z" fill="#263238"/>
<path d="M276.67 375.99H222.23V387.62H276.67V375.99Z" fill="#455A64"/>
<path d="M337.8 385.13C337.8 385.13 337.8 429.89 337.8 429.92C337.8 438.48 337.73 445.99 337.31 449.87C337.315 449.89 337.315 449.91 337.31 449.93C337.309 450.849 337.097 451.756 336.69 452.58L336.64 452.63C334.1 454.37 265.7 456.71 263.29 455.99C260.88 455.27 262.74 448.33 265.29 446.13C267.84 443.93 293.66 431.31 293.66 431.31L294.1 386.56L337.8 385.13Z" fill="#EB9481"/>
<path d="M337.79 420.73V429.92C337.79 438.48 337.72 445.99 337.3 449.87C337.305 449.89 337.305 449.91 337.3 449.93C337.201 450.835 336.992 451.725 336.68 452.58L336.63 452.63C334.09 454.37 265.69 456.71 263.28 455.99C260.87 455.27 262.73 448.33 265.28 446.13C267.83 443.93 293.65 431.31 293.65 431.31L293.53 421.98L337.79 420.73Z" fill="white"/>
<path d="M263.27 456C265.69 456.72 334.08 454.38 336.62 452.64C337.62 451.99 337.84 442.01 337.79 429.93C337.79 429.81 337.79 429.68 337.79 429.56L293.65 430.56V431.31C293.65 431.31 267.87 443.92 265.28 446.13C262.69 448.34 260.85 455.28 263.27 456Z" fill="#FFC727"/>
<path d="M264 453.31C275.52 452.64 322.05 450.99 333.49 451.19C333.58 451.19 333.58 451.26 333.49 451.27C322.09 452.19 275.55 453.46 264.01 453.5C263.72 453.5 263.71 453.33 264 453.31Z" fill="#263238"/>
<path d="M290 431.57C294.51 430.57 300.08 431.08 303.66 434.19C303.8 434.31 303.66 434.51 303.47 434.46C299.075 433.21 294.56 432.432 290 432.14C289.933 432.128 289.874 432.092 289.83 432.04C289.787 431.988 289.764 431.923 289.764 431.855C289.764 431.787 289.787 431.722 289.83 431.67C289.874 431.618 289.933 431.582 290 431.57Z" fill="#263238"/>
<path d="M286.77 433.66C291.28 432.66 296.85 433.16 300.43 436.28C300.57 436.4 300.43 436.59 300.25 436.55C295.866 435.299 291.36 434.521 286.81 434.23C286.742 434.223 286.679 434.192 286.631 434.143C286.584 434.094 286.555 434.03 286.55 433.962C286.546 433.894 286.565 433.826 286.605 433.771C286.645 433.716 286.704 433.676 286.77 433.66Z" fill="#263238"/>
<path d="M283.56 435.74C288.07 434.74 293.65 435.25 297.22 438.36C297.36 438.48 297.22 438.68 297.04 438.64C292.657 437.384 288.151 436.606 283.6 436.32C283.534 436.308 283.475 436.275 283.43 436.225C283.386 436.175 283.359 436.112 283.355 436.046C283.35 435.979 283.368 435.913 283.405 435.858C283.442 435.802 283.497 435.761 283.56 435.74Z" fill="#263238"/>
<path d="M340 352.95V353.44L339.01 431.81L291.13 430.85L300.96 191.94H341.4L340 352.95Z" fill="#455A64"/>
<path d="M293.13 422.87C300.61 422.8 298.46 422.72 305.94 422.73C309.59 422.73 333.63 422.83 337.04 423.43C337.055 423.436 337.068 423.446 337.078 423.459C337.087 423.473 337.092 423.489 337.092 423.505C337.092 423.521 337.087 423.537 337.078 423.551C337.068 423.564 337.055 423.574 337.04 423.58C333.62 424.11 309.58 423.58 305.93 423.53C298.45 423.37 300.6 423.33 293.13 423.08C293.114 423.085 293.096 423.086 293.079 423.083C293.062 423.081 293.046 423.074 293.032 423.064C293.018 423.053 293.007 423.04 292.999 423.025C292.991 423.009 292.987 422.992 292.987 422.975C292.987 422.958 292.991 422.941 292.999 422.925C293.007 422.91 293.018 422.897 293.032 422.886C293.046 422.876 293.062 422.869 293.079 422.867C293.096 422.864 293.114 422.865 293.13 422.87Z" fill="#263238"/>
<path d="M330.88 396.3C330.98 389.14 331.097 381.98 331.23 374.82C331.497 360.5 331.763 346.167 332.03 331.82C332.55 303.327 333.007 274.837 333.4 246.35C333.65 230.28 333.64 214.2 334.05 198.13H334.12C334.38 212.45 334.22 226.78 334.2 241.13C334.18 255.48 334.11 269.78 333.97 284.13C333.697 312.623 333.25 341.117 332.63 369.61C332.44 377.61 332.24 385.68 331.97 393.71C331.7 401.74 331.51 409.79 330.97 417.81C330.963 417.83 330.951 417.847 330.934 417.86C330.917 417.872 330.896 417.879 330.875 417.879C330.854 417.879 330.833 417.872 330.816 417.86C330.799 417.847 330.787 417.83 330.78 417.81C330.62 410.62 330.79 403.45 330.88 396.3Z" fill="#263238"/>
<path d="M341.4 192.43L340.34 314.42L307.92 191.95H341.39L341.4 192.43Z" fill="#263238"/>
<path d="M413.58 362.74C413.58 362.74 436.68 400.28 436.7 400.3C440.45 408 443.6 414.81 444.9 418.49C444.906 418.51 444.906 418.53 444.9 418.55C445.3 419.376 445.502 420.283 445.49 421.2C445.491 421.223 445.491 421.247 445.49 421.27C443.95 423.94 383.34 455.71 380.85 456.11C378.36 456.51 377.04 449.44 378.41 446.33C379.78 443.22 397.55 420.68 397.55 420.68L374.85 383L413.58 362.74Z" fill="#EB9481"/>
<path d="M445.51 421.21C445.514 421.219 445.517 421.23 445.517 421.24C445.517 421.25 445.514 421.261 445.51 421.27C443.98 423.94 383.36 455.71 380.87 456.11C378.38 456.51 377.06 449.44 378.42 446.33C379.78 443.22 397.57 420.67 397.57 420.67L393.52 413.94C403.43 408.66 421.44 399.39 432.62 393.64C435.05 397.59 436.71 400.3 436.71 400.31C440.47 408 443.62 414.81 444.92 418.48C444.924 418.503 444.924 418.527 444.92 418.55C445.326 419.377 445.528 420.289 445.51 421.21Z" fill="white"/>
<path d="M380.85 456.11C383.34 455.71 443.95 423.94 445.49 421.27C446.09 420.27 441.98 411.16 436.69 400.27C436.639 400.154 436.583 400.04 436.52 399.93L397.19 419.93L397.55 420.59C397.55 420.59 379.79 443.13 378.41 446.25C377.03 449.37 378.36 456.51 380.85 456.11Z" fill="#FFC727"/>
<path d="M380.3 453.4C390.39 447.79 431.6 426.13 442 421.4C442.08 421.4 442.11 421.4 442 421.46C432.12 427.24 390.74 448.56 380.36 453.61C380.17 453.67 380.09 453.52 380.3 453.4Z" fill="#263238"/>
<path d="M394.33 422.52C397.96 419.66 403.2 417.7 407.77 418.96C407.95 419.01 407.88 419.26 407.77 419.28C403.263 420.046 398.851 421.293 394.61 423C394.549 423.015 394.486 423.009 394.428 422.985C394.371 422.96 394.323 422.918 394.291 422.864C394.26 422.81 394.247 422.748 394.254 422.686C394.261 422.624 394.287 422.566 394.33 422.52Z" fill="#263238"/>
<path d="M392.34 425.79C395.97 422.93 401.21 420.97 405.78 422.23C405.96 422.23 405.89 422.53 405.78 422.55C401.289 423.324 396.894 424.578 392.67 426.29C392.604 426.334 392.523 426.349 392.445 426.333C392.367 426.317 392.299 426.271 392.255 426.205C392.211 426.139 392.196 426.058 392.212 425.98C392.227 425.902 392.274 425.834 392.34 425.79Z" fill="#263238"/>
<path d="M390.36 429.06C393.98 426.2 399.23 424.24 403.8 425.5C403.98 425.55 403.91 425.8 403.75 425.82C399.259 426.596 394.864 427.849 390.64 429.56C390.575 429.584 390.504 429.584 390.439 429.56C390.374 429.536 390.32 429.49 390.286 429.43C390.252 429.369 390.241 429.299 390.255 429.231C390.268 429.163 390.306 429.103 390.36 429.06Z" fill="#263238"/>
<path d="M307.64 191.91C307.81 192.74 310.64 205.91 313.57 217.13C315.7 225.36 317.9 232.59 319.15 233.34C320.58 234.18 327.52 237.26 329.85 238.23C329.85 238.23 345.47 316.23 353.71 340.35C361.32 362.66 392.8 422.28 392.8 422.28L438.47 399.21C438.47 399.21 402.8 338.7 399.05 327.84C393.24 311.01 371.45 228.84 371.45 228.84C371.45 228.84 371.62 203.11 362.96 191.84L307.64 191.91Z" fill="#455A64"/>
<path d="M393.48 413.42C400 409.77 398.08 410.73 404.65 407.15C407.86 405.4 428.99 393.93 432.27 392.83C432.34 392.83 432.4 392.92 432.34 392.96C429.59 395.07 408.27 406.17 405.02 407.85C398.39 411.3 400.25 410.24 393.58 413.61C393.556 413.617 393.53 413.615 393.507 413.605C393.484 413.595 393.465 413.577 393.454 413.555C393.442 413.533 393.438 413.507 393.443 413.483C393.448 413.458 393.461 413.436 393.48 413.42Z" fill="#263238"/>
<path d="M359.75 221.71C358.5 221.39 357.16 221.29 355.88 221.09C354.88 220.92 353.83 220.74 352.81 220.52C350.853 220.168 348.998 219.386 347.38 218.23C345.61 216.86 344.72 214.77 343.86 212.77C343.35 211.58 342.86 210.39 342.3 209.21L341.52 207.5C341.148 206.836 340.814 206.152 340.52 205.45C340.52 205.34 340.33 205.45 340.37 205.45C340.544 205.934 340.687 206.428 340.8 206.93C340.98 207.51 341.14 208.08 341.32 208.65C341.64 209.65 341.94 210.7 342.32 211.72C342.832 213.593 343.564 215.399 344.5 217.1C346.38 220.1 349.75 221.31 353.12 221.73C354.12 221.86 355.06 221.92 356.04 221.98C357.264 222.09 358.496 222.09 359.72 221.98C359.743 221.967 359.762 221.948 359.776 221.926C359.79 221.904 359.799 221.879 359.802 221.852C359.805 221.826 359.802 221.8 359.793 221.775C359.784 221.75 359.769 221.728 359.75 221.71Z" fill="#263238"/>
<path d="M315.47 231.54C320.424 233.345 325.212 235.577 329.78 238.21C329.96 238.31 329.84 238.59 329.65 238.5C324.83 236.43 319.91 234.45 315.21 232.12C315.143 232.08 315.092 232.016 315.069 231.942C315.045 231.867 315.05 231.786 315.082 231.714C315.114 231.643 315.171 231.586 315.243 231.553C315.314 231.521 315.395 231.517 315.47 231.54Z" fill="#263238"/>
<path d="M314 198.51C314 198.35 314.3 198.31 314.3 198.51C314.301 203.89 314.571 209.267 315.11 214.62C315.33 217.1 317.33 230.83 321.64 229.83C322.36 229.66 322.73 228.95 322.84 227.83C322.823 226.409 322.632 224.995 322.27 223.62C321.79 220.74 321.41 217.86 321.16 214.96C320.66 209.555 320.72 204.113 321.34 198.72C321.348 198.69 321.366 198.664 321.39 198.646C321.415 198.627 321.444 198.617 321.475 198.617C321.506 198.617 321.535 198.627 321.56 198.646C321.584 198.664 321.602 198.69 321.61 198.72C321.486 206.212 321.924 213.703 322.92 221.13C323.46 224.7 325.26 230.13 321.53 230.63C317.8 231.13 315.26 222.18 314.8 219.72C313.613 212.715 313.344 205.585 314 198.51Z" fill="#263238"/>
<path d="M321.54 230.18C321.937 231.103 322.272 232.052 322.54 233.02C322.819 233.768 322.958 234.561 322.95 235.36C322.943 235.392 322.928 235.421 322.905 235.444C322.882 235.467 322.854 235.483 322.822 235.491C322.791 235.498 322.758 235.496 322.727 235.485C322.697 235.475 322.67 235.455 322.65 235.43C322.2 234.727 321.862 233.958 321.65 233.15C321.32 232.27 320.97 231.4 320.65 230.51C320.627 230.398 320.644 230.28 320.7 230.18C320.756 230.079 320.845 230.002 320.953 229.962C321.061 229.922 321.179 229.922 321.287 229.962C321.395 230.002 321.484 230.079 321.54 230.18Z" fill="#263238"/>
<path d="M426.15 391.67C419.65 379.43 412.95 367.3 406.22 355.19C402.9 349.19 399.44 343.31 396.28 337.26C393.299 331.263 390.879 325.003 389.05 318.56C385.05 305.493 381.243 292.36 377.63 279.16C374.017 265.96 370.64 252.707 367.5 239.4C366.7 236.08 365.83 232.75 365.19 229.4C364.62 226.007 364.62 222.543 365.19 219.15C365.678 215.987 365.702 212.77 365.26 209.6C364.757 206.441 364.012 203.325 363.03 200.28C362.53 198.67 361.98 197.07 361.43 195.48C361.413 195.45 361.386 195.426 361.354 195.414C361.322 195.401 361.286 195.4 361.253 195.41C361.22 195.421 361.192 195.443 361.173 195.472C361.154 195.501 361.146 195.536 361.15 195.57C363.15 202.01 365.15 208.52 364.71 215.35C364.5 218.63 363.63 221.85 363.71 225.15C363.923 228.426 364.48 231.67 365.37 234.83C368.47 248.223 371.803 261.557 375.37 274.83C378.937 288.103 382.707 301.317 386.68 314.47C388.62 320.86 390.43 327.36 393.18 333.47C395.93 339.58 399.42 345.36 402.71 351.2C409.49 363.27 416.33 375.31 423.33 387.26C424.21 388.77 425.11 390.26 426 391.79C426.06 391.86 426.2 391.77 426.15 391.67Z" fill="#263238"/>
<path d="M327.87 130.33C321.45 136.6 289.56 163 271.23 162C254.07 161 234.92 124.16 229.64 117.09C227.32 113.98 253.25 95.47 256.38 98.18C259.51 100.89 273.22 130.46 276.17 131.4C279.12 132.34 303.17 126.72 317.74 123.08C330.92 119.75 336.7 121.69 327.87 130.33Z" fill="#EB9481"/>
<path d="M288.5 129.26L299.1 153.44C299.1 153.44 319.73 141.35 327.51 132.77C335.29 124.19 334.77 119.77 318.94 121.97C308.596 123.486 298.409 125.926 288.5 129.26Z" fill="#FFC727"/>
<path d="M285.23 129.52L291.13 127.36L301.94 152.88L296.39 155.74L285.23 129.52Z" fill="#FFC727"/>
<path opacity="0.1" d="M285.23 129.52L291.13 127.36L301.94 152.88L296.39 155.74L285.23 129.52Z" fill="black"/>
<path d="M262.75 112C259.33 95.1 246.84 80.6 244.21 78.62C241.97 76.93 240.8 76.08 240.8 76.08C236.8 72.96 233.89 73.49 233.89 73.49C233.89 73.49 230.38 68.54 227.03 70.17C223.27 71.98 228.95 78.58 229.85 84.17C231.92 96.86 231.31 115.47 231.54 119.17L262.75 112Z" fill="#EB9481"/>
<path d="M241.36 95.89C240.802 92.1713 239.987 88.4957 238.92 84.89C237.512 81.0127 235.817 77.2457 233.85 73.62C233.837 73.5961 233.833 73.568 233.841 73.5417C233.848 73.5155 233.866 73.4933 233.89 73.48C233.914 73.4667 233.942 73.4635 233.968 73.471C233.995 73.4785 234.017 73.4961 234.03 73.52C238.575 80.1238 241.224 87.8467 241.69 95.85C241.686 95.8887 241.67 95.9251 241.643 95.953C241.616 95.9809 241.58 95.9986 241.541 96.0033C241.503 96.008 241.464 95.9993 241.431 95.9787C241.398 95.958 241.373 95.9268 241.36 95.89Z" fill="#263238"/>
<path d="M249.2 95.76C248.34 92.17 246.78 85.88 240.69 76.14C240.69 76.14 240.69 76.07 240.75 76.14C245.441 81.7185 248.491 88.49 249.56 95.7C249.59 95.89 249.26 96 249.2 95.76Z" fill="#263238"/>
<path d="M231.37 99.56C230.99 101.32 230.06 101.13 228.67 98.25C227.28 95.37 224.2 82.78 219.9 84.25C215.6 85.72 220.19 103.39 222.9 108.01C225.61 112.63 231.56 119.16 231.56 119.16C231.34 115.51 231.68 106.68 231.37 99.56Z" fill="#EB9481"/>
<path d="M301 202.59C302.13 203.71 366.18 200.35 366.52 199.91C367.42 198.69 346.94 131.55 330.75 119.91C327.27 117.41 317.1 119.73 314.75 122.14C313.24 123.65 310.18 133.28 308.04 141.14C303.71 157 300.05 201.61 301 202.59Z" fill="#FFC727"/>
<path d="M300.75 203.14C300.75 203.14 300.38 170.34 306.45 144.4C310.81 125.8 313 122.87 313 122.87L314.72 122.15L311.59 137.43L324.59 136.81C324.59 136.81 330.11 120.48 330.96 120.08C331.5 119.83 333.69 122.01 333.69 122.01C333.69 122.01 328.69 139.33 329.37 146.4C330.05 153.47 335.02 164.52 339.18 167.85C343.34 171.18 357.53 168.17 357.86 168.25C358.19 168.33 367.86 201.51 368.02 201.96C368.18 202.41 300.75 203.14 300.75 203.14Z" fill="#455A64"/>
<path d="M309.29 153.66C311.652 155.27 314.304 156.405 317.1 157C318.64 157.11 325.78 154.69 326.83 154.05C327.36 153.73 326.61 142.91 326.36 142.24C326.11 141.57 309.97 141.75 309.53 142.24C308.55 143.54 308.78 153.22 309.29 153.66ZM309.91 142.94C310.43 142.47 324.77 141.99 325.91 142.8C326.07 145.04 326.43 153.34 326.2 153.62C325.97 153.9 318.53 156.52 317.2 156.35C315.2 156.11 310.61 153.88 309.83 153.35C309.27 152.89 309.55 143.27 309.91 142.94Z" fill="#263238"/>
<path d="M367.5 202.12C367.88 202.49 370.32 225.29 368.87 226.2C367.42 227.11 347.81 230.2 346.39 229.44C344.97 228.68 343.45 205.89 343.58 205.59C343.71 205.29 366.8 201.42 367.5 202.12Z" fill="#FFC727"/>
<path opacity="0.1" d="M344.26 215.75C344.81 222.06 345.61 229.04 346.39 229.45C347.82 230.2 367.39 227.11 368.87 226.2C369.67 225.7 369.29 218.69 368.73 212.36C368.498 208.928 368.088 205.51 367.5 202.12C366.8 201.41 343.71 205.3 343.58 205.59C343.52 205.73 343.81 210.5 344.26 215.75Z" fill="black"/>
<path d="M369.92 201.42C370.25 201.12 368.09 192.61 366.8 190.47C366.8 190.47 345.74 194.16 327.8 195.47C314.38 196.47 299.08 195.74 299 196.12C298.92 196.5 298.31 205.62 298.62 206.37C298.93 207.12 319.25 207.37 330.81 206.76C342.37 206.15 368.82 202.44 369.92 201.42Z" fill="#FFC727"/>
<path d="M309 207.41C309.42 207.72 324 207.91 324.29 207.59C324.58 207.27 324.69 196 323.55 195.34C322.87 194.95 310 195.05 309.18 195.42C308.36 195.79 308.6 207.09 309 207.41ZM310.57 196.77C311.24 196.48 321.68 196.42 322.23 196.72C323.15 197.23 323.06 205.94 322.84 206.18C322.62 206.42 310.78 206.27 310.44 206.02C310.1 205.77 309.94 197.06 310.6 196.77H310.57Z" fill="#DBDBDB"/>
<path d="M309.513 202.187L313.603 202.203L313.609 200.643L309.519 200.627L309.513 202.187Z" fill="#DBDBDB"/>
<path d="M328.1 201.28C328.119 201.425 328.189 201.557 328.299 201.653C328.408 201.75 328.549 201.803 328.695 201.803C328.841 201.803 328.981 201.75 329.091 201.653C329.2 201.557 329.271 201.425 329.29 201.28C329.271 201.135 329.2 201.003 329.091 200.907C328.981 200.81 328.841 200.757 328.695 200.757C328.549 200.757 328.408 200.81 328.299 200.907C328.189 201.003 328.119 201.135 328.1 201.28Z" fill="#263238"/>
<path d="M334.31 200.87C334.306 200.948 334.318 201.027 334.344 201.1C334.371 201.174 334.412 201.242 334.465 201.3C334.518 201.357 334.582 201.404 334.653 201.437C334.725 201.469 334.802 201.487 334.88 201.49C334.959 201.493 335.037 201.48 335.111 201.452C335.185 201.424 335.253 201.382 335.31 201.329C335.368 201.275 335.414 201.21 335.447 201.138C335.479 201.066 335.497 200.989 335.5 200.91C335.503 200.832 335.49 200.754 335.462 200.68C335.434 200.607 335.392 200.54 335.338 200.483C335.284 200.427 335.219 200.381 335.147 200.35C335.076 200.318 334.998 200.301 334.92 200.3C334.843 200.297 334.765 200.31 334.693 200.337C334.62 200.364 334.553 200.406 334.497 200.459C334.44 200.511 334.395 200.575 334.362 200.646C334.33 200.716 334.313 200.793 334.31 200.87Z" fill="#263238"/>
<path d="M366.138 198.158L358.894 198.977L356.808 180.524C356.733 179.865 356.924 179.204 357.337 178.685C357.75 178.167 358.352 177.834 359.011 177.759L361.257 177.505C361.916 177.431 362.577 177.621 363.096 178.034C363.614 178.447 363.947 179.05 364.022 179.709L366.108 198.161L366.138 198.158Z" fill="#37474F"/>
<path d="M360.305 200.78L365.174 200.229L364.957 198.301L360.088 198.852L360.305 200.78Z" fill="#37474F"/>
<path d="M364.323 221.367L365.863 221.192L363.515 200.425L361.975 200.599L364.323 221.367Z" fill="#EBEBEB"/>
<path d="M363.74 223.26C363.74 223.26 365.05 226.35 365.15 226.34L365.66 226.28L366.17 226.22C366.28 226.22 366.86 222.91 366.86 222.91L365.86 221.18L364.33 221.35L363.74 223.26Z" fill="#EBEBEB"/>
<path d="M363.952 196.345L365.214 196.202L363.385 180.025L362.123 180.168L363.952 196.345Z" fill="#263238"/>
<path d="M361.617 196.604L362.879 196.461L361.05 180.284L359.788 180.427L361.617 196.604Z" fill="#263238"/>
<path d="M359.287 196.836L360.549 196.694L358.723 180.517L357.461 180.659L359.287 196.836Z" fill="#263238"/>
<path d="M356.803 191.825L360.961 191.279L360.11 184.794L355.952 185.34L356.803 191.825Z" fill="#EBEBEB"/>
<path d="M355.81 186.6L353 187C352.57 187.05 350.66 185.33 349.34 185.5L347.89 185.69C346.64 185.85 341.52 187.82 341.95 191.09L342.2 193.03C342.2 193.03 342.7 191.22 343.85 190.74C344.39 190.518 344.996 190.517 345.538 190.735C346.08 190.954 346.515 191.375 346.75 191.91C347.116 192.845 347.416 193.804 347.65 194.78L352.81 194.1C352.905 192.928 353.102 191.767 353.4 190.63C353.76 189.75 356.2 189.63 356.2 189.63L355.81 186.6Z" fill="#EBEBEB"/>
<path d="M350.178 206.18L353.381 205.764L351.875 194.181L348.672 194.598L350.178 206.18Z" fill="#EBEBEB"/>
<path d="M352.032 226.657L356.811 226.036L353.459 200.263L348.68 200.884L352.032 226.657Z" fill="#263238"/>
<path d="M344.26 215.75C344.81 222.06 345.61 229.04 346.39 229.45C347.82 230.2 367.39 227.11 368.87 226.2C369.67 225.7 369.29 218.69 368.73 212.36L344.26 215.75Z" fill="#FFC727"/>
<path d="M318.85 131.07C322.73 131.57 328.63 125.07 330.71 120.14C330.85 119.79 330 116.45 329.16 112.35C328.66 109.85 328.16 107.06 327.89 104.48L312.13 110.11C313.392 113.235 314.265 116.502 314.73 119.84C314.77 120.196 314.77 120.554 314.73 120.91C314.725 120.97 314.725 121.03 314.73 121.09C314.61 123.14 315.09 130.59 318.85 131.07Z" fill="#EB9481"/>
<path d="M327.14 104.75C327 108 325.74 119.81 316.4 121C315.846 121.067 315.288 121.098 314.73 121.09C314.719 121.027 314.719 120.963 314.73 120.9C314.76 120.547 314.76 120.193 314.73 119.84C314.259 116.499 313.383 113.228 312.12 110.1L327.14 104.75Z" fill="#263238"/>
<path d="M326.86 85.94C329.34 91.43 328.44 108.34 324.86 112.54C319.65 118.64 310.07 120.39 304.62 113.88C299.34 107.58 300.9 85.56 305.02 81.64C311.06 75.85 323.2 77.82 326.86 85.94Z" fill="#EB9481"/>
<path d="M312.75 98.07C312.75 98.07 312.83 98.13 312.83 98.17C312.74 99.31 312.83 100.63 313.83 101.06C313.83 101.06 313.83 101.13 313.83 101.12C312.58 100.88 312.48 99.13 312.75 98.07Z" fill="#263238"/>
<path d="M313.82 96.93C315.66 96.88 315.63 100.56 313.92 100.61C312.21 100.66 312.28 97 313.82 96.93Z" fill="#263238"/>
<path d="M306.19 98C306.19 98 306.1 98.06 306.1 98.1C306.1 99.24 305.96 100.55 304.93 100.92V100.99C306.19 100.86 306.39 99.12 306.19 98Z" fill="#263238"/>
<path d="M305.18 96.84C303.35 96.69 303.18 100.36 304.87 100.51C306.56 100.66 306.72 97 305.18 96.84Z" fill="#263238"/>
<path d="M315.29 95.26C314.808 95.1121 314.334 94.9385 313.87 94.74C313.344 94.63 312.869 94.3486 312.52 93.94C312.434 93.7913 312.399 93.618 312.423 93.4476C312.446 93.2772 312.526 93.1197 312.65 93C312.935 92.7904 313.272 92.6628 313.625 92.6311C313.977 92.5994 314.332 92.6647 314.65 92.82C315.327 93.0149 315.905 93.4577 316.27 94.06C316.353 94.2057 316.39 94.3732 316.376 94.5404C316.362 94.7075 316.298 94.8666 316.192 94.9965C316.086 95.1265 315.943 95.2212 315.782 95.2682C315.621 95.3153 315.449 95.3124 315.29 95.26Z" fill="#263238"/>
<path d="M303.77 95C304.266 94.9015 304.757 94.778 305.24 94.63C305.774 94.5742 306.273 94.3419 306.66 93.97C306.777 93.8297 306.841 93.6528 306.841 93.47C306.841 93.2872 306.777 93.1103 306.66 92.97C306.403 92.7412 306.089 92.5854 305.752 92.5186C305.414 92.4518 305.065 92.4764 304.74 92.59C304.042 92.7252 303.421 93.1179 303 93.69C302.906 93.8206 302.851 93.9759 302.844 94.1368C302.836 94.2977 302.876 94.4574 302.957 94.5963C303.039 94.7352 303.159 94.8473 303.304 94.919C303.448 94.9907 303.61 95.0188 303.77 95Z" fill="#263238"/>
<path d="M313.79 108.68C313.52 108.95 313.24 109.31 312.79 109.34C312.363 109.329 311.944 109.226 311.56 109.04C311.56 109.04 311.49 109.04 311.51 109.1C311.673 109.325 311.893 109.503 312.149 109.614C312.404 109.725 312.684 109.765 312.96 109.73C313.192 109.671 313.402 109.545 313.562 109.367C313.722 109.189 313.826 108.967 313.86 108.73C313.92 108.67 313.83 108.64 313.79 108.68Z" fill="#263238"/>
<path d="M309.27 106.77C309.798 107.338 310.462 107.761 311.2 108C311.607 108.129 312.043 108.129 312.45 108C313.33 107.69 313.29 106.87 313.07 106.17C312.945 105.819 312.781 105.484 312.58 105.17C311.676 106.043 310.516 106.604 309.27 106.77Z" fill="#263238"/>
<path d="M311.2 108C311.607 108.129 312.043 108.129 312.45 108C313.33 107.69 313.29 106.87 313.07 106.17C312.599 106.224 312.16 106.433 311.821 106.764C311.482 107.095 311.264 107.53 311.2 108Z" fill="#F291B8"/>
<path d="M326.59 98.72C323.27 99.72 319.9 85.39 319.9 85.39C318.209 86.8556 316.304 88.0529 314.25 88.94C312.117 89.6946 309.907 90.2078 307.66 90.47C307.16 90.47 312.28 86.57 312.28 86.57C312.28 86.57 306.78 90.2 302.03 89.57C300.56 89.36 302.94 77.06 313.3 76.07C320.3 75.39 324.3 80.98 324.3 80.98C324.3 80.98 329.06 84.2 329.56 86.57C330.2 89.7 330.1 97.72 326.59 98.72Z" fill="#263238"/>
<path d="M323.93 99.44C323.93 99.44 327.09 93.68 329.67 94.76C332.25 95.84 330.26 103.9 327.52 105.26C327.184 105.452 326.813 105.576 326.429 105.623C326.045 105.67 325.655 105.64 325.283 105.535C324.91 105.43 324.562 105.252 324.26 105.01C323.957 104.769 323.706 104.47 323.52 104.13L323.93 99.44Z" fill="#EB9481"/>
<path d="M329 97.05V97.13C327.09 98.13 326.24 100.13 325.71 102.13C325.804 101.917 325.944 101.726 326.118 101.572C326.293 101.418 326.5 101.304 326.723 101.237C326.947 101.171 327.182 101.153 327.413 101.187C327.644 101.22 327.864 101.303 328.06 101.43C328.11 101.43 328.06 101.55 328.06 101.54C327.695 101.466 327.317 101.508 326.977 101.658C326.636 101.809 326.351 102.061 326.16 102.38C325.841 102.913 325.583 103.48 325.39 104.07C325.32 104.26 324.98 104.2 325.03 103.98C324.73 101.39 326.33 97.61 329 97.05Z" fill="#263238"/>
<path d="M300.65 87.56C300.65 87.56 303.56 70.42 318.87 72.9C334.18 75.38 331.53 92.56 331.53 92.56L300.65 87.56Z" fill="#FFC727"/>
<path d="M332.876 91.5102L299.698 86.1366L299.305 88.5649L332.482 93.9385L332.876 91.5102Z" fill="#FFC727"/>
<path d="M316.04 88.8L309.13 87.68L313.48 71.12L320.39 72.24L316.04 88.8Z" fill="#FFC727"/>
<path opacity="0.1" d="M316.04 88.8L309.13 87.68L313.48 71.12L320.39 72.24L316.04 88.8Z" fill="black"/>
<path d="M314.72 120.38L318.64 129.82L330.29 117.68L333.68 121.49C333.68 121.49 322.37 140.7 322.29 139.84L318.29 131.71L312.71 137.46L313 123.17L314.72 120.38Z" fill="#FFC727"/>
<path d="M312.45 130.39C312.57 128.03 312.64 125.66 312.87 123.31C312.87 123.22 313.01 123.18 313.03 123.31C313.53 125.58 313.03 134.6 313.03 136.76C313.26 136.51 318.2 131.69 318.25 131.76C319.11 133.05 322.05 138.97 322.25 139.51C324.03 136.46 330.9 125.36 333.02 122.51C333.031 122.491 333.048 122.478 333.069 122.472C333.089 122.467 333.111 122.469 333.13 122.48C333.149 122.491 333.162 122.508 333.168 122.529C333.173 122.549 333.171 122.571 333.16 122.59C331.59 125.81 322.51 140.75 322.37 140.71C320.822 137.919 319.424 135.049 318.18 132.11C317.35 133.11 312.37 138.59 312.34 138.24C312.238 135.623 312.275 133.003 312.45 130.39Z" fill="#263238"/>
<path d="M248.06 198.44C247.588 200.718 246.49 202.82 244.89 204.509C243.289 206.198 241.25 207.407 239 208L241.08 198L236 194.91L230.14 195.72L228.06 205.72C226.307 204.342 224.954 202.521 224.14 200.445C223.326 198.369 223.082 196.113 223.432 193.911C223.782 191.709 224.714 189.64 226.131 187.919C227.549 186.198 229.4 184.886 231.494 184.119C233.588 183.353 235.848 183.16 238.042 183.56C240.236 183.959 242.283 184.938 243.971 186.394C245.66 187.85 246.93 189.73 247.649 191.841C248.367 193.952 248.509 196.216 248.06 198.4V198.44Z" fill="#37474F"/>
<path d="M237.81 127.32C238.285 125.041 239.385 122.94 240.987 121.251C242.589 119.563 244.629 118.354 246.88 117.76L244.8 127.76L249.86 130.83L255.72 130.02L257.8 120.02C259.553 121.398 260.906 123.22 261.719 125.297C262.532 127.373 262.776 129.629 262.425 131.831C262.075 134.034 261.142 136.102 259.724 137.823C258.306 139.544 256.454 140.856 254.359 141.621C252.265 142.387 250.004 142.579 247.81 142.178C245.616 141.777 243.57 140.797 241.881 139.34C240.193 137.883 238.925 136.002 238.207 133.89C237.49 131.779 237.349 129.514 237.8 127.33L237.81 127.32Z" fill="#37474F"/>
<path d="M253.167 135.447L242.187 133.509L232.404 188.933L243.385 190.871L253.167 135.447Z" fill="#37474F"/>
<path d="M338.69 142.33C335.88 150.85 326.39 182.68 309.75 190.44C294.17 197.7 266.13 188.67 257.49 186.6C253.72 185.69 258.25 160.31 261.89 158.35C265.53 156.39 295.08 164.72 298.12 164.14C301.16 163.56 315.97 148.32 325.99 137.14C335.45 126.61 343.93 126.4 338.69 142.33Z" fill="#EB9481"/>
<path d="M306.23 191.76C305.8 183.92 304.3 176.38 301.77 170.76C300.943 168.842 299.86 167.046 298.55 165.42C298.195 164.969 297.807 164.544 297.39 164.15C297.25 164.02 297.1 163.88 296.95 163.76C296.752 163.576 296.541 163.405 296.32 163.25C295.208 162.376 293.907 161.777 292.52 161.5C292.325 161.459 292.128 161.429 291.93 161.41H291.44H290.78C290.677 161.4 290.573 161.4 290.47 161.41C290.381 161.395 290.289 161.395 290.2 161.41C289.023 161.473 287.864 161.729 286.77 162.17L288.47 162.54H288.56H288.64H288.76C289.234 162.436 289.716 162.369 290.2 162.34H291.02H291.56C292.932 162.509 294.236 163.037 295.34 163.87C300.28 167.39 304.47 176.87 305.17 191.97C305.24 193.41 305.27 194.91 305.27 196.46C305.27 204.91 304.04 212.7 301.82 218.39C300.15 222.64 297.14 227.69 292.12 228H291.29H291.05H290.59C290.554 228.006 290.516 228.006 290.48 228C283.02 226.78 275.67 213.62 275.67 192.31C275.67 191.91 275.67 191.5 275.67 191.11L274.67 190.9C274.67 191.37 274.67 191.84 274.67 192.31C274.67 202.91 276.85 213.72 280.79 220.86C281.523 222.209 282.384 223.485 283.36 224.67C283.703 225.079 284.067 225.469 284.45 225.84C284.62 226.01 284.8 226.18 284.97 226.33C286.469 227.749 288.362 228.683 290.4 229.01H290.63H290.94H292.11C293.81 228.906 295.445 228.316 296.82 227.31C297.01 227.18 297.19 227.04 297.38 226.89C297.786 226.548 298.173 226.184 298.54 225.8C300.01 224.177 301.203 222.322 302.07 220.31C302.3 219.81 302.52 219.31 302.73 218.76C305 212.95 306.25 205.03 306.25 196.46C306.36 194.92 306.32 193.33 306.23 191.76Z" fill="#263238"/>
<path d="M309.42 190.59C308.76 182.75 306.8 175.29 303.58 169.86C302.522 168.039 301.205 166.381 299.67 164.94C299.313 164.604 298.939 164.287 298.55 163.99C296.645 162.498 294.342 161.601 291.93 161.41H291.56H290.78C290.677 161.4 290.573 161.4 290.47 161.41C290.381 161.395 290.289 161.395 290.2 161.41C290.074 161.4 289.946 161.4 289.82 161.41H289.7L288.81 161.49H288.67C287.843 161.594 287.026 161.772 286.23 162.02L286.46 162.07L286.77 162.13L288.47 162.5H288.56L289.07 162.42H289.58H289.9C290 162.41 290.1 162.41 290.2 162.42H291.02C291.2 162.405 291.38 162.405 291.56 162.42C293.371 162.566 295.118 163.153 296.65 164.13C297.284 164.522 297.885 164.964 298.45 165.45C299.978 166.765 301.299 168.302 302.37 170.01C305.45 174.8 307.72 181.82 308.37 191.01C308.5 192.77 308.57 194.62 308.57 196.54C308.57 204.97 307.07 212.75 304.35 218.44C303.836 219.521 303.244 220.564 302.58 221.56C301.513 223.226 300.159 224.689 298.58 225.88C296.838 227.18 294.75 227.935 292.58 228.05H292.13H291.3H291.06H290.61H290.45H290.27H290.02C289.931 228.064 289.839 228.064 289.75 228.05C289.247 227.966 288.752 227.839 288.27 227.67C288.08 227.61 287.9 227.54 287.71 227.46C286.131 226.84 284.67 225.954 283.39 224.84C281.511 223.217 279.901 221.307 278.62 219.18C274.78 213.02 272.17 203.93 272.17 192.48C272.17 191.813 272.17 191.147 272.17 190.48L271.17 190.25C271.17 190.97 271.17 191.7 271.17 192.43C271.17 201.6 273.17 210.93 276.8 217.9C277.764 219.793 278.935 221.574 280.29 223.21C282.566 226.163 285.809 228.22 289.45 229.02H289.64H289.91H290.03H290.16H290.38H290.61H290.68H290.99H292.33C295.277 228.896 298.086 227.742 300.27 225.76C301.724 224.438 302.974 222.908 303.98 221.22C304.42 220.48 304.85 219.7 305.25 218.86C308.03 213.04 309.57 205.11 309.57 196.53C309.67 194.53 309.59 192.55 309.42 190.59Z" fill="#263238"/>
<path d="M312.58 188.85C311.17 177.85 306.7 167.85 299.34 163.56C297.003 162.191 294.357 161.437 291.65 161.37H290.78C290.677 161.36 290.573 161.36 290.47 161.37C290.381 161.355 290.289 161.355 290.2 161.37C290.074 161.36 289.946 161.36 289.82 161.37H289.47L288.81 161.44H288.67C287.741 161.532 286.82 161.683 285.91 161.89H286.05H286.23L286.46 161.94L286.77 162L288.47 162.37L289.02 162.31H289.07H289.58H289.9C290 162.3 290.1 162.3 290.2 162.31H290.51H291.58C293.184 162.346 294.771 162.644 296.28 163.19C296.686 163.33 297.083 163.494 297.47 163.68C297.723 163.787 297.973 163.907 298.22 164.04C298.701 164.295 299.169 164.575 299.62 164.88C301.707 166.297 303.512 168.091 304.94 170.17L304.99 170.24C308.51 175.24 310.73 182.08 311.6 189.36C311.881 191.713 312.021 194.08 312.02 196.45C312.02 204.87 310.26 212.64 307.07 218.32C306.568 219.223 306.007 220.092 305.39 220.92C304.024 222.838 302.294 224.468 300.3 225.72C299.602 226.158 298.865 226.533 298.1 226.84C297.71 227.012 297.309 227.159 296.9 227.28C295.746 227.65 294.55 227.868 293.34 227.93C293.12 227.945 292.9 227.945 292.68 227.93C292.523 227.94 292.366 227.94 292.21 227.93H291.85C291.61 227.93 291.38 227.93 291.14 227.93H290.84H290.75H290.54H290.32H290.07C289.98 227.94 289.89 227.94 289.8 227.93H289.59L289.22 227.86C289.194 227.868 289.166 227.868 289.14 227.86C287.72 227.565 286.344 227.085 285.05 226.43C284.381 226.1 283.733 225.73 283.11 225.32C282.12 224.685 281.186 223.966 280.32 223.17C278.268 221.301 276.505 219.137 275.09 216.75C271.43 210.75 269.04 202.46 269.04 192.39C269.04 191.49 269.04 190.59 269.11 189.71L268.11 189.47C268.11 190.47 268.03 191.41 268.03 192.39C268.03 209.03 275.68 226.19 288.69 228.84C288.894 228.891 289.101 228.931 289.31 228.96H289.44H289.63H289.9H289.98H290.11H290.4L291.4 229.03H292.47C298.86 228.91 304.17 225.38 307.85 218.84C311.13 213.01 312.93 205.07 312.93 196.48C312.978 193.932 312.861 191.383 312.58 188.85Z" fill="#263238"/>
<path d="M301 156.86C295.928 156.97 290.94 158.178 286.38 160.4H286.3C285.593 160.76 284.903 161.15 284.23 161.57H284L282.92 161.33C288.297 157.876 294.53 155.989 300.92 155.88L301 156.86Z" fill="#263238"/>
<path d="M297.1 158.91C293.095 159.152 289.176 160.171 285.56 161.91L284.24 161.62H284.01C284.74 161.22 285.51 160.85 286.31 160.5H286.39C289.758 159.051 293.344 158.176 297 157.91L297.1 158.91Z" fill="#263238"/>
<path d="M296.49 155.74C291.535 156.501 286.82 158.389 282.71 161.26L281.4 161C285.796 157.742 290.921 155.607 296.33 154.78L296.49 155.74Z" fill="#263238"/>
<path d="M232.21 143.39C231.562 144.108 231.148 145.007 231.025 145.967C230.902 146.927 231.074 147.901 231.52 148.76C229.916 149.145 228.499 150.083 227.52 151.41C225.91 153.82 228.98 157.41 228.98 157.41C227.411 158.165 226.104 159.374 225.23 160.88C223.92 163.34 226.5 167.39 226.5 167.39C225.44 168.879 224.951 170.7 225.12 172.52C225.77 177.36 232.57 180.43 236.86 182.43C241.15 184.43 255.23 186.07 257.86 186.66L271 159.16C271 159.16 254.28 144.72 248.89 143.08C244.31 141.71 234.8 140.74 232.21 143.39Z" fill="#EB9481"/>
<path d="M231.92 148.41C237.1 148.71 241.92 150.53 246.8 152.07C246.823 152.078 246.841 152.095 246.851 152.116C246.862 152.138 246.863 152.162 246.855 152.185C246.847 152.208 246.83 152.226 246.809 152.236C246.787 152.247 246.763 152.248 246.74 152.24C241.89 150.65 236.74 150.04 231.88 148.65C231.848 148.645 231.82 148.627 231.801 148.601C231.782 148.574 231.775 148.542 231.78 148.51C231.785 148.478 231.803 148.45 231.829 148.431C231.856 148.412 231.888 148.405 231.92 148.41Z" fill="#263238"/>
<path d="M229.26 157.08C230.43 157.258 231.57 157.595 232.65 158.08C233.83 158.51 234.99 158.97 236.15 159.44C238.47 160.39 240.77 161.39 243.04 162.44C243.14 162.44 243.1 162.65 243.04 162.61C240.72 161.67 238.39 160.76 236.04 159.92C234.86 159.5 233.68 159.08 232.5 158.68C231.356 158.369 230.249 157.933 229.2 157.38C229.178 157.359 229.161 157.333 229.152 157.304C229.142 157.274 229.14 157.243 229.146 157.213C229.153 157.183 229.166 157.155 229.186 157.132C229.206 157.109 229.231 157.091 229.26 157.08Z" fill="#263238"/>
<path d="M226.62 167.41C227.672 167.592 228.687 167.951 229.62 168.47C230.67 168.93 231.72 169.37 232.77 169.82C234.88 170.7 236.99 171.59 239.12 172.4C239.23 172.4 239.18 172.61 239.12 172.57C236.94 171.75 234.76 170.97 232.59 170.14L229.4 168.89C228.394 168.602 227.449 168.135 226.61 167.51C226.61 167.51 226.57 167.41 226.62 167.41Z" fill="#263238"/>
<path d="M280.25 160.63C276.982 159.713 273.663 158.992 270.31 158.47C267.46 155.556 264.376 152.881 261.09 150.47C257.863 148.062 254.46 145.899 250.91 144C250.82 144 250.75 144.08 250.83 144.14C254.2 146.35 257.48 148.76 260.68 151.23C263.88 153.7 266.81 156.34 269.82 158.97C269.94 159.06 277.96 160.25 280.2 160.8C280.29 160.83 280.34 160.66 280.25 160.63Z" fill="#263238"/>
<path d="M309.18 152.39L331.18 166.94C331.18 166.94 337.96 151.35 339.83 139.94C341.7 128.53 338.9 125.12 326.77 135.53C314.64 145.94 309.18 152.39 309.18 152.39Z" fill="#FFC727"/>
<path d="M306.65 154.36L310.52 149.42L333.17 165.39L329.96 170.75L306.65 154.36Z" fill="#FFC727"/>
<path opacity="0.1" d="M306.65 154.36L310.52 149.42L333.17 165.39L329.96 170.75L306.65 154.36Z" fill="black"/>
<path d="M339.39 148.82C339.395 148.802 339.393 148.783 339.385 148.767C339.378 148.75 339.365 148.736 339.348 148.728C339.332 148.72 339.313 148.718 339.295 148.722C339.277 148.726 339.261 148.736 339.25 148.75C337.802 151.306 336.503 153.944 335.36 156.65C334.8 157.98 334.26 159.32 333.74 160.65C333.22 161.98 332.79 163.4 332.28 164.76C332.28 164.83 332.37 164.88 332.4 164.76C332.95 163.43 333.59 162.15 334.17 160.84C334.62 159.84 335.07 158.79 335.53 157.76C336.574 156.526 337.424 155.14 338.05 153.65C338.05 153.65 338.05 153.58 337.98 153.65C337.53 154.35 337.12 155.1 336.67 155.81C336.4 156.23 336.14 156.64 335.86 157.05L335.95 156.84C337.15 154.2 338.297 151.527 339.39 148.82Z" fill="#263238"/>
<path d="M204.77 410.56H98.46V453.68H204.77V410.56Z" fill="#FFC727"/>
<path d="M209.47 398.87H93.78V410.56H209.47V398.87Z" fill="#FFC727"/>
<path opacity="0.1" d="M204.78 410.56H98.46V418.79H204.78V410.56Z" fill="black"/>
<path d="M163.98 406.11H140.74V415.03H163.98V406.11Z" fill="#263238"/>
<path d="M172.34 398.87H166.83V391.89H136.41V398.87H130.9V386.38H172.34V398.87Z" fill="#263238"/>
</svg>
