<svg width="500" height="500" viewBox="0 0 500 500" fill="none" xmlns="http://www.w3.org/2000/svg">
<path d="M122.17 441.41C137.72 430.55 141.25 410.41 140.63 392.25C140.53 389.25 140.86 386.03 139.42 383.38C137.98 380.73 134.63 378.91 131.92 380.18C129.67 381.24 128.69 383.86 127.43 386.02C125.749 388.9 123.292 391.249 120.34 392.8C118.41 393.8 116.02 394.41 114.12 393.36C111.51 391.92 111.2 388.31 111.22 385.3C111.26 379.687 111.297 374.077 111.33 368.47C111.512 365.46 111.204 362.441 110.42 359.53C109.48 356.68 107.42 354.02 104.55 353.22C101.68 352.42 98.1503 354.07 97.5503 357.02C97.4385 358.263 97.4118 359.513 97.4703 360.76C97.3803 362.01 96.8003 363.4 95.6203 363.76C94.4403 364.12 93.2103 363.26 92.3103 362.38C89.2003 359.38 87.1003 355.43 85.1303 351.54C83.1603 347.65 81.2403 343.66 78.4203 340.34C75.6003 337.02 71.7103 334.4 67.4203 334.16C63.1303 333.92 58.5103 336.57 57.4203 340.81C56.3303 345.05 58.8103 349.35 61.5003 352.81C65.5031 357.902 70.2182 362.391 75.5003 366.14C76.5287 366.709 77.3485 367.592 77.8403 368.66C78.4903 370.66 76.5903 372.66 74.6103 373.32C72.3703 374.06 69.9303 373.83 67.6103 374.11C65.2903 374.39 62.7203 375.42 61.8303 377.64C60.6003 380.71 63.1703 383.94 65.7003 386.05C70.7619 390.276 76.5123 393.601 82.7003 395.88C84.9203 396.69 87.2503 397.4 89.0303 398.96C90.8103 400.52 91.9003 403.22 90.8203 405.34C89.7403 407.46 86.9703 408.14 84.6503 407.71C82.3303 407.28 80.2303 406 78.0003 405.15C73.8603 403.58 68.5203 403.87 65.8703 407.44C65.0628 408.672 64.5522 410.075 64.3786 411.537C64.2051 413 64.3734 414.483 64.8703 415.87C65.8783 418.63 67.4288 421.159 69.4303 423.31C75.987 431.18 84.5135 437.17 94.1403 440.67C103.73 444 112.62 444.9 122.14 441.41" fill="#F5F5F5"/>
<path d="M122.41 454.85C121.568 446.445 119.92 438.14 117.49 430.05C114.477 420.187 110.901 410.504 106.78 401.05L103.59 393.58C102.53 391.14 101.49 388.71 100.32 386.4C98.0662 381.964 95.5656 377.657 92.8302 373.5C90.2502 369.5 87.6602 365.82 85.2102 362.39C82.7602 358.96 80.4002 355.81 78.1402 353.03C74.5889 348.618 70.6898 344.499 66.4802 340.71C65.0002 339.37 63.8102 338.36 63.0002 337.71L62.0702 336.96C61.9716 336.865 61.8606 336.785 61.7402 336.72L62.0402 337C62.2602 337.2 62.5502 337.47 62.9302 337.8C63.7202 338.5 64.8802 339.53 66.3402 340.89C70.4753 344.736 74.3192 348.885 77.8402 353.3C80.0802 356.09 82.4002 359.25 84.8402 362.68C87.2802 366.11 89.8402 369.82 92.4102 373.8C95.1157 377.948 97.5927 382.242 99.8302 386.66C100.99 388.96 102.03 391.37 103.08 393.83L106.28 401.29C110.388 410.751 113.967 420.432 117 430.29C119.436 438.349 121.11 446.618 122 454.99" fill="#E0E0E0"/>
<path d="M100.16 386.34C100.297 385.92 100.394 385.488 100.45 385.05C100.61 384.22 100.8 383.05 101.01 381.51C101.44 378.51 101.88 374.35 102.36 369.77C102.84 365.19 103.36 361.04 103.81 358.06C104.04 356.57 104.24 355.36 104.38 354.53C104.49 354.102 104.547 353.662 104.55 353.22C104.376 353.624 104.249 354.047 104.17 354.48C103.96 355.3 103.7 356.48 103.42 357.99C102.85 360.99 102.28 365.12 101.81 369.71C101.34 374.3 100.94 378.33 100.62 381.46C100.47 382.87 100.34 384.06 100.24 385.02C100.162 385.455 100.136 385.898 100.16 386.34Z" fill="#E0E0E0"/>
<path d="M61.4604 379.1C61.9693 379.216 62.4887 379.28 63.0104 379.29C64.0104 379.38 65.4404 379.5 67.2104 379.7C70.7504 380.08 75.6305 380.78 80.9705 381.79C86.3105 382.8 91.1204 383.94 94.5704 384.85C96.3004 385.3 97.6905 385.69 98.6505 385.96C99.1416 386.131 99.6469 386.258 100.16 386.34C99.6984 386.097 99.2125 385.903 98.7104 385.76C97.7705 385.42 96.3904 384.97 94.7104 384.47C91.2804 383.47 86.4805 382.26 81.1205 381.24C76.5433 380.36 71.9238 379.716 67.2804 379.31C65.5004 379.15 64.0605 379.09 63.0605 379.07C62.5273 379.032 61.9918 379.043 61.4604 379.1Z" fill="#E0E0E0"/>
<path d="M117 429.33C117 429.33 117.11 429.18 117.27 428.86L117.93 427.46C118.5 426.24 119.28 424.46 120.21 422.24C122.08 417.81 124.46 411.61 127 404.72C129.54 397.83 131.87 391.62 133.64 387.16C134.51 384.99 135.22 383.16 135.76 381.87L136.32 380.43C136.397 380.264 136.454 380.089 136.49 379.91C136.381 380.058 136.29 380.22 136.22 380.39C136.04 380.76 135.82 381.23 135.56 381.79C134.99 383 134.21 384.79 133.28 387C131.41 391.44 129.03 397.64 126.49 404.53C123.95 411.42 121.62 417.63 119.85 422.09L117.73 427.38L117.17 428.82C117.096 428.984 117.039 429.154 117 429.33Z" fill="#E0E0E0"/>
<path d="M65.5903 412.76C65.7505 412.852 65.9219 412.923 66.1003 412.97L67.6003 413.47L73.1003 415.26C77.7503 416.77 84.1503 418.92 91.2203 421.31C98.2903 423.7 104.71 425.81 109.39 427.22C111.73 427.93 113.63 428.48 114.95 428.83L116.47 429.23C116.644 429.292 116.826 429.326 117.01 429.33C116.849 429.241 116.678 429.17 116.5 429.12L115.01 428.62L109.5 426.84C104.85 425.33 98.5003 423.18 91.3903 420.78C84.2803 418.38 77.9003 416.29 73.2203 414.88C70.8803 414.17 68.9803 413.62 67.6603 413.26L66.1303 412.86C65.9554 412.803 65.7739 412.77 65.5903 412.76Z" fill="#E0E0E0"/>
<path d="M387.63 334.03V296.69H397.6V334.28L387.63 334.03Z" fill="#EBEBEB"/>
<path d="M397.78 334.03V296.69H407.74V334.28L397.78 334.03Z" fill="#E0E0E0"/>
<path d="M414.63 334.29V307.52H421.77V334.47L414.63 334.29Z" fill="#EBEBEB"/>
<path d="M421.91 334.29V307.52H429.05V334.47L421.91 334.29Z" fill="#E0E0E0"/>
<path d="M432.25 334.18H271.5V408.32H432.25V334.18Z" fill="#F5F5F5"/>
<path d="M428.43 404.82H275.18V338.08H428.43V404.82ZM276.18 403.82H427.43V339.08H276.18V403.82Z" fill="#E0E0E0"/>
<path d="M471.53 334.18H432.26V408.32H471.53V334.18Z" fill="#E0E0E0"/>
<path d="M275.68 358.73H427.93C427.983 358.73 428.034 358.709 428.072 358.671C428.109 358.634 428.13 358.583 428.13 358.53C428.13 358.477 428.109 358.426 428.072 358.389C428.034 358.351 427.983 358.33 427.93 358.33H275.68C275.627 358.33 275.576 358.351 275.539 358.389C275.501 358.426 275.48 358.477 275.48 358.53C275.48 358.583 275.501 358.634 275.539 358.671C275.576 358.709 275.627 358.73 275.68 358.73Z" fill="#E0E0E0"/>
<path d="M352.3 358.53C352.725 351.824 352.745 345.098 352.36 338.39C352.35 338.343 352.324 338.302 352.287 338.272C352.249 338.242 352.203 338.226 352.155 338.226C352.108 338.226 352.061 338.242 352.024 338.272C351.987 338.302 351.961 338.343 351.95 338.39C351.557 345.098 351.574 351.824 352 358.53C352 358.57 352.016 358.608 352.044 358.636C352.072 358.664 352.111 358.68 352.15 358.68C352.19 358.68 352.228 358.664 352.256 358.636C352.285 358.608 352.3 358.57 352.3 358.53Z" fill="#E0E0E0"/>
<path d="M393.28 348.46C393.28 348.869 393.159 349.27 392.931 349.61C392.704 349.95 392.381 350.216 392.002 350.372C391.624 350.529 391.208 350.57 390.806 350.49C390.405 350.41 390.036 350.213 389.746 349.924C389.457 349.634 389.26 349.265 389.18 348.864C389.1 348.462 389.141 348.046 389.298 347.668C389.454 347.29 389.72 346.966 390.06 346.739C390.401 346.511 390.801 346.39 391.21 346.39C391.759 346.39 392.286 346.608 392.674 346.996C393.062 347.384 393.28 347.911 393.28 348.46Z" fill="#E0E0E0"/>
<path d="M313.38 348.46C313.38 348.869 313.259 349.27 313.031 349.61C312.804 349.95 312.481 350.216 312.102 350.372C311.724 350.529 311.308 350.57 310.906 350.49C310.505 350.41 310.136 350.213 309.847 349.924C309.557 349.634 309.36 349.265 309.28 348.864C309.2 348.462 309.241 348.046 309.398 347.668C309.554 347.29 309.82 346.966 310.16 346.739C310.501 346.511 310.901 346.39 311.31 346.39C311.859 346.39 312.386 346.608 312.774 346.996C313.162 347.384 313.38 347.911 313.38 348.46Z" fill="#E0E0E0"/>
<path d="M353.88 371.45C353.882 371.862 353.762 372.266 353.534 372.609C353.306 372.953 352.981 373.221 352.601 373.38C352.22 373.538 351.801 373.58 351.397 373.5C350.992 373.421 350.621 373.222 350.329 372.931C350.038 372.639 349.84 372.268 349.76 371.863C349.68 371.459 349.722 371.04 349.88 370.659C350.039 370.279 350.307 369.954 350.651 369.726C350.994 369.499 351.398 369.378 351.81 369.38C352.359 369.38 352.886 369.598 353.274 369.986C353.662 370.374 353.88 370.901 353.88 371.45Z" fill="#E0E0E0"/>
<path d="M290.72 408.32L282.45 454.86H287.1L302.36 408.32H290.72Z" fill="#E0E0E0"/>
<path d="M420.88 408.32L427.81 454.94H423.15L409.25 408.32H420.88Z" fill="#E0E0E0"/>
<path d="M451.96 408.32L459.8 454.94H455.15L440.32 408.32H451.96Z" fill="#E0E0E0"/>
<path d="M353.74 392.43C353.742 392.842 353.622 393.246 353.394 393.589C353.166 393.933 352.841 394.201 352.461 394.36C352.08 394.518 351.661 394.56 351.257 394.48C350.853 394.401 350.481 394.202 350.19 393.911C349.898 393.619 349.7 393.248 349.62 392.843C349.54 392.439 349.582 392.02 349.741 391.639C349.899 391.259 350.167 390.934 350.511 390.706C350.855 390.479 351.258 390.358 351.67 390.36C352.219 390.363 352.743 390.582 353.131 390.969C353.519 391.357 353.738 391.882 353.74 392.43Z" fill="#E0E0E0"/>
<path d="M275.68 381.69H427.93C427.983 381.69 428.034 381.669 428.072 381.631C428.109 381.594 428.13 381.543 428.13 381.49C428.13 381.437 428.109 381.386 428.072 381.349C428.034 381.311 427.983 381.29 427.93 381.29H275.68C275.627 381.29 275.576 381.311 275.539 381.349C275.501 381.386 275.48 381.437 275.48 381.49C275.48 381.543 275.501 381.594 275.539 381.631C275.576 381.669 275.627 381.69 275.68 381.69Z" fill="#E0E0E0"/>
<path d="M440.19 60.28H331.81V254.98H440.19V60.28Z" fill="#EBEBEB"/>
<path d="M434.74 65.93H336.14V249.18H434.74V65.93Z" fill="#FAFAFA"/>
<path d="M434.75 68.09L336.14 193.51V65.93H434.75V68.09Z" fill="#F5F5F5"/>
<path d="M436.88 118.65H336.14V120.6H436.88V118.65Z" fill="#EBEBEB"/>
<path d="M436.88 162.29H336.14V164.24H436.88V162.29Z" fill="#EBEBEB"/>
<path d="M436.88 205.92H336.14V207.87H436.88V205.92Z" fill="#EBEBEB"/>
<path d="M382.96 119.61V254.37H387.94V119.61H382.96Z" fill="#EBEBEB"/>
<path d="M357.39 65.93H355.13V119.62H357.39V65.93Z" fill="#EBEBEB"/>
<path d="M376.86 65.93H374.6V119.62H376.86V65.93Z" fill="#EBEBEB"/>
<path d="M396.32 65.93H394.06V119.62H396.32V65.93Z" fill="#EBEBEB"/>
<path d="M415.78 65.93H413.52V119.62H415.78V65.93Z" fill="#EBEBEB"/>
<path d="M331.81 56.98H327.23V256.18H331.81V56.98Z" fill="#F5F5F5"/>
<path d="M444.78 256.74L440.19 254.98V56.98H444.78V256.74Z" fill="#E0E0E0"/>
<path d="M444.78 54.97H327.23V60.28H444.78V54.97Z" fill="#E0E0E0"/>
<path d="M447.88 257.39H323.98V262.34H447.88V257.39Z" fill="#E0E0E0"/>
<path d="M440.19 254.98L447.88 257.39H323.98L331.81 254.98H440.19Z" fill="#EBEBEB"/>
<path d="M161.46 63.58H53.0801V258.28H161.46V63.58Z" fill="#EBEBEB"/>
<path d="M156.01 69.22H57.4102V252.47H156.01V69.22Z" fill="#FAFAFA"/>
<path d="M156.01 71.38L57.4102 196.81V69.22H156.01V71.38Z" fill="#F5F5F5"/>
<path d="M158.15 121.94H57.4102V123.89H158.15V121.94Z" fill="#EBEBEB"/>
<path d="M158.15 165.58H57.4102V167.53H158.15V165.58Z" fill="#EBEBEB"/>
<path d="M158.15 209.22H57.4102V211.17H158.15V209.22Z" fill="#EBEBEB"/>
<path d="M104.22 122.91L104.22 257.67H109.2L109.2 122.91H104.22Z" fill="#EBEBEB"/>
<path d="M78.6604 69.22H76.4004V122.91H78.6604V69.22Z" fill="#EBEBEB"/>
<path d="M98.1204 69.22H95.8604V122.91H98.1204V69.22Z" fill="#EBEBEB"/>
<path d="M117.59 69.22H115.33V122.91H117.59V69.22Z" fill="#EBEBEB"/>
<path d="M137.05 69.22H134.79V122.91H137.05V69.22Z" fill="#EBEBEB"/>
<path d="M53.0702 60.28H48.4902V259.48H53.0702V60.28Z" fill="#F5F5F5"/>
<path d="M166.04 260.03L161.46 258.28V60.28H166.04V260.03Z" fill="#E0E0E0"/>
<path d="M166.04 58.27H48.4902V63.58H166.04V58.27Z" fill="#E0E0E0"/>
<path d="M169.14 260.69H45.2402V265.64H169.14V260.69Z" fill="#E0E0E0"/>
<path d="M161.46 258.28L169.15 260.69H45.2402L53.0802 258.28H161.46Z" fill="#EBEBEB"/>
<path d="M461.27 454.94C461.27 455.09 369.37 455.2 256.04 455.2C142.71 455.2 50.79 455.09 50.79 454.94C50.79 454.79 142.66 454.68 256.04 454.68C369.42 454.68 461.27 454.8 461.27 454.94Z" fill="#263238"/>
<path d="M308.82 197.34C308.2 198.09 308.17 204.34 308.17 204.34C308.17 204.34 293.52 229.34 291.48 229.68C289.44 230.02 280.56 212.34 280.56 212.34L271.43 220.74C271.43 220.74 276.19 243.08 291.07 246.91C298.07 248.72 310.35 226.45 318.53 207.91C318.66 207.62 322.9 197.54 322.9 197.54L308.82 197.34Z" fill="#A56959"/>
<path d="M298.679 135.674L294.352 137.083L324.639 230.075L328.965 228.666L298.679 135.674Z" fill="#263238"/>
<path d="M296.398 136.136L292.076 137.547L322.394 230.457L326.716 229.046L296.398 136.136Z" fill="#455A64"/>
<path d="M315.418 80.0781L252.986 100.412L269.402 150.816L331.834 130.482L315.418 80.0781Z" fill="#FF725E"/>
<g opacity="0.3">
<path opacity="0.3" d="M315.418 80.0781L252.986 100.412L269.402 150.816L331.834 130.482L315.418 80.0781Z" fill="black"/>
</g>
<path d="M313.174 80.8059L250.742 101.14L267.158 151.544L329.591 131.21L313.174 80.8059Z" fill="#FF725E"/>
<path d="M282.83 114.8L284.94 114.07L287.32 106.07L285.85 101.84C285.85 101.84 289.05 100.5 290.59 106.17C292.13 111.84 292.06 110.28 292.06 110.28C292.06 110.28 299.01 107.89 299.8 108.28C300.37 108.57 302.96 115.4 304.34 119.12C304.7 120.007 304.752 120.989 304.49 121.91C304.227 122.83 303.664 123.636 302.89 124.2C302.667 124.346 302.429 124.466 302.18 124.56C300.44 125.16 291.1 126.84 291.1 126.84L287.45 128.11L282.83 114.8Z" fill="white"/>
<path d="M276.37 115.75L282.71 129.77L286.33 128.51L281.39 114.33L276.37 115.75Z" fill="white"/>
<path d="M324.06 196.18C324.058 196.257 324.037 196.333 324 196.4C323.57 197.4 321.55 200.23 320.86 200.09C320.17 199.95 319.03 200.09 319.35 198.27C320.025 196.909 320.804 195.602 321.68 194.36C321.68 194.36 322.22 193.7 323.75 194.29C324.69 194.66 324.06 196.18 324.06 196.18Z" fill="#A56959"/>
<path d="M322.07 193.12C322.066 193.204 322.042 193.287 322 193.36C321.5 194.52 318.77 199.22 318.08 199.1C317.39 198.98 315.89 197.68 316.13 196.99C316.37 196.3 319.74 191.18 319.74 191.18C319.74 191.18 320.33 190.4 321.86 190.99C322.8 191.35 322.07 193.12 322.07 193.12Z" fill="#A56959"/>
<path d="M319.76 190.7C319.76 190.7 319.76 190.81 319.69 190.95C319.2 192.1 316.46 196.81 315.77 196.68C315.08 196.55 313.58 195.27 313.82 194.58C314.06 193.89 317.44 188.76 317.44 188.76C317.44 188.76 318.02 187.99 319.55 188.57C320.5 188.94 319.76 190.7 319.76 190.7Z" fill="#A56959"/>
<path d="M317.44 188.35C317.44 188.35 317.44 188.45 317.37 188.59C316.87 189.74 314.14 194.45 313.45 194.33C312.76 194.21 311.26 192.91 311.5 192.22C311.74 191.53 315.11 186.41 315.11 186.41C315.11 186.41 315.7 185.63 317.23 186.22C318.18 186.58 317.44 188.35 317.44 188.35Z" fill="#A56959"/>
<path d="M318.77 198.9C319.369 198.239 319.88 197.503 320.29 196.71C320.787 195.989 321.193 195.21 321.5 194.39C320.899 195.046 320.388 195.779 319.98 196.57C319.482 197.294 319.076 198.076 318.77 198.9Z" fill="#7C4435"/>
<path d="M316 197.34C316.802 196.367 317.509 195.319 318.11 194.21C318.818 193.162 319.427 192.05 319.93 190.89C319.14 191.875 318.434 192.926 317.82 194.03C317.118 195.078 316.509 196.186 316 197.34Z" fill="#7C4435"/>
<g opacity="0.78">
<path opacity="0.78" d="M313.69 194.46C314.411 193.66 315.044 192.785 315.58 191.85C316.213 190.981 316.75 190.046 317.18 189.06C316.463 189.867 315.83 190.745 315.29 191.68C314.658 192.546 314.121 193.478 313.69 194.46Z" fill="#7C4435"/>
</g>
<path d="M309.7 205.55L308.7 201.16C308.267 199.244 308.59 197.235 309.6 195.55L310.37 194.26L320.37 199.31C320.37 199.31 317.58 202.21 315.17 200.37C316.8 202.37 316.82 206.07 315.78 208.96L309.7 205.55Z" fill="#A56959"/>
<path d="M316.05 204.49C315.99 204.49 316.05 203.99 315.96 203.13C315.762 201.957 315.152 200.894 314.24 200.13L313.32 199.4L314.44 199.76L316.92 200.56H316.87C317.412 200.653 317.969 200.591 318.477 200.38C318.985 200.169 319.423 199.819 319.74 199.37C319.79 199.29 319.83 199.2 319.86 199.15L319.99 199.47C317.23 198.22 314.75 197.05 312.99 196.1C312.022 195.645 311.106 195.085 310.26 194.43C311.251 194.818 312.216 195.269 313.15 195.78C314.93 196.64 317.42 197.78 320.15 199L320.37 199.1L320.29 199.32C320.243 199.43 320.189 199.536 320.13 199.64C319.767 200.213 319.221 200.647 318.58 200.87C317.995 201.07 317.372 201.131 316.76 201.05H316.71L314.24 200.19L314.45 199.82C315.425 200.657 316.035 201.841 316.15 203.12C316.239 203.577 316.205 204.05 316.05 204.49Z" fill="#7C4435"/>
<path d="M319.64 197.8C319.74 197.8 319.5 198.32 319.56 199.04C319.568 199.227 319.634 199.408 319.749 199.556C319.863 199.705 320.021 199.814 320.2 199.87C320.443 199.884 320.685 199.834 320.903 199.726C321.12 199.617 321.306 199.453 321.44 199.25C322.17 198.3 322.9 197.45 323.35 196.82C323.8 196.19 324.05 195.75 324.13 195.82C324.21 195.89 324.05 196.33 323.66 197.05C323.107 197.946 322.496 198.804 321.83 199.62C321.639 199.892 321.376 200.105 321.07 200.236C320.765 200.366 320.429 200.409 320.1 200.36C319.829 200.28 319.591 200.112 319.427 199.881C319.262 199.651 319.178 199.373 319.19 199.09C319.187 198.742 319.27 198.399 319.43 198.09C319.53 197.88 319.61 197.78 319.64 197.8Z" fill="#7C4435"/>
<path d="M191 199.84C191 199.84 204.83 227.02 206.87 227.41C208.91 227.8 217.41 211 217.41 211L230.3 221.23C230.3 221.23 221.89 241.13 208.82 247.1C202.22 250.1 189.55 226.63 181.36 208.1L177 197.79" fill="#A56959"/>
<path d="M192.71 205.06C192.71 205.06 192.36 203.68 191.01 199.84L191.15 190.07C191.15 190.07 189.46 188.87 189.15 193.34C189.083 193.851 188.839 194.322 188.459 194.67C188.08 195.019 187.59 195.222 187.075 195.245C186.56 195.268 186.054 195.108 185.645 194.794C185.236 194.481 184.951 194.033 184.84 193.53C184.654 192.859 184.672 192.148 184.89 191.486C185.109 190.825 185.519 190.244 186.068 189.815C186.617 189.387 187.281 189.131 187.976 189.081C188.67 189.03 189.364 189.186 189.97 189.53C189.97 189.53 191.31 189.03 190.97 187.96C190.63 186.89 186.54 185.84 184.44 187.77C183.577 188.573 182.895 189.552 182.44 190.64C182.44 190.64 178.93 182.17 178.23 182.42C177.53 182.67 176.85 183.63 180.77 192.88C180.77 192.88 177 185.88 176.41 185.08C175.82 184.28 174.3 184.23 175.27 186.58L178.37 194.05C178.37 194.05 175.3 189.82 175.03 189.49C174.32 188.63 173.41 189.21 173.96 190.54L176.11 195.88L181.85 209.05H181.76" fill="#A56959"/>
<path d="M180.53 198.52C180.53 198.52 180.86 198.6 181.36 198.79C182.025 199.039 182.612 199.46 183.06 200.01L183.21 200.18L183.27 199.96C183.351 199.707 183.448 199.46 183.56 199.22C183.961 198.413 184.564 197.724 185.31 197.22C185.88 196.84 186.31 196.71 186.31 196.67C185.927 196.717 185.56 196.854 185.24 197.07C184.432 197.539 183.779 198.235 183.36 199.07C183.238 199.325 183.138 199.589 183.06 199.86L183.27 199.81C182.788 199.236 182.148 198.816 181.43 198.6C181.14 198.505 180.832 198.478 180.53 198.52Z" fill="#7C4435"/>
<path d="M241 148.22C240.131 146.712 238.817 145.51 237.238 144.777C235.659 144.045 233.892 143.819 232.18 144.13C230.478 144.488 228.885 145.241 227.528 146.329C226.172 147.416 225.09 148.807 224.37 150.39C222.962 153.591 222.612 157.157 223.37 160.57C224.02 163.99 225.49 167.57 224.32 170.83C223.476 172.789 222.087 174.465 220.32 175.66C218.558 176.837 216.887 178.144 215.32 179.57C214.531 180.288 213.907 181.168 213.491 182.151C213.075 183.133 212.876 184.194 212.91 185.26C213.12 187.38 215.05 189.37 217.16 189.09C214.16 191.39 213.5 195.85 214.91 199.32C216.32 202.79 219.47 205.32 222.91 206.84C225.73 208.08 228.98 208.72 231.91 207.72C233.365 207.145 234.683 206.27 235.777 205.152C236.871 204.034 237.717 202.697 238.26 201.23C239.334 198.288 239.843 195.17 239.76 192.04C239.83 186.97 239.28 181.7 236.67 177.36C236.96 179.08 239.2 179.99 240.78 179.25C241.545 178.825 242.166 178.181 242.561 177.4C242.957 176.62 243.11 175.738 243 174.87C242.741 173.134 241.952 171.52 240.74 170.25C239.6 168.92 238.26 167.79 237.11 166.48C234.82 163.87 233.31 160.36 233.86 156.94C234.41 153.52 237.48 150.42 240.94 150.59" fill="#263238"/>
<path d="M215.79 175.8C215.79 175.8 215.89 175.62 215.98 175.24C216.087 174.694 215.999 174.127 215.73 173.64C215.536 173.255 215.232 172.937 214.856 172.727C214.48 172.517 214.049 172.424 213.62 172.46C213.061 172.507 212.529 172.723 212.097 173.081C211.664 173.438 211.351 173.92 211.2 174.46C211.06 175.134 211.129 175.835 211.396 176.469C211.664 177.103 212.119 177.641 212.7 178.01C213.384 178.424 214.161 178.66 214.959 178.695C215.758 178.73 216.553 178.563 217.27 178.21C218.891 177.427 220.212 176.134 221.03 174.53C221.932 172.807 222.386 170.885 222.35 168.94C222.254 166.985 221.887 165.054 221.26 163.2C220.672 161.423 220.378 159.562 220.39 157.69C220.618 154.49 222.022 151.488 224.33 149.26C225.849 147.775 227.616 146.567 229.55 145.69C230.23 145.38 230.78 145.18 231.15 145.04C231.336 144.962 231.531 144.909 231.73 144.88C231.556 144.979 231.376 145.066 231.19 145.14C230.83 145.3 230.3 145.53 229.64 145.87C227.787 146.809 226.099 148.041 224.64 149.52C222.448 151.708 221.126 154.619 220.92 157.71C220.924 159.529 221.221 161.336 221.8 163.06C222.446 164.955 222.823 166.931 222.92 168.93C222.957 170.963 222.479 172.972 221.53 174.77C220.656 176.465 219.251 177.828 217.53 178.65C216.74 179.026 215.868 179.198 214.994 179.149C214.121 179.1 213.273 178.832 212.53 178.37C211.884 177.948 211.383 177.339 211.093 176.624C210.803 175.909 210.74 175.122 210.91 174.37C211.076 173.753 211.432 173.204 211.928 172.8C212.423 172.397 213.032 172.159 213.67 172.12C214.194 172.085 214.715 172.226 215.15 172.52C215.507 172.778 215.792 173.122 215.98 173.52C216.252 174.051 216.313 174.666 216.15 175.24C216.082 175.455 215.958 175.649 215.79 175.8Z" fill="#263238"/>
<path d="M176.83 443.88L176.13 446.54C176.13 446.54 166.5 462.21 167.64 463.67C168.41 464.655 169.461 465.383 170.654 465.756C171.847 466.129 173.126 466.131 174.32 465.76C177.67 464.92 191.81 451.48 191.81 451.48L192.62 449.34L176.83 443.88Z" fill="#FF725E"/>
<g opacity="0.3">
<path opacity="0.3" d="M168.6 460.12C168.6 460.12 172.77 458.28 175.17 463.66C175.17 463.66 176.98 462.99 181.98 458.8C186.98 454.61 191.81 450.52 191.81 450.52C191.81 450.52 192.33 450.11 192.17 450.52C192.01 450.93 191.81 451.66 191.81 451.66L182.16 460.17C182.16 460.17 176.37 465.17 174.92 465.52C173.47 465.87 172.01 466.41 170.17 465.58C168.991 465.152 168.012 464.305 167.42 463.2C167.42 463 168.6 460.12 168.6 460.12Z" fill="black"/>
</g>
<path d="M175.73 465.43C175.73 465.43 175.58 464.89 175.22 464.09C174.761 463.053 174.078 462.131 173.22 461.39C172.347 460.667 171.321 460.15 170.22 459.88C169.37 459.67 168.81 459.67 168.82 459.61C169.302 459.532 169.796 459.552 170.27 459.67C171.433 459.884 172.521 460.393 173.43 461.15C174.327 461.919 175.015 462.903 175.43 464.01C175.633 464.455 175.736 464.94 175.73 465.43Z" fill="#263238"/>
<path d="M192.62 449.84C192.553 449.926 192.476 450.003 192.39 450.07L191.72 450.67L189.21 452.84L180.84 459.93C179.34 461.284 177.727 462.509 176.02 463.59C174.589 464.479 172.908 464.879 171.23 464.73C170.087 464.59 169.027 464.061 168.23 463.23C167.941 462.932 167.723 462.573 167.59 462.18C167.796 462.539 168.041 462.874 168.32 463.18C169.103 463.953 170.126 464.436 171.22 464.55C172.845 464.66 174.463 464.25 175.84 463.38C177.523 462.292 179.115 461.067 180.6 459.72L189.03 452.72L191.6 450.63L192.31 450.07C192.51 449.91 192.613 449.833 192.62 449.84Z" fill="#263238"/>
<path d="M177.36 456.43C176.731 456.121 176.134 455.749 175.58 455.32C174.966 454.985 174.386 454.589 173.85 454.14C174.538 454.317 175.184 454.629 175.75 455.06C176.369 455.409 176.916 455.874 177.36 456.43Z" fill="#263238"/>
<path d="M179.43 454.18C178.676 453.936 177.944 453.632 177.24 453.27C176.498 452.993 175.78 452.658 175.09 452.27C176.661 452.576 178.143 453.229 179.43 454.18Z" fill="#263238"/>
<path d="M181.34 452.24C181.28 452.31 180.41 451.55 179.14 450.93C177.87 450.31 176.75 450.08 176.76 449.99C177.643 449.987 178.512 450.214 179.28 450.65C180.092 450.995 180.801 451.542 181.34 452.24Z" fill="#263238"/>
<path d="M182.46 449.94C182.4 450.02 181.59 449.43 180.46 448.94C179.33 448.45 178.36 448.23 178.38 448.14C179.913 448.209 181.364 448.856 182.44 449.95L182.46 449.94Z" fill="#263238"/>
<path d="M182 447.77C181.558 447.579 181.154 447.307 180.81 446.97C180.415 446.629 180.05 446.254 179.72 445.85C179.525 445.615 179.345 445.367 179.18 445.11C179.073 444.971 178.989 444.816 178.93 444.65C178.89 444.547 178.878 444.435 178.896 444.326C178.913 444.217 178.96 444.115 179.03 444.03C179.18 443.906 179.363 443.829 179.557 443.807C179.751 443.786 179.946 443.822 180.12 443.91C180.426 444.028 180.7 444.216 180.92 444.46C181.285 444.856 181.538 445.343 181.65 445.87C181.725 446.215 181.758 446.567 181.75 446.92C181.75 447.17 181.75 447.3 181.69 447.3C181.63 447.3 181.69 446.75 181.43 445.92C181.302 445.445 181.054 445.011 180.71 444.66C180.51 444.459 180.272 444.299 180.01 444.19C179.892 444.13 179.76 444.102 179.628 444.111C179.496 444.12 179.369 444.164 179.26 444.24C179.11 444.4 179.26 444.69 179.43 444.94C179.59 445.192 179.764 445.436 179.95 445.67C180.254 446.075 180.589 446.456 180.95 446.81C181.56 447.41 182 447.73 182 447.77Z" fill="#263238"/>
<path d="M181.76 447.49C181.771 447.357 181.808 447.228 181.87 447.11C182.019 446.78 182.21 446.47 182.44 446.19C182.794 445.777 183.226 445.437 183.71 445.19C183.995 445.041 184.297 444.927 184.61 444.85C184.795 444.81 184.985 444.81 185.17 444.85C185.281 444.876 185.382 444.931 185.463 445.011C185.544 445.09 185.602 445.19 185.63 445.3C185.637 445.487 185.603 445.674 185.53 445.846C185.458 446.019 185.348 446.174 185.21 446.3C184.994 446.542 184.748 446.757 184.48 446.94C184.029 447.243 183.517 447.445 182.98 447.53C182.623 447.59 182.257 447.59 181.9 447.53C181.65 447.53 181.52 447.43 181.52 447.41C181.996 447.42 182.471 447.383 182.94 447.3C183.437 447.192 183.906 446.985 184.32 446.69C184.563 446.517 184.785 446.316 184.98 446.09C185.087 445.996 185.172 445.881 185.231 445.752C185.289 445.622 185.32 445.482 185.32 445.34C185.32 445.11 184.96 445.06 184.67 445.12C184.38 445.188 184.098 445.289 183.83 445.42C183.373 445.641 182.96 445.943 182.61 446.31C182.304 446.686 182.02 447.08 181.76 447.49Z" fill="#263238"/>
<path d="M189.88 448.58C189.428 448.48 188.957 448.508 188.52 448.66C187.484 449.102 186.628 449.881 186.09 450.87C185.545 451.854 185.322 452.983 185.45 454.1C185.55 454.97 185.78 455.47 185.73 455.49C185.45 455.09 185.278 454.625 185.23 454.14C185.028 452.963 185.236 451.752 185.82 450.71C186.386 449.656 187.323 448.851 188.45 448.45C188.68 448.352 188.932 448.313 189.181 448.335C189.431 448.358 189.671 448.442 189.88 448.58Z" fill="#263238"/>
<path d="M184.17 454.9C183.157 456.034 181.993 457.023 180.71 457.84C181.18 457.24 181.728 456.705 182.34 456.25C182.883 455.715 183.499 455.261 184.17 454.9Z" fill="#263238"/>
<path d="M186.08 453.88C186.17 453.88 186.28 454.08 186.34 454.34C186.4 454.6 186.34 454.83 186.29 454.86C186.24 454.89 186.09 454.68 186.03 454.4C185.97 454.12 186 453.89 186.08 453.88Z" fill="#263238"/>
<path d="M186.32 451.91C186.41 451.91 186.42 452.17 186.32 452.43C186.22 452.69 186.14 452.89 186.06 452.88C185.98 452.87 185.95 452.64 186.06 452.36C186.17 452.08 186.24 451.88 186.32 451.91Z" fill="#263238"/>
<path d="M187.38 450.23C187.45 450.3 187.38 450.48 187.18 450.7C186.98 450.92 186.83 451.05 186.76 451.01C186.69 450.97 186.76 450.74 186.93 450.51C187.1 450.28 187.33 450.17 187.38 450.23Z" fill="#263238"/>
<path d="M189.07 449.19C189.07 449.27 188.93 449.43 188.69 449.54C188.45 449.65 188.22 449.69 188.17 449.62C188.12 449.55 188.3 449.38 188.56 449.26C188.82 449.14 189.05 449.11 189.07 449.19Z" fill="#263238"/>
<path d="M191.05 449C191.05 449.08 190.81 449.16 190.55 449.16C190.29 449.16 190.06 449.09 190.05 449C190.04 448.91 190.26 448.85 190.55 448.84C190.84 448.83 191.06 448.87 191.05 449Z" fill="#263238"/>
<path d="M302.69 449.32L302.62 447.43L283.45 447.98L283.61 454.22H284.8C290.08 454.35 311.63 454.54 315.12 453.45C319 452.28 302.69 449.32 302.69 449.32Z" fill="#FF725E"/>
<g opacity="0.3">
<path opacity="0.3" d="M290.53 453.9C290.182 452.382 289.27 451.052 287.98 450.18C286.666 449.269 285.071 448.855 283.48 449.01L283.63 454.01L290.53 453.9Z" fill="black"/>
</g>
<g opacity="0.3">
<path opacity="0.3" d="M310.68 451C310.68 451 316.41 452.37 315.73 453.26C315.05 454.15 293.25 454.72 283.61 454.19V453.79L309.04 453.33C309.04 453.33 309.57 451.1 310.68 451Z" fill="black"/>
</g>
<path d="M283.33 453.82H283.66H284.61L288.08 453.87C291.01 453.87 295.08 453.87 299.54 453.76C304 453.65 308.06 453.46 310.99 453.29L314.46 453.06L315.4 452.98H315.72H315.39H314.45L310.98 453.13C308.05 453.27 303.98 453.43 299.53 453.54C295.08 453.65 291.01 453.7 288.08 453.72H284.61H283.66L283.33 453.82Z" fill="#263238"/>
<path d="M309.06 453.63C309.275 452.506 309.898 451.501 310.81 450.81C310.235 451.021 309.755 451.433 309.46 451.97C309.118 452.451 308.974 453.046 309.06 453.63Z" fill="#263238"/>
<path d="M303.35 451.12C303.41 451.12 303.67 450.84 303.93 450.43C304.19 450.02 304.37 449.65 304.31 449.62C304.25 449.59 304 449.9 303.73 450.32C303.46 450.74 303.3 451.09 303.35 451.12Z" fill="#263238"/>
<path d="M301.78 450.41C301.83 450.41 302.12 450.25 302.44 449.97C302.76 449.69 302.99 449.42 302.94 449.38C302.89 449.34 302.6 449.53 302.28 449.81C301.96 450.09 301.74 450.36 301.78 450.41Z" fill="#263238"/>
<path d="M300.75 448.76C301.409 448.907 302.091 448.907 302.75 448.76C302.426 448.665 302.086 448.635 301.75 448.67C301.414 448.629 301.073 448.66 300.75 448.76Z" fill="#263238"/>
<path d="M300.38 447.58C300.718 447.781 301.107 447.879 301.5 447.86C301.893 447.915 302.293 447.853 302.65 447.68C302.27 447.65 301.889 447.65 301.51 447.68C301.136 447.618 300.759 447.585 300.38 447.58Z" fill="#263238"/>
<path d="M304 449.56C304.407 449.627 304.823 449.627 305.23 449.56C305.668 449.497 306.099 449.396 306.52 449.26C306.778 449.185 307.026 449.081 307.26 448.95C307.4 448.869 307.506 448.742 307.56 448.59C307.574 448.504 307.563 448.415 307.527 448.335C307.491 448.255 307.433 448.187 307.36 448.14C306.887 447.937 306.361 447.894 305.861 448.017C305.362 448.139 304.915 448.421 304.59 448.82C304.409 449.048 304.282 449.315 304.22 449.6C304.194 449.698 304.194 449.802 304.22 449.9C304.338 449.539 304.518 449.201 304.75 448.9C305.014 448.589 305.361 448.36 305.75 448.24C306.223 448.06 306.747 448.06 307.22 448.24C307.42 448.37 307.35 448.58 307.13 448.71C306.916 448.834 306.688 448.932 306.45 449C306.042 449.143 305.624 449.256 305.2 449.34C304.42 449.51 304 449.52 304 449.56Z" fill="#263238"/>
<path d="M304.27 449.61C304.412 449.369 304.455 449.082 304.39 448.81C304.327 448.512 304.193 448.234 304 448C303.888 447.835 303.74 447.699 303.566 447.602C303.392 447.505 303.199 447.449 303 447.44C302.881 447.464 302.776 447.534 302.708 447.636C302.641 447.737 302.616 447.861 302.64 447.98C302.67 448.163 302.745 448.335 302.86 448.48C303.029 448.732 303.231 448.961 303.46 449.16C303.661 449.363 303.908 449.514 304.18 449.6C304.18 449.6 303.93 449.4 303.58 449.05C303.373 448.85 303.192 448.625 303.04 448.38C302.87 448.14 302.74 447.71 303.04 447.65C303.204 447.663 303.363 447.712 303.507 447.793C303.65 447.874 303.774 447.986 303.87 448.12C304.046 448.333 304.172 448.582 304.24 448.85C304.272 449.102 304.282 449.356 304.27 449.61Z" fill="#263238"/>
<path d="M283.58 449C283.58 449 284.12 448.93 284.99 449C286.103 449.098 287.173 449.476 288.1 450.1C288.983 450.726 289.675 451.584 290.1 452.58C290.41 453.33 290.46 453.84 290.5 453.84C290.522 453.721 290.522 453.599 290.5 453.48C290.453 453.156 290.373 452.837 290.26 452.53C289.874 451.48 289.176 450.573 288.26 449.93C287.302 449.274 286.18 448.9 285.02 448.85C284.669 448.838 284.317 448.858 283.97 448.91C283.7 448.9 283.57 448.94 283.58 449Z" fill="#263238"/>
<path d="M292.88 452.1C293.798 452.281 294.736 452.345 295.67 452.29C296.608 452.303 297.544 452.209 298.46 452.01C298.46 451.94 297.21 452.01 295.67 452.07C294.13 452.13 292.89 452 292.88 452.1Z" fill="#263238"/>
<path d="M289.14 452.2C289.09 452.2 289.25 452.44 289.38 452.7C289.51 452.96 289.6 453.2 289.66 453.19C289.72 453.18 289.75 452.91 289.59 452.61C289.43 452.31 289.18 452.15 289.14 452.2Z" fill="#263238"/>
<path d="M287.68 450.6C287.68 450.6 287.76 450.83 287.97 451.01C288.18 451.19 288.37 451.3 288.42 451.26C288.47 451.22 288.33 451.03 288.13 450.85C287.93 450.67 287.72 450.56 287.68 450.6Z" fill="#263238"/>
<path d="M285.64 449.91C285.64 449.97 285.91 449.91 286.19 450.05C286.47 450.19 286.68 450.26 286.73 450.22C286.78 450.18 286.61 449.94 286.26 449.84C285.91 449.74 285.62 449.86 285.64 449.91Z" fill="#263238"/>
<path d="M284.19 449.6C284.19 449.6 284.28 449.74 284.44 449.79C284.6 449.84 284.75 449.79 284.77 449.79C284.79 449.79 284.68 449.64 284.52 449.59C284.36 449.54 284.21 449.54 284.19 449.6Z" fill="#263238"/>
<path d="M304 448L281.47 284.53L280.83 274L224.39 271.32L222 280.19C214.08 308.11 174.06 443.12 174.06 443.12L193.61 449.29L251.81 294.59L278.9 447.71L304 448Z" fill="#263238"/>
<path d="M278 272.4C277.85 272.4 277.7 272.09 277.66 271.68C277.62 271.27 277.71 270.92 277.85 270.91C277.99 270.9 278.14 271.22 278.18 271.63C278.22 272.04 278.1 272.39 278 272.4Z" fill="#455A64"/>
<path d="M278.55 278.35C278.4 278.35 278.22 277.71 278.14 276.89C278.06 276.07 278.14 275.39 278.25 275.37C278.36 275.35 278.57 276.01 278.66 276.84C278.75 277.67 278.69 278.33 278.55 278.35Z" fill="#455A64"/>
<path d="M279.16 284.29C279.02 284.29 278.84 283.66 278.75 282.84C278.66 282.02 278.75 281.34 278.85 281.32C278.95 281.3 279.18 281.96 279.27 282.78C279.36 283.6 279.31 284.28 279.16 284.29Z" fill="#455A64"/>
<path d="M279.81 290.24C279.66 290.24 279.47 289.6 279.38 288.78C279.29 287.96 279.38 287.28 279.48 287.27C279.58 287.26 279.81 287.9 279.9 288.72C279.99 289.54 280 290.22 279.81 290.24Z" fill="#455A64"/>
<path d="M280.47 296.18C280.33 296.18 280.14 295.54 280.04 294.72C279.94 293.9 279.99 293.22 280.13 293.21C280.27 293.2 280.47 293.84 280.56 294.66C280.65 295.48 280.61 296.16 280.47 296.18Z" fill="#455A64"/>
<path d="M281.15 302.12C281.01 302.12 280.82 301.48 280.72 300.66C280.62 299.84 280.67 299.16 280.81 299.15C280.95 299.14 281.14 299.78 281.24 300.6C281.34 301.42 281.3 302.1 281.15 302.12Z" fill="#455A64"/>
<path d="M281.86 308.05C281.71 308.05 281.52 307.42 281.42 306.6C281.32 305.78 281.36 305.1 281.5 305.08C281.64 305.06 281.84 305.72 281.94 306.54C282.04 307.36 282 308 281.86 308.05Z" fill="#455A64"/>
<path d="M282.58 314C282.43 314 282.24 313.36 282.14 312.54C282.04 311.72 282.07 311.05 282.21 311.03C282.35 311.01 282.55 311.66 282.65 312.48C282.75 313.3 282.72 314 282.58 314Z" fill="#455A64"/>
<path d="M283.31 319.92C283.17 319.92 282.97 319.29 282.87 318.47C282.77 317.65 282.8 316.97 282.94 316.95C283.08 316.93 283.28 317.58 283.39 318.4C283.5 319.22 283.46 319.9 283.31 319.92Z" fill="#455A64"/>
<path d="M284.06 325.85C283.92 325.85 283.72 325.22 283.62 324.4C283.52 323.58 283.54 322.9 283.69 322.88C283.84 322.86 284.03 323.52 284.13 324.33C284.23 325.14 284.21 325.83 284.06 325.85Z" fill="#455A64"/>
<path d="M284.83 331.78C284.68 331.78 284.48 331.15 284.38 330.33C284.28 329.51 284.3 328.83 284.44 328.81C284.58 328.79 284.79 329.44 284.89 330.26C284.99 331.08 285 331.76 284.83 331.78Z" fill="#455A64"/>
<path d="M285.6 337.71C285.46 337.71 285.26 337.08 285.15 336.26C285.04 335.44 285.07 334.76 285.21 334.74C285.35 334.72 285.56 335.37 285.67 336.19C285.78 337.01 285.74 337.69 285.6 337.71Z" fill="#455A64"/>
<path d="M286.38 343.63C286.24 343.63 286.04 343 285.93 342.19C285.82 341.38 285.85 340.69 285.99 340.67C286.13 340.65 286.34 341.3 286.45 342.12C286.56 342.94 286.53 343.61 286.38 343.63Z" fill="#455A64"/>
<path d="M287.17 349.56C287.03 349.56 286.83 348.93 286.72 348.11C286.61 347.29 286.64 346.61 286.78 346.6C286.92 346.59 287.12 347.22 287.23 348.04C287.34 348.86 287.32 349.54 287.17 349.56Z" fill="#455A64"/>
<path d="M288 355.48C287.86 355.48 287.65 354.86 287.54 354.04C287.43 353.22 287.46 352.54 287.6 352.52C287.74 352.5 287.95 353.15 288.06 353.97C288.17 354.79 288.11 355.46 288 355.48Z" fill="#455A64"/>
<path d="M288.77 361.41C288.63 361.41 288.42 360.78 288.31 359.96C288.2 359.14 288.23 358.47 288.37 358.45C288.51 358.43 288.72 359.07 288.83 359.89C288.94 360.71 288.91 361.39 288.77 361.41Z" fill="#455A64"/>
<path d="M289.57 367.33C289.43 367.33 289.23 366.7 289.11 365.89C288.99 365.08 289.03 364.39 289.17 364.37C289.31 364.35 289.52 365 289.63 365.82C289.74 366.64 289.72 367.31 289.57 367.33Z" fill="#455A64"/>
<path d="M290.4 373.25C290.25 373.25 290.04 372.62 289.93 371.8C289.82 370.98 289.83 370.31 289.93 370.29C290.03 370.27 290.29 370.92 290.4 371.73C290.51 372.54 290.54 373.23 290.4 373.25Z" fill="#455A64"/>
<path d="M291.27 379.15C291.13 379.15 290.91 378.53 290.79 377.72C290.67 376.91 290.69 376.22 290.79 376.2C290.89 376.18 291.15 376.82 291.27 377.64C291.39 378.46 291.41 379.13 291.27 379.15Z" fill="#455A64"/>
<path d="M292.16 385.06C292.02 385.06 291.8 384.44 291.68 383.62C291.56 382.8 291.57 382.13 291.68 382.11C291.79 382.09 292.04 382.73 292.16 383.54C292.28 384.35 292.3 385 292.16 385.06Z" fill="#455A64"/>
<path d="M293.05 391C292.91 391 292.69 390.38 292.57 389.56C292.45 388.74 292.46 388.07 292.57 388.05C292.68 388.03 292.93 388.67 293.06 389.48C293.19 390.29 293.19 391 293.05 391Z" fill="#455A64"/>
<path d="M294 396.87C293.85 396.87 293.64 396.25 293.52 395.43C293.4 394.61 293.41 393.94 293.52 393.92C293.63 393.9 293.88 394.54 294 395.36C294.12 396.18 294.09 396.85 294 396.87Z" fill="#455A64"/>
<path d="M294.84 402.77C294.7 402.77 294.49 402.15 294.36 401.34C294.23 400.53 294.25 399.84 294.36 399.82C294.47 399.8 294.71 400.44 294.84 401.26C294.97 402.08 295 402.75 294.84 402.77Z" fill="#455A64"/>
<path d="M295.74 408.68C295.6 408.68 295.38 408.06 295.26 407.24C295.14 406.42 295.15 405.75 295.26 405.73C295.37 405.71 295.62 406.35 295.75 407.16C295.88 407.97 295.88 408.66 295.74 408.68Z" fill="#455A64"/>
<path d="M296.64 414.59C296.5 414.59 296.28 413.97 296.16 413.15C296.04 412.33 296.05 411.66 296.16 411.64C296.27 411.62 296.52 412.26 296.65 413.08C296.78 413.9 296.78 414.57 296.64 414.59Z" fill="#455A64"/>
<path d="M297.54 420.5C297.4 420.5 297.18 419.88 297.06 419.07C296.94 418.26 296.95 417.57 297.06 417.55C297.17 417.53 297.42 418.17 297.54 418.99C297.66 419.81 297.68 420.48 297.54 420.5Z" fill="#455A64"/>
<path d="M298.44 426.41C298.3 426.41 298.08 425.79 297.96 424.98C297.84 424.17 297.85 423.48 297.96 423.46C298.07 423.44 298.32 424.08 298.44 424.9C298.56 425.72 298.58 426.39 298.44 426.41Z" fill="#455A64"/>
<path d="M299.33 432.33C299.19 432.33 298.98 431.7 298.85 430.89C298.72 430.08 298.74 429.39 298.85 429.37C298.96 429.35 299.2 429.99 299.33 430.81C299.46 431.63 299.48 432.3 299.33 432.33Z" fill="#455A64"/>
<path d="M300.22 438.24C300.08 438.24 299.87 437.62 299.74 436.8C299.61 435.98 299.64 435.3 299.74 435.28C299.84 435.26 300.1 435.91 300.22 436.72C300.34 437.53 300.37 438.22 300.22 438.24Z" fill="#455A64"/>
<path d="M301.11 444.16C300.96 444.16 300.75 443.53 300.63 442.72C300.51 441.91 300.52 441.22 300.63 441.2C300.74 441.18 300.98 441.82 301.1 442.64C301.22 443.46 301.25 444.14 301.11 444.16Z" fill="#455A64"/>
<path d="M301.75 448.63C301.61 448.63 301.44 448.34 301.39 447.93C301.34 447.52 301.39 447.17 301.54 447.15C301.69 447.13 301.85 447.45 301.9 447.86C301.95 448.27 301.89 448.61 301.75 448.63Z" fill="#455A64"/>
<path d="M192.26 445C192.39 445 192.41 445.4 192.26 445.79C192.11 446.18 191.92 446.47 191.79 446.43C191.66 446.39 191.64 446.03 191.79 445.63C191.94 445.23 192.12 445 192.26 445Z" fill="#455A64"/>
<path d="M194.1 439.23C194.24 439.23 194.1 439.96 193.89 440.76C193.68 441.56 193.31 442.17 193.18 442.12C193.05 442.07 193.18 441.4 193.39 440.6C193.6 439.8 194 439.19 194.1 439.23Z" fill="#455A64"/>
<path d="M196 433.45C196.14 433.5 196 434.18 195.78 434.98C195.56 435.78 195.2 436.38 195.06 436.34C194.92 436.3 195.06 435.61 195.28 434.82C195.5 434.03 195.85 433.41 196 433.45Z" fill="#455A64"/>
<path d="M197.89 427.68C198.03 427.73 197.89 428.41 197.66 429.21C197.43 430.01 197.07 430.61 196.93 430.57C196.79 430.53 196.93 429.84 197.16 429.04C197.39 428.24 197.75 427.64 197.89 427.68Z" fill="#455A64"/>
<path d="M199.83 421.92C199.96 421.97 199.83 422.65 199.59 423.45C199.35 424.25 198.99 424.85 198.86 424.8C198.73 424.75 198.86 424.07 199.09 423.28C199.32 422.49 199.69 421.88 199.83 421.92Z" fill="#455A64"/>
<path d="M201.79 416.17C201.93 416.22 201.79 416.9 201.54 417.69C201.29 418.48 200.94 419.09 200.81 419.05C200.68 419.01 200.81 418.32 201.05 417.52C201.29 416.72 201.65 416.12 201.79 416.17Z" fill="#455A64"/>
<path d="M203.78 410.43C203.92 410.43 203.78 411.16 203.53 411.95C203.28 412.74 202.92 413.35 202.78 413.3C202.64 413.25 202.78 412.57 203.04 411.78C203.3 410.99 203.64 410.38 203.78 410.43Z" fill="#455A64"/>
<path d="M205.79 404.69C205.93 404.74 205.79 405.42 205.54 406.21C205.29 407 204.92 407.61 204.78 407.56C204.64 407.51 204.78 406.83 205.04 406.04C205.3 405.25 205.66 404.64 205.79 404.69Z" fill="#455A64"/>
<path d="M207.83 399C207.97 399.05 207.83 399.73 207.57 400.52C207.31 401.31 206.95 401.91 206.81 401.86C206.67 401.81 206.81 401.14 207.08 400.35C207.35 399.56 207.7 398.91 207.83 399Z" fill="#455A64"/>
<path d="M209.89 393.24C210.02 393.29 209.89 393.97 209.62 394.76C209.35 395.55 208.99 396.15 208.86 396.1C208.73 396.05 208.86 395.37 209.13 394.58C209.4 393.79 209.75 393.19 209.89 393.24Z" fill="#455A64"/>
<path d="M212 387.52C212.13 387.57 212 388.25 211.72 389.04C211.44 389.83 211.09 390.43 210.96 390.38C210.83 390.33 210.96 389.65 211.23 388.86C211.5 388.07 211.83 387.47 212 387.52Z" fill="#455A64"/>
<path d="M214.07 381.81C214.2 381.86 214.07 382.54 213.78 383.33C213.49 384.12 213.15 384.72 213.01 384.67C212.87 384.62 213.01 383.94 213.3 383.15C213.59 382.36 213.93 381.76 214.07 381.81Z" fill="#455A64"/>
<path d="M216.18 376.11C216.32 376.16 216.18 376.84 215.89 377.63C215.6 378.42 215.26 379.01 215.12 378.96C214.98 378.91 215.12 378.23 215.41 377.45C215.7 376.67 216.05 376.06 216.18 376.11Z" fill="#455A64"/>
<path d="M218.31 370.41C218.45 370.41 218.31 371.14 218.02 371.93C217.73 372.72 217.38 373.31 217.24 373.26C217.1 373.21 217.24 372.53 217.53 371.75C217.82 370.97 218.18 370.36 218.31 370.41Z" fill="#455A64"/>
<path d="M220.46 364.72C220.59 364.72 220.46 365.45 220.16 366.24C219.86 367.03 219.52 367.62 219.38 367.57C219.24 367.52 219.38 366.84 219.68 366.05C219.98 365.26 220.32 364.67 220.46 364.72Z" fill="#455A64"/>
<path d="M222.62 359C222.75 359.05 222.62 359.73 222.32 360.52C222.02 361.31 221.67 361.9 221.53 361.85C221.39 361.8 221.53 361.12 221.83 360.33C222.13 359.54 222.48 359 222.62 359Z" fill="#455A64"/>
<path d="M224.79 353.35C224.92 353.35 224.79 354.08 224.49 354.86C224.19 355.64 223.83 356.24 223.7 356.19C223.57 356.14 223.7 355.46 224 354.68C224.3 353.9 224.65 353.3 224.79 353.35Z" fill="#455A64"/>
<path d="M227 347.67C227.13 347.72 227 348.4 226.69 349.18C226.38 349.96 226.04 350.56 225.91 350.51C225.78 350.46 225.91 349.78 226.21 349C226.51 348.22 226.83 347.62 227 347.67Z" fill="#455A64"/>
<path d="M229.16 342C229.29 342.06 229.16 342.73 228.85 343.52C228.54 344.31 228.2 344.89 228.06 344.84C227.92 344.79 228.06 344.11 228.37 343.33C228.68 342.55 229 341.94 229.16 342Z" fill="#455A64"/>
<path d="M231.36 336.32C231.49 336.37 231.36 337.05 231.05 337.83C230.74 338.61 230.39 339.21 230.26 339.16C230.13 339.11 230.26 338.43 230.56 337.65C230.86 336.87 231.22 336.27 231.36 336.32Z" fill="#455A64"/>
<path d="M233.56 330.65C233.69 330.71 233.56 331.38 233.25 332.16C232.94 332.94 232.59 333.54 232.46 333.49C232.33 333.44 232.46 332.76 232.77 331.98C233.08 331.2 233.43 330.6 233.56 330.65Z" fill="#455A64"/>
<path d="M235.77 325C235.9 325.05 235.77 325.73 235.46 326.51C235.15 327.29 234.8 327.88 234.67 327.83C234.54 327.78 234.67 327.1 234.98 326.32C235.29 325.54 235.64 324.93 235.77 325Z" fill="#455A64"/>
<path d="M238 319.32C238.14 319.37 238 320.05 237.69 320.83C237.38 321.61 237.03 322.21 236.9 322.15C236.77 322.09 236.9 321.43 237.21 320.64C237.52 319.85 237.85 319.27 238 319.32Z" fill="#455A64"/>
<path d="M240.2 313.66C240.33 313.66 240.2 314.39 239.89 315.17C239.58 315.95 239.23 316.54 239.09 316.49C238.95 316.44 239.09 315.76 239.4 314.98C239.71 314.2 240.07 313.61 240.2 313.66Z" fill="#455A64"/>
<path d="M242.52 308C242.65 308.06 242.52 308.73 242.17 309.5C241.82 310.27 241.47 310.85 241.34 310.8C241.21 310.75 241.34 310.07 241.69 309.3C242.04 308.53 242.39 308 242.52 308Z" fill="#455A64"/>
<path d="M245.13 302.55C245.25 302.62 245.05 303.28 244.68 304.03C244.31 304.78 243.9 305.33 243.77 305.27C243.64 305.21 243.84 304.55 244.22 303.79C244.6 303.03 245 302.48 245.13 302.55Z" fill="#455A64"/>
<path d="M248.36 297.4C248.47 297.5 248.18 298.12 247.71 298.8C247.24 299.48 246.71 299.98 246.63 299.9C246.55 299.82 246.8 299.2 247.28 298.5C247.76 297.8 248.25 297.31 248.36 297.4Z" fill="#455A64"/>
<path d="M251.84 294.59C251.84 294.73 251.61 294.93 251.27 295.11C250.93 295.29 250.6 295.39 250.51 295.27C250.42 295.15 250.64 294.85 251.03 294.65C251.42 294.45 251.8 294.45 251.84 294.59Z" fill="#455A64"/>
<path d="M277 264.19C277 264.19 274 253.98 272.38 248.34C271.733 246.058 271.35 243.709 271.24 241.34L271 236.23L271.85 231.91L274.61 235.11L288.08 221.04C288.33 221.38 281.98 212.16 275.55 203.14C271.07 196.86 266.69 195.14 263.86 194.9C262.532 194.521 261.144 194.399 259.77 194.54L236.59 194.34C231.533 194.383 226.647 196.175 222.76 199.41C221.69 200.29 212.81 212.1 206.76 223.77L225.41 237.23L228.48 231.83V232.15C228.72 234.07 229.31 237.15 229.76 239.05C231.25 245 232 252.85 229 258C226.903 263.222 225.12 268.565 223.66 274H280.85C280.85 274 279 269 277 264.19Z" fill="#FF725E"/>
<path d="M238.15 201.88C238.15 201.88 238.28 201.95 238.42 202.19C238.603 202.555 238.652 202.972 238.56 203.37C238.409 203.992 238.057 204.547 237.56 204.95C237 205.43 236.33 205.88 235.56 206.42C234.08 207.5 232.36 208.76 230.45 210.14C229.475 210.958 228.374 211.613 227.19 212.08C226.508 212.28 225.782 212.28 225.1 212.08C224.737 211.97 224.402 211.783 224.119 211.531C223.836 211.279 223.611 210.968 223.46 210.62C223.208 209.949 223.143 209.222 223.274 208.517C223.404 207.812 223.724 207.156 224.2 206.62C225.061 205.682 226.075 204.897 227.2 204.3L230.1 202.58C230.935 202.05 231.799 201.569 232.69 201.14C233.446 200.821 234.221 200.547 235.01 200.32C235.647 200.24 236.293 200.347 236.87 200.63C237.87 201.09 238.03 201.73 237.99 201.72C237.679 201.314 237.265 200.999 236.79 200.81C236.246 200.584 235.651 200.515 235.07 200.61C234.311 200.855 233.567 201.142 232.84 201.47C232.04 201.83 231.24 202.41 230.32 202.95L227.45 204.71C226.377 205.286 225.41 206.04 224.59 206.94C224.174 207.405 223.892 207.975 223.776 208.588C223.66 209.201 223.713 209.835 223.93 210.42C224.045 210.702 224.223 210.954 224.45 211.156C224.677 211.359 224.947 211.508 225.24 211.59C225.824 211.765 226.446 211.765 227.03 211.59C228.166 211.143 229.225 210.522 230.17 209.75L235.34 206.12C236.07 205.6 236.77 205.12 237.34 204.72C237.817 204.375 238.169 203.884 238.34 203.32C238.413 203.08 238.434 202.828 238.401 202.579C238.369 202.331 238.283 202.092 238.15 201.88Z" fill="#E0E0E0"/>
<path d="M282.15 220.75C282.191 220.887 282.191 221.033 282.15 221.17C282.039 221.574 281.792 221.928 281.45 222.17C280.914 222.521 280.279 222.686 279.64 222.64C278.9 222.64 278.1 222.5 277.21 222.41L270.93 221.67C269.659 221.61 268.405 221.343 267.22 220.88C266.573 220.579 266.027 220.096 265.65 219.49C265.459 219.166 265.341 218.803 265.304 218.428C265.268 218.053 265.314 217.675 265.44 217.32C265.708 216.653 266.154 216.072 266.728 215.64C267.303 215.209 267.985 214.942 268.7 214.87C269.973 214.767 271.254 214.879 272.49 215.2L275.79 215.91C276.763 216.084 277.724 216.314 278.67 216.6C279.444 216.885 280.198 217.219 280.93 217.6C281.458 217.965 281.86 218.486 282.08 219.09C282.207 219.328 282.281 219.591 282.297 219.86C282.312 220.129 282.269 220.399 282.17 220.65C282.207 220.142 282.114 219.632 281.9 219.17C281.662 218.631 281.273 218.173 280.78 217.85C280.053 217.517 279.308 217.224 278.55 216.97C277.612 216.713 276.66 216.506 275.7 216.35L272.39 215.69C271.208 215.394 269.985 215.293 268.77 215.39C268.149 215.454 267.558 215.686 267.058 216.059C266.558 216.432 266.168 216.933 265.93 217.51C265.825 217.794 265.785 218.098 265.815 218.4C265.844 218.701 265.942 218.992 266.1 219.25C266.424 219.768 266.889 220.184 267.44 220.45C268.577 220.888 269.774 221.148 270.99 221.22L277.25 222.06C278.14 222.17 278.95 222.32 279.65 222.37C280.236 222.436 280.828 222.313 281.34 222.02C281.56 221.88 281.746 221.694 281.886 221.475C282.026 221.255 282.116 221.008 282.15 220.75Z" fill="#E0E0E0"/>
<path d="M271 200.92C271 200.92 271.13 200.99 271.27 201.23C271.453 201.595 271.502 202.012 271.41 202.41C271.261 203.033 270.909 203.589 270.41 203.99C269.85 204.47 269.18 204.93 268.46 205.47L263.36 209.19C262.377 210.002 261.274 210.657 260.09 211.13C259.408 211.33 258.682 211.33 258 211.13C257.638 211.024 257.304 210.839 257.022 210.588C256.74 210.337 256.517 210.027 256.37 209.68C256.116 209.01 256.05 208.283 256.179 207.579C256.308 206.874 256.626 206.217 257.1 205.68C257.96 204.741 258.975 203.957 260.1 203.36L263 201.63C263.837 201.104 264.701 200.623 265.59 200.19C266.349 199.872 267.127 199.601 267.92 199.38C268.553 199.291 269.198 199.396 269.77 199.68C270.77 200.15 270.93 200.79 270.9 200.78C270.584 200.376 270.166 200.062 269.69 199.87C269.149 199.635 268.551 199.562 267.97 199.66C267.34 199.86 266.54 200.18 265.74 200.53C264.878 200.977 264.041 201.467 263.23 202L260.35 203.77C259.277 204.346 258.31 205.1 257.49 206C257.074 206.465 256.792 207.035 256.676 207.648C256.56 208.261 256.613 208.895 256.83 209.48C256.95 209.757 257.13 210.005 257.356 210.205C257.583 210.406 257.85 210.554 258.14 210.64C258.727 210.815 259.353 210.815 259.94 210.64C261.069 210.187 262.125 209.567 263.07 208.8C264.99 207.44 266.74 206.22 268.24 205.17C268.97 204.65 269.67 204.17 270.24 203.77C270.711 203.419 271.06 202.929 271.24 202.37C271.303 202.125 271.315 201.869 271.274 201.62C271.232 201.37 271.139 201.131 271 200.92Z" fill="#E0E0E0"/>
<path d="M218.66 215.48C218.66 215.48 218.76 215.36 219.03 215.28C219.425 215.178 219.844 215.22 220.21 215.4C220.784 215.686 221.248 216.154 221.53 216.73C221.88 217.38 222.17 218.13 222.53 218.95L225.05 224.74C225.629 225.875 226.027 227.093 226.23 228.35C226.295 229.06 226.149 229.773 225.81 230.4C225.627 230.73 225.374 231.016 225.068 231.237C224.762 231.459 224.411 231.61 224.04 231.68C223.328 231.785 222.6 231.692 221.937 231.411C221.274 231.131 220.701 230.674 220.28 230.09C219.551 229.044 219.006 227.88 218.67 226.65C218.3 225.53 217.95 224.45 217.62 223.44C217.285 222.511 217.004 221.562 216.78 220.6C216.625 219.794 216.525 218.979 216.48 218.16C216.54 217.52 216.787 216.911 217.19 216.41C217.85 215.58 218.51 215.52 218.5 215.55C218.033 215.773 217.636 216.119 217.35 216.55C217.006 217.028 216.805 217.593 216.77 218.18C216.83 218.85 216.97 219.69 217.14 220.55C217.384 221.489 217.681 222.414 218.03 223.32C218.37 224.32 218.74 225.4 219.13 226.52C219.458 227.693 219.982 228.802 220.68 229.8C221.048 230.304 221.545 230.699 222.119 230.944C222.692 231.189 223.322 231.274 223.94 231.19C224.237 231.141 224.518 231.025 224.764 230.852C225.01 230.679 225.214 230.453 225.36 230.19C225.648 229.65 225.773 229.039 225.72 228.43C225.53 227.227 225.155 226.06 224.61 224.97C223.7 222.8 222.89 220.82 222.19 219.13C221.84 218.31 221.56 217.53 221.25 216.91C221.016 216.367 220.612 215.915 220.1 215.62C219.884 215.495 219.644 215.417 219.395 215.393C219.147 215.369 218.896 215.399 218.66 215.48Z" fill="#E0E0E0"/>
<path d="M245.1 213.38C245.254 213.354 245.411 213.379 245.55 213.45C245.964 213.634 246.296 213.965 246.48 214.38C246.543 214.518 246.594 214.662 246.63 214.81C246.686 214.933 246.777 215.037 246.89 215.11C247.19 215.306 247.504 215.48 247.83 215.63C248.666 215.978 249.478 216.383 250.26 216.84C250.386 216.918 250.494 217.02 250.58 217.14C250.615 217.179 250.642 217.225 250.66 217.275C250.677 217.325 250.684 217.377 250.68 217.43C250.68 217.56 250.68 217.58 250.63 217.66C250.561 217.932 250.456 218.194 250.32 218.44C250.045 218.949 249.709 219.422 249.32 219.85C248.53 220.75 247.59 221.58 246.66 222.5C245.633 223.361 244.903 224.522 244.57 225.82C244.422 226.555 244.18 227.267 243.85 227.94C243.49 228.665 242.908 229.257 242.19 229.63C241.819 229.822 241.408 229.922 240.99 229.922C240.572 229.922 240.161 229.822 239.79 229.63C239.104 229.237 238.559 228.639 238.23 227.92C237.736 226.56 237.736 225.07 238.23 223.71C239 221.17 239.73 218.95 240.38 217.04C240.739 216.212 241.15 215.407 241.61 214.63C241.992 214.027 242.578 213.58 243.26 213.37C243.529 213.242 243.822 213.176 244.12 213.176C244.418 213.176 244.711 213.242 244.98 213.37C244.425 213.263 243.851 213.322 243.33 213.54C242.718 213.763 242.202 214.19 241.87 214.75C241.44 215.527 241.056 216.328 240.72 217.15C240.14 219.02 239.42 221.32 238.72 223.82C238.275 225.072 238.275 226.438 238.72 227.69C239.005 228.307 239.478 228.817 240.07 229.15C240.366 229.305 240.696 229.386 241.03 229.386C241.364 229.386 241.694 229.305 241.99 229.15C242.609 228.826 243.109 228.315 243.42 227.69C243.73 227.054 243.962 226.382 244.11 225.69C244.18 225.327 244.287 224.971 244.43 224.63C244.587 224.3 244.774 223.985 244.99 223.69C245.402 223.138 245.86 222.623 246.36 222.15C247.3 221.22 248.25 220.41 249.02 219.56C249.403 219.16 249.738 218.717 250.02 218.24C250.144 218.019 250.241 217.784 250.31 217.54C250.31 217.54 250.37 217.4 250.31 217.4C250.25 217.4 250.31 217.4 250.31 217.4V217.35C250.246 217.265 250.168 217.191 250.08 217.13C249.325 216.671 248.544 216.257 247.74 215.89C247.391 215.725 247.056 215.531 246.74 215.31C246.582 215.201 246.466 215.043 246.41 214.86C246.382 214.723 246.342 214.589 246.29 214.46C246.15 214.072 245.872 213.748 245.51 213.55C245.377 213.484 245.24 213.428 245.1 213.38Z" fill="#E0E0E0"/>
<path d="M255 223C255 223 255.06 222.86 255.3 222.72C255.657 222.524 256.071 222.461 256.47 222.54C257.103 222.684 257.67 223.036 258.08 223.54C258.58 224.08 259.08 224.73 259.61 225.44L263.48 230.44C264.314 231.392 264.99 232.473 265.48 233.64C265.713 234.316 265.748 235.045 265.58 235.74C265.481 236.105 265.304 236.443 265.06 236.732C264.817 237.02 264.513 237.252 264.17 237.41C263.508 237.672 262.789 237.752 262.086 237.643C261.382 237.534 260.721 237.24 260.17 236.79C259.207 235.955 258.396 234.96 257.77 233.85L256 231C255.448 230.178 254.94 229.327 254.48 228.45C254.141 227.701 253.847 226.933 253.6 226.15C253.494 225.519 253.581 224.871 253.85 224.29C254.29 223.29 254.92 223.1 254.91 223.13C254.52 223.464 254.221 223.89 254.04 224.37C253.828 224.917 253.773 225.513 253.88 226.09C254.1 226.72 254.44 227.5 254.81 228.29C255.284 229.139 255.801 229.964 256.36 230.76L258.21 233.59C258.819 234.645 259.6 235.591 260.52 236.39C261 236.788 261.578 237.049 262.194 237.145C262.81 237.242 263.441 237.171 264.02 236.94C264.294 236.811 264.536 236.625 264.731 236.394C264.926 236.162 265.069 235.892 265.15 235.6C265.293 235.004 265.266 234.38 265.07 233.8C264.586 232.685 263.935 231.65 263.14 230.73L259.36 225.66C258.82 224.95 258.36 224.26 257.9 223.73C257.544 223.25 257.042 222.899 256.47 222.73C256.221 222.659 255.958 222.646 255.703 222.693C255.448 222.739 255.207 222.845 255 223Z" fill="#E0E0E0"/>
<path d="M233.38 241.53C233.368 241.389 233.395 241.247 233.46 241.12C233.637 240.753 233.933 240.458 234.3 240.28C234.887 240.019 235.545 239.959 236.17 240.11C236.89 240.25 237.66 240.49 238.53 240.73L244.61 242.46C245.854 242.73 247.048 243.192 248.15 243.83C248.739 244.233 249.198 244.8 249.47 245.46C249.608 245.811 249.667 246.189 249.643 246.566C249.619 246.942 249.512 247.309 249.33 247.64C248.958 248.255 248.425 248.756 247.789 249.089C247.153 249.423 246.437 249.575 245.72 249.53C244.449 249.433 243.204 249.119 242.04 248.6L238.89 247.37C237.959 247.039 237.047 246.655 236.16 246.22C235.44 245.82 234.745 245.376 234.08 244.89C233.62 244.444 233.306 243.868 233.18 243.24C233.091 242.985 233.06 242.714 233.089 242.446C233.119 242.178 233.208 241.919 233.35 241.69C233.213 242.181 233.213 242.699 233.35 243.19C233.503 243.756 233.812 244.269 234.24 244.67C234.904 245.114 235.592 245.521 236.3 245.89C237.18 246.306 238.081 246.677 239 247L242.17 248.18C243.287 248.663 244.477 248.957 245.69 249.05C246.312 249.089 246.933 248.958 247.486 248.671C248.039 248.384 248.504 247.951 248.83 247.42C248.978 247.157 249.065 246.864 249.084 246.563C249.104 246.261 249.054 245.96 248.94 245.68C248.71 245.112 248.317 244.625 247.81 244.28C246.759 243.664 245.619 243.215 244.43 242.95L238.43 241.11C237.57 240.86 236.79 240.58 236.11 240.42C235.544 240.261 234.942 240.286 234.39 240.49C234.158 240.583 233.949 240.724 233.775 240.903C233.601 241.082 233.466 241.296 233.38 241.53Z" fill="#E0E0E0"/>
<path d="M266 264.42C265.88 264.492 265.739 264.524 265.6 264.51C265.19 264.505 264.796 264.352 264.49 264.08C264.011 263.651 263.691 263.073 263.58 262.44C263.41 261.73 263.33 260.92 263.19 260.03C262.94 258.22 262.64 256.11 262.32 253.77C262.064 252.523 262.007 251.244 262.15 249.98C262.294 249.275 262.641 248.629 263.15 248.12C263.409 247.857 263.722 247.653 264.067 247.522C264.412 247.391 264.781 247.336 265.15 247.36C265.862 247.459 266.533 247.748 267.095 248.197C267.656 248.646 268.086 249.238 268.34 249.91C268.756 251.113 268.969 252.377 268.97 253.65C268.97 254.84 269.07 255.96 269.12 257.03C269.175 258.029 269.175 259.031 269.12 260.03C269.049 260.847 268.926 261.659 268.75 262.46C268.525 263.061 268.124 263.58 267.6 263.95C267.401 264.133 267.165 264.271 266.908 264.353C266.65 264.436 266.378 264.462 266.11 264.43C266.614 264.337 267.085 264.117 267.48 263.79C267.941 263.421 268.288 262.929 268.48 262.37C268.619 261.586 268.716 260.795 268.77 260C268.781 259.029 268.741 258.057 268.65 257.09C268.59 256.03 268.53 254.9 268.46 253.72C268.451 252.501 268.242 251.291 267.84 250.14C267.623 249.556 267.251 249.041 266.765 248.65C266.28 248.259 265.697 248.007 265.08 247.92C264.777 247.894 264.472 247.935 264.186 248.04C263.901 248.145 263.643 248.313 263.43 248.53C263.009 248.97 262.724 249.522 262.61 250.12C262.474 251.331 262.525 252.555 262.76 253.75C263.04 256.09 263.3 258.21 263.52 260.03C263.63 260.92 263.69 261.74 263.82 262.42C263.902 263.004 264.168 263.547 264.58 263.97C264.77 264.143 264.995 264.273 265.241 264.351C265.486 264.428 265.745 264.452 266 264.42Z" fill="#E0E0E0"/>
<path d="M235.39 268.76C235.39 268.76 235.26 268.67 235.15 268.42C235.008 268.036 235.008 267.614 235.15 267.23C235.361 266.624 235.769 266.106 236.31 265.76C236.9 265.33 237.61 264.94 238.38 264.47L243.81 261.24C244.866 260.525 246.026 259.978 247.25 259.62C247.944 259.474 248.666 259.529 249.33 259.78C249.681 259.921 249.996 260.137 250.254 260.414C250.511 260.69 250.704 261.02 250.82 261.38C251.013 262.074 251.011 262.807 250.815 263.5C250.62 264.194 250.237 264.82 249.71 265.31C248.763 266.157 247.677 266.834 246.5 267.31L243.45 268.76C242.557 269.225 241.639 269.639 240.7 270C239.92 270.247 239.125 270.444 238.32 270.59C237.678 270.621 237.043 270.454 236.5 270.11C235.59 269.56 235.45 268.91 235.5 268.92C235.782 269.343 236.168 269.687 236.62 269.92C237.138 270.197 237.724 270.321 238.31 270.28C239.089 270.11 239.857 269.893 240.61 269.63C241.51 269.265 242.391 268.855 243.25 268.4L246.25 266.91C247.372 266.436 248.406 265.777 249.31 264.96C249.769 264.535 250.105 263.994 250.281 263.393C250.457 262.793 250.467 262.156 250.31 261.55C250.217 261.263 250.062 260.999 249.857 260.778C249.651 260.557 249.4 260.384 249.12 260.27C248.545 260.054 247.921 260.005 247.32 260.13C246.153 260.468 245.046 260.988 244.04 261.67L238.54 264.8C237.77 265.25 237.03 265.62 236.45 266.01C235.942 266.309 235.546 266.766 235.32 267.31C235.229 267.543 235.188 267.793 235.2 268.042C235.212 268.292 235.277 268.537 235.39 268.76Z" fill="#E0E0E0"/>
<path d="M235.36 220.43C233.902 223.338 232.29 226.165 230.53 228.9C228.915 231.721 227.153 234.455 225.25 237.09C226.707 234.185 228.319 231.361 230.08 228.63C231.691 225.803 233.453 223.066 235.36 220.43Z" fill="#263238"/>
<path d="M237.13 215.56C237.101 214.416 236.987 213.277 236.79 212.15C236.15 209.472 235.014 206.938 233.44 204.68C232.601 203.43 231.536 202.348 230.3 201.49C229.283 200.809 228.135 200.349 226.93 200.14C225.805 199.98 224.659 200.044 223.56 200.33C223.82 200.144 224.116 200.014 224.43 199.95C225.264 199.729 226.133 199.671 226.99 199.78C228.265 199.948 229.488 200.395 230.57 201.09C231.872 201.963 232.993 203.08 233.87 204.38C235.488 206.69 236.605 209.313 237.15 212.08C237.3 212.924 237.347 213.784 237.29 214.64C237.296 214.954 237.242 215.266 237.13 215.56Z" fill="#263238"/>
<path d="M258.31 194.16C258.31 194.16 258.37 194.27 258.43 194.49C258.519 194.818 258.583 195.152 258.62 195.49C258.757 196.725 258.655 197.974 258.32 199.17C257.816 200.958 256.83 202.574 255.47 203.84C253.746 205.353 251.554 206.228 249.262 206.317C246.97 206.406 244.716 205.705 242.88 204.33C241.425 203.17 240.315 201.635 239.67 199.89C239.239 198.723 239.042 197.483 239.09 196.24C239.099 195.904 239.136 195.57 239.2 195.24C239.25 195.01 239.28 194.89 239.3 194.9C239.19 196.55 239.436 198.203 240.02 199.75C240.679 201.402 241.766 202.848 243.17 203.94C244.928 205.231 247.072 205.887 249.252 205.802C251.432 205.717 253.518 204.894 255.17 203.47C256.49 202.275 257.467 200.749 258 199.05C258.451 197.461 258.556 195.793 258.31 194.16Z" fill="#263238"/>
<path d="M267.1 217.46C267.781 218.177 268.368 218.977 268.85 219.84C270.139 221.862 271.098 224.076 271.69 226.4C272.28 228.741 272.338 231.184 271.86 233.55C271.711 234.263 271.493 234.959 271.21 235.63C271.129 235.886 271 236.123 270.83 236.33C270.74 236.33 271.2 235.26 271.5 233.48C271.868 231.149 271.759 228.768 271.18 226.48C270.591 224.209 269.703 222.027 268.54 219.99C268.017 219.172 267.536 218.327 267.1 217.46Z" fill="#263238"/>
<path d="M288.11 221.08C287.543 221.856 286.911 222.582 286.22 223.25L281.51 228.34C279.65 230.34 277.94 232.08 276.67 233.34C276.018 234.049 275.298 234.692 274.52 235.26C275.088 234.482 275.72 233.753 276.41 233.08L281.13 228C282.98 226 284.69 224.26 285.96 223C286.612 222.291 287.332 221.648 288.11 221.08Z" fill="#263238"/>
<path d="M277.64 232.07C277.55 232.19 277.02 231.91 276.46 231.45C275.9 230.99 275.52 230.54 275.61 230.45C275.7 230.36 276.23 230.62 276.79 231.07C277.35 231.52 277.73 232 277.64 232.07Z" fill="#263238"/>
<path d="M280.73 228.81C280.63 228.92 280.12 228.69 279.57 228.29C279.02 227.89 278.65 227.48 278.73 227.36C278.81 227.24 279.32 227.47 279.88 227.87C280.44 228.27 280.82 228.7 280.73 228.81Z" fill="#263238"/>
<path d="M284.7 224.51C284.61 224.62 284.12 224.37 283.61 223.94C283.1 223.51 282.77 223.08 282.86 222.94C282.95 222.8 283.44 223.08 283.95 223.51C284.46 223.94 284.8 224.4 284.7 224.51Z" fill="#263238"/>
<path d="M250.77 209.12C250.64 209.18 250.18 208.51 249.97 207.55C249.76 206.59 249.9 205.78 250.04 205.79C250.18 205.8 250.28 206.54 250.48 207.44C250.68 208.34 250.9 209.05 250.77 209.12Z" fill="#263238"/>
<path d="M256.55 206.37C256.44 206.46 255.97 206.03 255.55 205.37C255.13 204.71 254.81 204.18 254.93 204.09C255.05 204 255.51 204.44 255.93 205.09C256.35 205.74 256.67 206.29 256.55 206.37Z" fill="#263238"/>
<path d="M260.23 201.64C260.16 201.77 259.58 201.58 258.94 201.23C258.3 200.88 257.83 200.48 257.94 200.36C258.05 200.24 258.59 200.42 259.23 200.77C259.87 201.12 260.3 201.52 260.23 201.64Z" fill="#263238"/>
<path d="M261.23 197C261.23 197.15 260.67 197.24 260 197.21C259.33 197.18 258.79 197.03 258.79 196.89C258.79 196.75 259.35 196.66 260.02 196.69C260.69 196.72 261.23 196.88 261.23 197Z" fill="#263238"/>
<path d="M242.75 207.7C242.63 207.63 242.87 206.99 243.29 206.27C243.71 205.55 244.15 205.03 244.29 205.1C244.43 205.17 244.18 205.81 243.76 206.53C243.34 207.25 242.88 207.77 242.75 207.7Z" fill="#263238"/>
<path d="M238.53 203.15C238.48 203.01 239.02 202.68 239.67 202.3C240.32 201.92 240.88 201.6 240.98 201.71C241.08 201.82 240.64 202.33 239.98 202.71C239.32 203.09 238.58 203.28 238.53 203.15Z" fill="#263238"/>
<path d="M239.41 197.33C239.41 197.47 238.81 197.72 238 197.88C237.19 198.04 236.52 198.05 236.49 197.88C236.46 197.71 237.09 197.5 237.9 197.34C238.71 197.18 239.39 197.19 239.41 197.33Z" fill="#263238"/>
<path d="M225.43 237.27C225.139 237.181 224.863 237.05 224.61 236.88C224.1 236.6 223.39 236.16 222.52 235.59C220.79 234.46 218.52 232.76 215.99 230.83C213.46 228.9 211.25 227.15 209.57 225.95C207.89 224.75 206.84 224.03 206.88 223.95C207.168 224.039 207.441 224.17 207.69 224.34C208.2 224.62 208.92 225.06 209.78 225.63C211.52 226.76 213.78 228.46 216.31 230.39C218.84 232.32 221.06 234.07 222.73 235.27C223.664 235.889 224.566 236.557 225.43 237.27Z" fill="#263238"/>
<path d="M210.8 222.7C210.93 222.77 210.7 223.48 210.29 224.3C209.88 225.12 209.44 225.72 209.29 225.65C209.14 225.58 209.39 224.88 209.8 224.06C210.21 223.24 210.68 222.64 210.8 222.7Z" fill="#263238"/>
<path d="M215.35 225.89C215.47 225.96 215.21 226.69 214.77 227.52C214.33 228.35 213.86 228.96 213.77 228.89C213.68 228.82 213.9 228.1 214.34 227.27C214.78 226.44 215.22 225.83 215.35 225.89Z" fill="#263238"/>
<path d="M220.28 229.82C220.4 229.9 220.09 230.56 219.58 231.29C219.07 232.02 218.58 232.54 218.44 232.46C218.3 232.38 218.64 231.72 219.15 230.99C219.66 230.26 220.17 229.74 220.28 229.82Z" fill="#263238"/>
<path d="M224.66 231.73C224.79 231.8 224.37 232.73 223.74 233.84C223.11 234.95 222.48 235.76 222.36 235.69C222.509 234.926 222.827 234.206 223.29 233.58C223.92 232.49 224.54 231.66 224.66 231.73Z" fill="#263238"/>
<path d="M248.24 205.89C249.472 205.985 250.711 205.831 251.882 205.436C253.053 205.041 254.133 204.414 255.056 203.593C255.979 202.771 256.727 201.772 257.256 200.655C257.784 199.537 258.081 198.325 258.13 197.09C258.32 192.09 258.49 187.03 258.49 187.03C258.49 187.03 266.06 186.32 266.61 178.82C267.16 171.32 266.91 154.01 266.91 154.01C262.755 151.918 258.116 150.972 253.474 151.271C248.831 151.57 244.352 153.102 240.5 155.71L239.34 156.5L239.76 196.83C239.783 199.127 240.667 201.332 242.237 203.01C243.807 204.687 245.949 205.715 248.24 205.89Z" fill="#A56959"/>
<path d="M263.34 167.21C263.185 167.056 263.08 166.86 263.037 166.647C262.994 166.433 263.015 166.212 263.098 166.01C263.181 165.809 263.322 165.637 263.503 165.515C263.684 165.394 263.897 165.329 264.115 165.329C264.333 165.329 264.546 165.394 264.727 165.515C264.908 165.637 265.049 165.809 265.132 166.01C265.215 166.212 265.236 166.433 265.193 166.647C265.15 166.86 265.045 167.056 264.89 167.21C264.684 167.415 264.405 167.529 264.115 167.529C263.825 167.529 263.546 167.415 263.34 167.21Z" fill="#263238"/>
<path d="M266.27 165.94C266.14 166.06 265.44 165.45 264.41 165.38C263.38 165.31 262.59 165.8 262.48 165.66C262.37 165.52 262.56 165.37 262.91 165.15C263.366 164.853 263.908 164.716 264.45 164.76C264.997 164.796 265.517 165.01 265.93 165.37C266.23 165.64 266.33 165.89 266.27 165.94Z" fill="#263238"/>
<path d="M253.54 165.79C253.657 165.872 253.758 165.976 253.835 166.097C253.912 166.218 253.965 166.353 253.99 166.494C254.015 166.635 254.012 166.78 253.981 166.92C253.95 167.06 253.892 167.192 253.81 167.31C253.728 167.428 253.623 167.528 253.503 167.605C253.382 167.682 253.247 167.735 253.106 167.76C252.965 167.785 252.82 167.782 252.68 167.751C252.54 167.72 252.407 167.662 252.29 167.58C252.053 167.414 251.891 167.161 251.84 166.876C251.789 166.591 251.854 166.297 252.02 166.06C252.186 165.823 252.439 165.661 252.724 165.61C253.009 165.56 253.303 165.624 253.54 165.79Z" fill="#263238"/>
<path d="M255 166.18C254.756 165.947 254.46 165.774 254.137 165.677C253.814 165.579 253.472 165.56 253.14 165.62C252.14 165.54 251.32 166.04 251.22 165.9C251.12 165.76 251.3 165.61 251.64 165.38C252.103 165.091 252.646 164.958 253.19 165C253.733 165.038 254.249 165.252 254.66 165.61C255 165.88 255.05 166.13 255 166.18Z" fill="#263238"/>
<path d="M258.66 174.21C259.207 174.026 259.783 173.938 260.36 173.95C260.63 173.95 260.85 173.89 260.87 173.75C260.9 173.479 260.851 173.205 260.73 172.96C260.5 172.26 260.28 171.55 260.04 170.81C259.04 167.75 258.45 165.23 258.61 165.18C259.45 166.932 260.12 168.76 260.61 170.64C260.83 171.39 261.05 172.1 261.26 172.8C261.41 173.158 261.438 173.555 261.34 173.93C261.294 174.033 261.225 174.123 261.139 174.194C261.052 174.265 260.95 174.315 260.84 174.34C260.687 174.358 260.533 174.358 260.38 174.34C259.803 174.389 259.223 174.345 258.66 174.21Z" fill="#263238"/>
<path d="M258.5 186.92C255.033 186.776 251.687 185.603 248.89 183.55C248.89 183.55 250.89 189.09 258.4 188.87L258.5 186.92Z" fill="#7C4435"/>
<path d="M246.18 151.41C246.36 152.957 247.045 154.402 248.13 155.519C249.215 156.637 250.639 157.365 252.18 157.59C254.03 157.81 256.02 157.3 257.68 158.14C258.81 158.886 259.77 159.86 260.5 161C260.867 161.562 261.356 162.033 261.931 162.379C262.506 162.726 263.152 162.938 263.82 163C264.461 162.918 265.091 162.767 265.7 162.55C266.006 162.449 266.331 162.415 266.651 162.449C266.972 162.484 267.282 162.586 267.56 162.75C268.503 160.544 268.885 158.139 268.67 155.75C268.544 154.561 268.09 153.43 267.359 152.484C266.628 151.538 265.648 150.813 264.53 150.39C263.03 149.95 261.42 150.23 259.89 149.97C258.639 149.679 257.429 149.233 256.29 148.64C254.399 147.618 252.254 147.16 250.11 147.32C248 147.64 245.96 149.39 246.01 151.52" fill="#263238"/>
<path d="M239.86 171.94C242.58 174.12 245.86 168.46 247.31 164.94C248.641 161.304 249.354 157.471 249.42 153.6C249.623 152.34 249.39 151.049 248.76 149.94C247.98 148.94 247.64 150.18 246.76 149.19C245.09 147.25 242.01 148.3 240.49 148.96C237.96 150.06 236.38 152.88 235.88 155.75C235.531 158.652 235.639 161.591 236.2 164.46C236.38 165.78 236.57 167.09 236.76 168.41C236.82 169.347 237.087 170.258 237.54 171.08C237.755 171.475 238.102 171.782 238.522 171.945C238.941 172.108 239.405 172.117 239.83 171.97" fill="#263238"/>
<path d="M239.76 165.77C239.763 165.477 239.652 165.194 239.45 164.982C239.249 164.769 238.973 164.643 238.68 164.63C237.28 164.63 234.99 165.15 234.78 169.02C234.47 174.54 239.78 173.16 239.78 173.02C239.78 172.88 239.78 167.91 239.76 165.77Z" fill="#A56959"/>
<path d="M238.58 170.83C238.58 170.83 238.48 170.89 238.31 170.96C238.083 171.054 237.827 171.054 237.6 170.96C237.25 170.72 236.973 170.389 236.797 170.003C236.621 169.618 236.553 169.191 236.6 168.77C236.611 168.296 236.731 167.831 236.95 167.41C237.008 167.239 237.108 167.085 237.241 166.963C237.374 166.841 237.535 166.754 237.71 166.71C237.821 166.685 237.937 166.701 238.038 166.754C238.139 166.807 238.218 166.894 238.26 167C238.33 167.16 238.26 167.27 238.32 167.28C238.38 167.29 238.44 167.19 238.41 166.96C238.383 166.825 238.313 166.702 238.21 166.61C238.139 166.549 238.056 166.502 237.967 166.473C237.878 166.444 237.784 166.433 237.69 166.44C237.459 166.47 237.24 166.559 237.054 166.699C236.868 166.84 236.722 167.026 236.63 167.24C236.369 167.705 236.228 168.227 236.22 168.76C236.164 169.25 236.255 169.745 236.482 170.183C236.708 170.621 237.059 170.982 237.49 171.22C237.637 171.27 237.792 171.287 237.946 171.27C238.1 171.252 238.248 171.201 238.38 171.12C238.56 171 238.6 170.84 238.58 170.83Z" fill="#7C4435"/>
<path d="M256 175.53C255.798 175.862 255.734 176.26 255.82 176.639C255.905 177.019 256.135 177.35 256.46 177.563C256.786 177.776 257.181 177.854 257.563 177.781C257.945 177.709 258.284 177.491 258.508 177.173C258.732 176.855 258.824 176.463 258.765 176.079C258.705 175.694 258.499 175.348 258.19 175.113C257.88 174.878 257.491 174.772 257.105 174.818C256.719 174.865 256.366 175.059 256.12 175.36" fill="#7C4435"/>
<path d="M259.47 176.61C259.096 176.76 258.694 176.83 258.292 176.817C257.889 176.803 257.493 176.705 257.13 176.53C255.86 176.08 255.13 175.19 255.27 175.11C255.41 175.03 256.16 175.64 257.27 176.04C258.38 176.44 259.46 176.46 259.47 176.61Z" fill="#263238"/>
<path d="M242.16 147.73C242.16 147.89 240.96 148.25 239.71 149.16C238.994 149.688 238.325 150.277 237.71 150.92L237.27 151.31L237.55 150.84C237.61 150.73 237.66 150.69 237.69 150.7C237.72 150.71 237.69 150.77 237.69 150.9L237.53 150.82C237.936 149.977 238.561 149.258 239.34 148.74C240.125 148.07 241.128 147.711 242.16 147.73Z" fill="#FF725E"/>
<path d="M254 162.49C253.83 162.89 253 162.95 252.16 163.13C251.32 163.31 250.51 163.53 250.16 163.22C250.02 163.06 250.07 162.75 250.36 162.41C250.741 161.983 251.256 161.698 251.82 161.6C252.38 161.48 252.964 161.55 253.48 161.8C253.86 162 254 162.29 254 162.49Z" fill="#263238"/>
<path d="M133.17 416.5C131.4 419.03 127.96 418.19 126.36 416.64C124.76 415.09 124.09 412.86 123.47 410.73C122.07 405.85 120.66 400.73 121.7 395.73C121.955 394.225 122.615 392.818 123.61 391.66C124.116 391.093 124.762 390.668 125.483 390.429C126.205 390.191 126.976 390.146 127.72 390.3C129.46 390.75 130.54 392.45 131.32 394.07C133.615 398.845 134.817 404.072 134.84 409.37C135.007 411.847 134.425 414.318 133.17 416.46" fill="#FF725E"/>
<g opacity="0.2">
<path opacity="0.2" d="M133.17 416.5C131.4 419.03 127.96 418.19 126.36 416.64C124.76 415.09 124.09 412.86 123.47 410.73C122.07 405.85 120.66 400.73 121.7 395.73C121.955 394.225 122.615 392.818 123.61 391.66C124.116 391.093 124.762 390.668 125.483 390.429C126.205 390.191 126.976 390.146 127.72 390.3C129.46 390.75 130.54 392.45 131.32 394.07C133.615 398.845 134.817 404.072 134.84 409.37C135.007 411.847 134.425 414.318 133.17 416.46" fill="black"/>
</g>
<path d="M126.53 429.31C123.563 427.913 120.226 427.506 117.01 428.15C115.252 428.3 113.595 429.04 112.31 430.25C111.13 431.55 110.91 433.83 112.31 434.95C113.191 435.545 114.253 435.81 115.31 435.7C117.83 435.7 120.62 435.23 122.64 436.7C123.78 437.56 124.55 439 125.92 439.43C126.607 439.586 127.326 439.516 127.97 439.229C128.613 438.943 129.147 438.455 129.49 437.84C130.141 436.578 130.284 435.114 129.89 433.75C129.712 432.8 129.316 431.905 128.733 431.134C128.15 430.364 127.396 429.739 126.53 429.31Z" fill="#FF725E"/>
<path d="M138 420.13C137.093 418.938 136.489 417.543 136.24 416.066C135.991 414.589 136.104 413.074 136.57 411.65C137.539 408.814 139.269 406.299 141.57 404.38C144.196 402.043 147.253 400.243 150.57 399.08C151.839 398.566 153.203 398.331 154.57 398.39C155.259 398.43 155.928 398.637 156.519 398.995C157.11 399.352 157.605 399.848 157.96 400.44C158.91 402.24 157.96 404.44 157.02 406.22C155.293 409.37 153.32 412.379 151.12 415.22C149.35 417.5 147.33 419.75 144.63 420.78C141.93 421.81 139.14 421.69 137.71 419.78" fill="#FF725E"/>
<path d="M133.29 454.66C133.197 454.283 133.144 453.898 133.13 453.51C133.05 452.67 132.95 451.62 132.82 450.37C132.666 448.826 132.432 447.29 132.12 445.77C131.707 443.919 131.148 442.103 130.45 440.34C129.759 438.578 128.823 436.921 127.67 435.42C126.734 434.203 125.538 433.209 124.17 432.51C123.227 432.043 122.213 431.732 121.17 431.59C120.785 431.577 120.403 431.52 120.03 431.42C120.416 431.383 120.804 431.383 121.19 431.42C122.257 431.495 123.301 431.767 124.27 432.22C125.714 432.901 126.98 433.908 127.97 435.16C129.172 436.675 130.143 438.36 130.85 440.16C131.558 441.95 132.113 443.796 132.51 445.68C132.801 447.221 133.004 448.776 133.12 450.34C133.22 451.67 133.26 452.75 133.27 453.5C133.317 453.885 133.324 454.274 133.29 454.66Z" fill="#263238"/>
<path d="M133.07 452.24C133.057 452.064 133.057 451.886 133.07 451.71C133.07 451.31 133.07 450.8 133.07 450.18C133.07 448.86 133.07 446.94 133 444.58C132.88 439.85 132.47 433.32 131.69 426.14C130.91 418.96 129.84 412.5 128.89 407.87C128.66 406.71 128.43 405.66 128.22 404.74C128.01 403.82 127.84 403.04 127.67 402.4C127.5 401.76 127.41 401.3 127.31 400.91C127.26 400.741 127.23 400.566 127.22 400.39C127.306 400.547 127.37 400.716 127.41 400.89C127.52 401.27 127.67 401.76 127.85 402.35C128.03 402.94 128.25 403.77 128.48 404.68C128.71 405.59 128.97 406.68 129.21 407.8C130.521 413.839 131.506 419.945 132.16 426.09C132.95 433.28 133.3 439.83 133.33 444.57C133.33 446.94 133.33 448.86 133.25 450.19C133.25 450.81 133.18 451.31 133.16 451.71C133.154 451.89 133.124 452.068 133.07 452.24Z" fill="#263238"/>
<path d="M133 439.61C132.959 439.081 132.959 438.549 133 438.02C133.06 437.02 133.2 435.51 133.49 433.7C133.84 431.579 134.307 429.479 134.89 427.41C135.593 424.872 136.472 422.386 137.52 419.97C139.351 415.536 141.97 411.471 145.25 407.97C145.822 407.374 146.426 406.81 147.06 406.28C147.34 406.05 147.59 405.81 147.84 405.63L148.55 405.14C148.971 404.815 149.42 404.528 149.89 404.28C148.346 405.497 146.877 406.806 145.49 408.2C142.314 411.741 139.767 415.8 137.96 420.2C136.915 422.595 136.03 425.057 135.31 427.57C134.63 429.88 134.17 432.01 133.82 433.8C133.47 435.59 133.3 437.06 133.19 438.07C133.163 438.587 133.099 439.102 133 439.61Z" fill="#263238"/>
<path d="M199.4 145.73L199.48 145.95L199.69 146.58L200.51 149.06L203.6 158.55V158.68H203.46L190.27 156.27H190.18V156.18L190.36 156.27C184.607 160.579 177.608 162.899 170.42 162.88C168.793 162.851 167.169 162.714 165.56 162.47C163.889 162.222 162.238 161.854 160.62 161.37C159.82 161.07 159.01 160.77 158.19 160.48C157.775 160.332 157.37 160.155 156.98 159.95L155.79 159.38C152.529 157.738 149.554 155.58 146.98 152.99C144.282 150.259 142.091 147.069 140.51 143.57C138.157 138.442 137.157 132.797 137.607 127.173C138.057 121.549 139.941 116.135 143.08 111.447C146.218 106.758 150.506 102.953 155.534 100.394C160.562 97.8351 166.163 96.6081 171.8 96.83C179.974 97.1231 187.745 100.449 193.6 106.16C199.455 111.87 202.973 119.556 203.47 127.72C203.849 133.258 202.792 138.8 200.4 143.81C200.08 144.47 199.82 144.97 199.64 145.29L199.35 145.79L199.6 145.29C199.78 144.94 200.03 144.45 200.34 143.78C201.23 141.852 201.933 139.842 202.44 137.78C203.258 134.514 203.541 131.137 203.28 127.78C202.96 122.843 201.527 118.042 199.086 113.738C196.646 109.434 193.263 105.739 189.19 102.93C183.778 99.2214 177.381 97.2151 170.82 97.1688C164.259 97.1224 157.834 99.0382 152.37 102.67C145.904 106.986 141.189 113.465 139.07 120.945C136.951 128.424 137.568 136.414 140.81 143.48C142.376 146.947 144.542 150.109 147.21 152.82C149.791 155.337 152.759 157.423 156 159L157.18 159.57C157.562 159.776 157.96 159.95 158.37 160.09L160.78 160.98C162.381 161.464 164.016 161.832 165.67 162.08C167.266 162.324 168.876 162.461 170.49 162.49C172.042 162.506 173.593 162.409 175.13 162.2C180.623 161.447 185.835 159.313 190.28 156L190.45 155.87V156.09L190.36 155.98L203.54 158.45L203.45 158.56C202.15 154.44 201.13 151.23 200.45 149.05L199.67 146.56C199.59 146.28 199.52 146.07 199.48 145.92L199.42 145.69L199.4 145.73Z" fill="#263238"/>
<path d="M167.6 141.57L156.15 129.25L159.86 125.81L167.77 134.31L184.37 117.98L187.92 121.58L167.6 141.57Z" fill="#455A64"/>
</svg>
